<svg id="Group_12" data-name="Group 12" xmlns="http://www.w3.org/2000/svg" width="310.616" height="310.616" viewBox="0 0 310.616 310.616">
  <g id="Group_9" data-name="Group 9" opacity="0.1">
    <path id="Path_9" data-name="Path 9" d="M481.165,1009.563c-85.645,0-155.313-69.679-155.313-155.313s69.668-155.3,155.313-155.3,155.3,69.668,155.3,155.3S566.8,1009.563,481.165,1009.563Zm0-292.082c-75.417,0-136.779,61.352-136.779,136.769s61.363,136.779,136.779,136.779S617.933,929.667,617.933,854.25,556.581,717.481,481.165,717.481Z" transform="translate(-325.851 -698.947)"/>
  </g>
  <g id="Group_10" data-name="Group 10" transform="translate(151.609 5.552)">
    <path id="Path_10" data-name="Path 10" d="M417.73,978.642a3.706,3.706,0,0,1-1.891-6.9,142.915,142.915,0,0,0,69.92-122.539c0-78.477-63.854-142.331-142.331-142.331a3.71,3.71,0,0,1,0-7.42c82.564,0,149.751,67.188,149.751,149.751a150.4,150.4,0,0,1-73.558,128.921A3.7,3.7,0,0,1,417.73,978.642Z" transform="translate(-339.724 -699.456)" fill="#735b7d"/>
  </g>
  <circle id="Ellipse_3" data-name="Ellipse 3" cx="118.584" cy="118.584" r="118.584" transform="translate(36.726 36.722)" fill="#735b7d"/>
  <g id="Group_11" data-name="Group 11" transform="translate(37.943 37.932)" opacity="0.1">
    <path id="Path_11" data-name="Path 11" d="M463.556,702.418,329.323,836.651a118.352,118.352,0,0,0,40.5,73.406L536.95,742.929A118.383,118.383,0,0,0,463.556,702.418Z" transform="translate(-329.323 -702.418)" fill="#fff"/>
    <path id="Path_12" data-name="Path 12" d="M514.179,748a117.677,117.677,0,0,0-16.272-40.664L334.244,870.992a117.661,117.661,0,0,0,40.676,16.283Z" transform="translate(-280.466 -653.551)" fill="#fff"/>
  </g>
</svg>
