<svg xmlns="http://www.w3.org/2000/svg" width="310.62" height="310.608" viewBox="0 0 310.62 310.608">
  <g id="Group_16" data-name="Group 16" transform="translate(-269.9 -731.195)">
    <g id="Group_13" data-name="Group 13" transform="translate(269.9 731.195)" opacity="0.1">
      <path id="Path_13" data-name="Path 13" d="M425.21,1041.8c-85.643,0-155.31-69.666-155.31-155.3s69.667-155.31,155.31-155.31S580.52,800.872,580.52,886.5,510.842,1041.8,425.21,1041.8Zm0-292.074c-75.415,0-136.765,61.361-136.765,136.776S349.8,1023.27,425.21,1023.27,561.975,961.919,561.975,886.5,500.625,749.729,425.21,749.729Z" transform="translate(-269.9 -731.195)"/>
    </g>
    <g id="Group_14" data-name="Group 14" transform="translate(421.505 736.757)">
      <path id="Path_14" data-name="Path 14" d="M424.1,936.737a3.748,3.748,0,0,1-1.312-.241,3.706,3.706,0,0,1-2.153-4.775,141.893,141.893,0,0,0,9.169-50.269c0-78.486-63.853-142.338-142.327-142.338a3.7,3.7,0,0,1,0-7.41c82.562,0,149.748,67.175,149.748,149.748a149.42,149.42,0,0,1-9.649,52.88A3.727,3.727,0,0,1,424.1,936.737Z" transform="translate(-283.773 -731.704)" fill="#ff7382"/>
    </g>
    <circle id="Ellipse_4" data-name="Ellipse 4" cx="118.582" cy="118.582" r="118.582" transform="translate(306.627 767.921)" fill="#ff7382"/>
    <g id="Group_15" data-name="Group 15" transform="translate(307.842 769.137)" opacity="0.1">
      <path id="Path_15" data-name="Path 15" d="M407.6,734.667,273.372,868.9a118.321,118.321,0,0,0,40.5,73.393L480.994,775.167A118.32,118.32,0,0,0,407.6,734.667Z" transform="translate(-273.372 -734.667)" fill="#fff"/>
      <path id="Path_16" data-name="Path 16" d="M458.235,780.262a117.973,117.973,0,0,0-16.283-40.674L278.293,903.247a117.969,117.969,0,0,0,40.674,16.282Z" transform="translate(-224.516 -685.811)" fill="#fff"/>
    </g>
  </g>
</svg>
