<svg id="Group_8" data-name="Group 8" xmlns="http://www.w3.org/2000/svg" width="310.616" height="310.616" viewBox="0 0 310.616 310.616">
  <g id="Group_5" data-name="Group 5" opacity="0.1">
    <path id="Path_5" data-name="Path 5" d="M451.446,1009.563c-85.635,0-155.3-69.679-155.3-155.313s69.668-155.3,155.3-155.3S606.76,768.616,606.76,854.25,537.08,1009.563,451.446,1009.563Zm0-292.082c-75.417,0-136.768,61.352-136.768,136.769s61.352,136.779,136.768,136.779S588.225,929.667,588.225,854.25,526.862,717.481,451.446,717.481Z" transform="translate(-296.143 -698.947)"/>
  </g>
  <g id="Group_6" data-name="Group 6" transform="translate(5.563 5.562)">
    <path id="Path_6" data-name="Path 6" d="M446.392,998.948c-82.563,0-149.74-67.177-149.74-149.751a149.229,149.229,0,0,1,8.36-49.342,3.71,3.71,0,1,1,7.005,2.448,141.808,141.808,0,0,0-7.956,46.894c0,78.487,63.854,142.341,142.331,142.341S588.723,927.684,588.723,849.2,524.879,706.866,446.392,706.866a3.7,3.7,0,0,1,0-7.409c82.574,0,149.751,67.177,149.751,149.74S528.967,998.948,446.392,998.948Z" transform="translate(-296.652 -699.457)" fill="#ff8959"/>
  </g>
  <circle id="Ellipse_2" data-name="Ellipse 2" cx="118.585" cy="118.585" r="118.585" transform="translate(36.72 36.722)" fill="#ff8959"/>
  <g id="Group_7" data-name="Group 7" transform="translate(37.932 37.932)" opacity="0.1">
    <path id="Path_7" data-name="Path 7" d="M433.847,702.418,299.614,836.651a118.4,118.4,0,0,0,40.5,73.406L507.253,742.929A118.412,118.412,0,0,0,433.847,702.418Z" transform="translate(-299.614 -702.418)" fill="#fff"/>
    <path id="Path_8" data-name="Path 8" d="M484.471,748a117.917,117.917,0,0,0-16.283-40.664L304.536,870.992A117.605,117.605,0,0,0,345.2,887.275Z" transform="translate(-250.747 -653.551)" fill="#fff"/>
  </g>
</svg>
