<svg id="Group_4" data-name="Group 4" xmlns="http://www.w3.org/2000/svg" width="310.616" height="310.616" viewBox="0 0 310.616 310.616">
  <g id="Group_1" data-name="Group 1" opacity="0.1">
    <path id="Path_1" data-name="Path 1" d="M421.732,1009.563c-85.635,0-155.3-69.679-155.3-155.313s69.668-155.3,155.3-155.3,155.313,69.668,155.313,155.3S507.377,1009.563,421.732,1009.563Zm0-292.082c-75.406,0-136.768,61.352-136.768,136.769s61.363,136.779,136.768,136.779S558.511,929.667,558.511,854.25,497.148,717.481,421.732,717.481Z" transform="translate(-266.429 -698.947)"/>
  </g>
  <g id="Group_2" data-name="Group 2" transform="translate(35.971 5.562)">
    <path id="Path_2" data-name="Path 2" d="M389.053,998.948a150.705,150.705,0,0,1-118.562-58.27,3.708,3.708,0,1,1,5.869-4.535,143.257,143.257,0,0,0,112.693,55.4c78.487,0,142.342-63.854,142.342-142.341S467.54,706.866,389.053,706.866a3.7,3.7,0,1,1,0-7.409c82.574,0,149.751,67.177,149.751,149.74S471.627,998.948,389.053,998.948Z" transform="translate(-269.721 -699.457)" fill="#d86c86"/>
  </g>
  <circle id="Ellipse_1" data-name="Ellipse 1" cx="118.585" cy="118.585" r="118.585" transform="translate(36.721 36.722)" fill="#d86c86"/>
  <g id="Group_3" data-name="Group 3" transform="translate(37.932 37.932)" opacity="0.1">
    <path id="Path_3" data-name="Path 3" d="M404.133,702.418,269.9,836.651a118.418,118.418,0,0,0,40.511,73.406L477.539,742.929A118.41,118.41,0,0,0,404.133,702.418Z" transform="translate(-269.9 -702.418)" fill="#fff"/>
    <path id="Path_4" data-name="Path 4" d="M454.757,748a117.691,117.691,0,0,0-16.283-40.664L274.822,870.992a117.608,117.608,0,0,0,40.665,16.283Z" transform="translate(-221.033 -653.551)" fill="#fff"/>
  </g>
</svg>
