<?xml version="1.0" encoding="utf-8"?>
<!-- Generator: Adobe Illustrator 22.1.0, SVG Export Plug-In . SVG Version: 6.00 Build 0)  -->
<svg version="1.1" id="圖層_1" xmlns="http://www.w3.org/2000/svg" xmlns:xlink="http://www.w3.org/1999/xlink" x="0px" y="0px"
	 viewBox="0 0 961 702.9" style="enable-background:new 0 0 961 702.9;" xml:space="preserve">
<style type="text/css">
	.st0{fill:#004567;stroke:#8097AF;stroke-miterlimit:10;}
	.st1{fill:#FFEE00;}
	.st2{fill:#E8414A;}
	.st3{fill:#FFFFFF;}
	.st4{fill:#A3B4C2;}
	.st5{font-family:'AdobeMingStd-Light-B5pc-H';}
	.st6{font-size:31px;}
	.st7{letter-spacing:-4;}
	.st8{font-family:'ArialMT';}
	.st9{font-size:38px;}
	.st10{letter-spacing:3;}
	.st11{letter-spacing:1;}
	.st12{letter-spacing:4;}
	.st13{fill:#004567;}
	.st14{fill:#8097AF;}
</style>
<g id="Group_2445" transform="translate(-1078.887 -2962.949)">
	<rect id="Rectangle_1312" x="1079.4" y="2963.4" class="st0" width="960" height="701.9"/>
	<g id="Group_2442" transform="translate(1227.266 3141.23)">
		<path id="Path_19227" class="st1" d="M246.5,67.6h-5.4c-0.9,0-1.5,0.7-1.5,1.5v30.5h-74.3V8.5h30.6c0.8,0,1.5-0.7,1.5-1.5V1.5
			c0-0.8-0.7-1.5-1.5-1.5h-67.6c-0.8,0-1.5,0.7-1.5,1.5V7c0,0.8,0.7,1.5,1.5,1.5h30.5v91.2H8.5V69.2c0-0.9-0.7-1.5-1.5-1.5H1.5
			c-0.9,0-1.5,0.7-1.5,1.5v67.5c0,0.8,0.7,1.5,1.5,1.5l0,0H7c0.9,0,1.5-0.7,1.5-1.5v-30.6h150.2v226.4h-30.5c-0.8,0-1.5,0.7-1.5,1.5
			v5.5c0,0.8,0.7,1.5,1.5,1.5h67.6c0.8,0,1.5-0.7,1.5-1.5v-5.5c0-0.8-0.7-1.5-1.5-1.5h-30.6V106.1h74.3v30.6c0,0.9,0.7,1.5,1.5,1.5
			h5.4c0.9,0,1.5-0.7,1.5-1.5V69.2C248,68.3,247.4,67.6,246.5,67.6z M194.3,3.1v2.4h-64.5V3.1H194.3z M3.1,70.7h2.4v64.5H3.1V70.7z
			 M8.5,103.1v-0.3h150.2v0.3H8.5z M129.8,335.6h64.5v2.4h-64.5V335.6z M161.9,332.5V8.5h0.3v324H161.9z M165.2,103.1v-0.3h74.3v0.3
			H165.2z M242.7,135.2V70.7h2.3v64.5H242.7z"/>
		<g id="Group_2441" transform="translate(0 135.178)">
			<path id="Path_19228" class="st2" d="M128.3,202.8H3.1V1.5C3.1,0.7,2.4,0,1.5,0C0.7,0,0,0.7,0,1.5c0,0,0,0,0,0v202.8
				c0,0.8,0.7,1.5,1.5,1.5h126.7c0.8,0,1.5-0.7,1.6-1.5S129.1,202.8,128.3,202.8C128.3,202.8,128.3,202.8,128.3,202.8L128.3,202.8z"
				/>
			<path id="Path_19229" class="st2" d="M7,200.4h121.3c0.9,0,1.5-0.7,1.5-1.5s-0.7-1.5-1.5-1.5H8.5V1.5C8.5,0.7,7.8,0,7,0
				S5.5,0.7,5.5,1.5v197.3C5.5,199.7,6.1,200.4,7,200.4z"/>
		</g>
	</g>
	<g id="Group_2443" transform="translate(1151.283 3073.695)">
		<path id="Path_19230" class="st3" d="M10.1,458.1c0,0.1-0.1,0.1-0.1,0.2c0,4.1,3.3,7.4,7.3,7.6c0.1,0,0.2,0.1,0.4,0.1h356.1
			c0.2,0,0.3-0.1,0.4-0.2c4-0.2,7.1-3.5,7.1-7.5l0,0V17.7l0,0l0,0c0-4.2-3.4-7.6-7.6-7.6c-0.1,0-0.1,0.1-0.2,0.1H17.8
			c-0.1,0-0.1-0.1-0.2-0.1c-4.2,0-7.6,3.4-7.6,7.6c0,0.1,0.1,0.1,0.1,0.2L10.1,458.1z M191.2,13.4l4.3,4.3l-4.3,4.3
			c-0.6,0.6-0.6,1.6,0,2.2c0.3,0.3,0.7,0.5,1.1,0.5c0.4,0,0.8-0.2,1.1-0.4l4.3-4.3l4.3,4.3c0.6,0.6,1.6,0.6,2.2,0
			c0.6-0.6,0.6-1.6,0-2.2l-4.3-4.3l4.3-4.3c0.1-0.1,0.1-0.2,0.1-0.3h27.5c-0.4,0.2-0.9,0.5-1.3,0.8h-2.3c-0.6,0-1.1,0.3-1.3,0.8
			c-0.3,0.5-0.3,1.1,0,1.5l1.5,2.6l-1.4,11.8c-0.1,0.8,0.5,1.6,1.3,1.7c0,0,0,0,0,0l0.2,0c0.8,0,1.4-0.6,1.5-1.4l0.9-7.7l2.3,4
			c0.4,0.7,1.4,1,2.1,0.6c0.2-0.1,0.4-0.3,0.6-0.6l5.1-8.7L280,50.1H164.8V23.6l3.7-3.7l4.3,4.3c0.3,0.3,0.7,0.4,1.1,0.4
			c0.4,0,0.8-0.2,1.1-0.4c0.6-0.6,0.6-1.6,0-2.2l-4.3-4.3l1.5-1.5l7.8,8.4c0.3,0.3,0.7,0.5,1.1,0.5c0.4,0,0.8-0.1,1-0.4
			c0.6-0.6,0.7-1.5,0.1-2.2c0,0,0,0,0,0l-7.9-8.5l0.6-0.6c0.1-0.1,0-0.2,0.1-0.3h16.1C191.2,13.3,191.1,13.4,191.2,13.4z
			 M195.3,13.2h4.7l-2.3,2.3L195.3,13.2z M288.3,13.4l4.3,4.3l-4.3,4.3c-0.6,0.6-0.6,1.6,0,2.2c0.3,0.3,0.7,0.5,1.1,0.5
			c0.4,0,0.8-0.2,1.1-0.4l4.3-4.3l4.3,4.3c0.3,0.3,0.7,0.4,1.1,0.4c0.8,0,1.5-0.7,1.6-1.5c0-0.4-0.2-0.8-0.5-1.1l-4.3-4.3l4.3-4.3
			c0.1-0.1,0.1-0.2,0.1-0.3h29.8c-1.5,1-2.4,2.7-2.4,4.5c0,3.1,2.5,5.6,5.6,5.6c1.8,0,3.6-1,4.5-2.5v29.4h-53.9l-42.6-34.5
			c0-0.3,0.2-0.6,0-0.9c-0.3-0.5-0.8-0.8-1.3-0.8h-0.8c-0.3-0.3-0.6-0.5-0.9-0.8h49C288.2,13.3,288.2,13.4,288.3,13.4z M292.4,13.2
			h4.7l-2.3,2.3L292.4,13.2z M224.4,462.7l-4.3-4.3l4.3-4.3c0.6-0.6,0.6-1.6,0-2.2c0,0,0,0,0,0c-0.6-0.6-1.6-0.6-2.1,0c0,0,0,0,0,0
			l-4.3,4.3l-4.3-4.3c-0.6-0.6-1.6-0.6-2.2,0s-0.6,1.6,0,2.2l0,0l4.3,4.3l-4.3,4.3c-0.1,0.1,0,0.2-0.1,0.2h-22.9
			c0-0.1,0-0.2-0.1-0.2l-0.6-0.6l7.9-8.5c0.6-0.6,0.5-1.6-0.1-2.2c0,0,0,0,0,0c-0.6-0.6-1.6-0.5-2.2,0.1l-7.8,8.4l-1.5-1.5l4.3-4.3
			c0.6-0.6,0.6-1.6,0-2.2s-1.6-0.6-2.2,0l-4.3,4.3l-3.6-3.6v-26.7h100.8L259,460.1l-1.7-1.7l4.3-4.3c0.6-0.6,0.6-1.6,0-2.2
			c0,0,0,0,0,0c-0.6-0.6-1.6-0.6-2.1,0c0,0,0,0,0,0l-4.3,4.3l-4.3-4.3c-0.2-0.2-0.4-0.3-0.7-0.3l-0.5-5c0-0.8-0.6-1.4-1.4-1.4
			c-0.1,0-0.2,0-0.3,0c-0.8,0.1-1.5,0.8-1.4,1.7c0,0,0,0,0,0l1.5,13.2l0.1,0.1l0,0.1c0.1,0.2,0.3,0.4,0.3,0.5
			c0.1,0.1,0.1,0.2,0.1,0.3c0.2,0.4,0.4,0.7,0.7,1.1l-0.5,0.5c-0.1,0.1,0,0.2-0.1,0.2h-24.2C224.4,462.9,224.4,462.8,224.4,462.7
			L224.4,462.7z M220.3,462.9h-4.7l2.4-2.4L220.3,462.9z M157.5,462.7l-4.3-4.3l4.3-4.3c0.6-0.6,0.6-1.6,0-2.2
			c-0.6-0.6-1.6-0.6-2.2,0c0,0,0,0,0,0l-4.3,4.3l-4.3-4.3c-0.6-0.6-1.6-0.6-2.2,0c-0.6,0.6-0.6,1.6,0,2.2l0,0l4.3,4.3l-4.3,4.3
			c-0.1,0.1-0.1,0.2-0.1,0.2h-28.8c0.4-0.5,0.8-1.1,1.1-1.7c0.1-0.1,0.1-0.1,0.1-0.2c0.1-0.2,0.3-0.4,0.4-0.6l0-0.1l0-0.1l1.5-13.2
			c0.1-0.8-0.5-1.6-1.3-1.7c0,0,0,0,0,0l-0.2,0c-0.8,0-1.4,0.6-1.5,1.4l-0.3,2.9h-11.7c-0.6,0-1.1,0.3-1.3,0.8
			c-0.3,0.5-0.3,1.1,0,1.5l5.7,10c-0.5-0.2-1-0.6-1.3-1l-0.1-0.1c-0.1-0.1,0-0.1-0.1-0.2l-38.9-34.7h107.7v26.5
			c-0.1,0.3-0.1,0.7,0,1.1v5.7c0,0.2-0.1,0.3-0.1,0.5c0.3,0.8,0.6,1.5,1.2,2.1l-0.8,0.9c-0.1,0.1-0.1,0.2-0.1,0.2h-17.8
			C157.6,462.9,157.6,462.8,157.5,462.7z M153.4,462.9h-4.7l2.4-2.4L153.4,462.9z M114.3,459.7c-0.4,1.2-1.3,2.1-2.4,2.5l2.7-4.6
			L114.3,459.7z M110,459.2l-3.7-6.4h7.5L110,459.2z M54.8,458.3c0-1.4,1.1-2.5,2.5-2.5s2.5,1.1,2.5,2.5c0,1.4-1.1,2.5-2.5,2.5
			c0,0,0,0,0,0C55.9,460.8,54.8,459.7,54.8,458.3L54.8,458.3z M52.8,461.4c0.4,0.6,1,1.1,1.6,1.5h-1.6V461.4z M49.7,462.9H20.6
			c1.6-1,2.6-2.7,2.7-4.6c0-3.1-2.5-5.6-5.6-5.6c-1.8,0-3.5,0.9-4.5,2.5v-29.3h36.5L49.7,462.9z M17.7,460.8c-1.4,0-2.5-1.1-2.5-2.5
			c0-1.4,1.1-2.5,2.5-2.5c1.4,0,2.5,1.1,2.5,2.5c0,0,0,0,0,0C20.2,459.7,19.1,460.8,17.7,460.8C17.7,460.8,17.7,460.8,17.7,460.8
			L17.7,460.8z M163.2,163.3h16.1c0.9,0,1.5-0.7,1.5-1.5s-0.7-1.5-1.5-1.5h-14.5v-107h119l55,44.5v123.9H255v-14.6
			c0-0.9-0.7-1.5-1.5-1.5s-1.5,0.7-1.5,1.5v16.1c0,0.8,0.7,1.5,1.5,1.5h85.3v99.8L281,422.8H178.4v-118h38.4c0.8,0,1.5-0.7,1.5-1.5
			v-16.1c0-0.9-0.7-1.5-1.5-1.5s-1.5,0.7-1.5,1.5l0,0v14.6h-36.9v-93.1h14.6c0.9,0,1.5-0.7,1.5-1.5s-0.7-1.5-1.5-1.5h-16.1
			c-0.9,0-1.5,0.7-1.5,1.5v94.6H52.8V151.5l57.9-98.3h51v108.6C161.7,162.6,162.4,163.3,163.2,163.3
			C163.2,163.3,163.2,163.3,163.2,163.3z M378.4,100.2l-2.3-2.3l2.3-2.3V100.2z M378.4,380.6l-2.3-2.4l2.3-2.4V380.6z M377.1,337.2
			c0.1,0.2,0.2,0.2,0.2,0.4c0,0.5-0.1,1.1-0.4,1.6l-0.9-0.9L377.1,337.2z M378.4,300.5l-2.3-2.4l2.3-2.4V300.5z M377.1,257
			c0.1,0.1,0.2,0.2,0.2,0.4c0,0.5-0.1,1.1-0.4,1.6l-0.9-0.9L377.1,257z M372.4,221.7l1.4-1.5l1.2,1.3c-0.1,0.1-0.2,0.2-0.4,0.2
			L372.4,221.7z M376,218l1.3-1.3c0.3,0.7,0.3,1.4,0.2,2.1c-0.1,0.2-0.2,0.3-0.2,0.5L376,218z M377.3,131c0,0.2-0.2,0.3-0.3,0.4
			l-1-1l1-1C377.2,129.9,377.3,130.4,377.3,131L377.3,131z M373.9,128.2l-4.3-4.3c-0.6-0.6-1.6-0.6-2.2-0.1s-0.6,1.6-0.1,2.2
			c0,0,0,0,0,0l4.3,4.3l-4.3,4.3c-0.6,0.6-0.6,1.6,0,2.2c0,0,0,0,0,0c0.3,0.3,0.7,0.4,1.1,0.4c0.4,0,0.8-0.2,1.1-0.5l4.3-4.3
			l1.3,1.3l-11.3,8c-0.7,0.5-0.9,1.5-0.4,2.1c0.3,0.4,0.8,0.7,1.3,0.7c0.3,0,0.6-0.1,0.9-0.3l11.8-8.3l0.8,0.8
			c0.1,0.1,0.2,0,0.2,0.1v74.5c-0.1,0.1-0.2,0-0.2,0.1l-0.6,0.6l-8.5-7.8c-0.6-0.6-1.6-0.5-2.2,0.1c-0.6,0.6-0.5,1.6,0.1,2.2l0,0
			l8.4,7.7l-1.5,1.5l-4.3-4.3c-0.6-0.6-1.6-0.6-2.2,0c-0.6,0.6-0.6,1.5,0,2.1l4.3,4.3l-3.6,3.6h-26.2V100.2L375,127L373.9,128.2z
			 M367.9,224.7c0.2,0.1,0.4,0.2,0.6,0.2s0.4-0.1,0.5-0.2h5.8l0.1,0c0.1,0,0.2,0,0.3,0c0.2-0.1,0.3-0.2,0.5-0.3
			c0.1-0.1,0.3-0.1,0.4-0.2c0.4-0.2,0.7-0.4,1.1-0.6l0.9,0.9c0.1,0.1,0.2,0,0.2,0.1v26.9c-0.1,0-0.2,0-0.2,0.1l-0.8,0.8l-11.8-8.4
			c-0.7-0.5-1.7-0.3-2.1,0.4c-0.5,0.7-0.3,1.6,0.4,2.1l11.3,8l-1.3,1.3l-4.3-4.3c-0.6-0.6-1.6-0.6-2.2,0s-0.6,1.6,0,2.2l4.3,4.3
			l-4.3,4.3c-0.6,0.6-0.6,1.6,0,2.2c0.3,0.3,0.7,0.5,1.1,0.5c0.4,0,0.8-0.2,1.1-0.4l4.3-4.3l1.7,1.8l-33.7,57.3v-94.6L367.9,224.7z
			 M377.8,264.3l0.3,0.3c0.1,0.1,0.2,0.1,0.2,0.1v26.9c-0.1,0.1-0.2,0-0.2,0.1l-4.3,4.3l-4.3-4.3c-0.6-0.6-1.6-0.6-2.2,0
			c-0.6,0.6-0.6,1.5,0,2.1c0,0,0,0,0,0l4.3,4.3l-4.3,4.3c-0.6,0.6-0.6,1.6,0,2.1c0,0,0,0,0,0c0.3,0.3,0.7,0.5,1.1,0.5
			c0.4,0,0.8-0.2,1.1-0.5l4.3-4.3l4.3,4.3c0.1,0.1,0.2,0.1,0.2,0.1v26.9c-0.1,0-0.2,0-0.2,0.1l-0.8,0.8l-11.8-8.3
			c-0.7-0.5-1.7-0.3-2.1,0.4c-0.5,0.7-0.3,1.6,0.4,2.1l11.3,8l-1.3,1.3l-4.3-4.3c-0.6-0.6-1.6-0.6-2.2,0s-0.6,1.6,0,2.2l4.3,4.3
			l-4.3,4.3c-0.6,0.6-0.6,1.6,0,2.2c0.3,0.3,0.7,0.5,1.1,0.4c0.4,0,0.8-0.2,1.1-0.4l4.3-4.3l1.7,1.7l-33.7,51.6v-68.4L377.8,264.3z
			 M338.8,398.4l-15.9,24.4h-38.4l54.3-92.2L338.8,398.4z M338.8,404.1v18.8h-12.2L338.8,404.1z M341.9,399.3l35.9-55.1l0.4,0.4
			c0.1,0.1,0.2,0.1,0.2,0.1v26.9c-0.1,0.1-0.2,0-0.2,0.1l-4.3,4.3l-4.3-4.3c-0.6-0.6-1.6-0.6-2.2,0c-0.6,0.6-0.6,1.5,0,2.1l4.3,4.3
			l-4.3,4.3c-0.6,0.6-0.6,1.6,0,2.2c0,0,0,0,0,0c0.3,0.3,0.7,0.5,1.1,0.4c0.4,0,0.8-0.2,1.1-0.5l4.3-4.3l4.3,4.3
			c0.1,0.1,0.2,0.1,0.2,0.1v30.4c-1-1.6-2.7-2.5-4.5-2.5c-3.1,0-5.6,2.5-5.6,5.6c0,1.8,1,3.6,2.5,4.5h-28.9V399.3z M373.8,420.8
			c-1.4,0-2.5-1.1-2.5-2.5c0-1.4,1.1-2.5,2.5-2.5c1.4,0,2.5,1.1,2.5,2.5l0,0C376.3,419.7,375.2,420.8,373.8,420.8L373.8,420.8z
			 M378.4,421.3v1.5h-1.5C377.4,422.4,378,421.9,378.4,421.3L378.4,421.3z M378.4,54.8c-0.4-0.6-0.9-1.1-1.5-1.5h1.5V54.8z
			 M376.3,57.8c0,1.4-1.1,2.5-2.5,2.5c-1.4,0-2.5-1.1-2.5-2.5c0-1.4,1.1-2.5,2.5-2.5c0,0,0,0,0,0C375.2,55.3,376.3,56.4,376.3,57.8
			L376.3,57.8z M373.8,63.3c1.8,0,3.6-1,4.5-2.5v30.5c-0.1,0.1-0.2,0-0.2,0.1l-4.3,4.3l-4.3-4.3c-0.6-0.6-1.6-0.6-2.2,0
			c-0.6,0.6-0.6,1.6,0,2.2l4.3,4.3l-4.3,4.3c-0.6,0.6-0.6,1.6,0,2.2c0.3,0.3,0.7,0.5,1.1,0.5c0.4,0,0.8-0.2,1.1-0.5l4.3-4.3l4.3,4.3
			c0.1,0.1,0.2,0.1,0.2,0.1v19.4c-0.1,0-0.2,0-0.2,0.1l-0.9,0.9l-35.3-28.6v-43h28.9c-1.6,1-2.5,2.7-2.6,4.5
			C368.2,60.8,370.7,63.3,373.8,63.3L373.8,63.3z M338.8,93.8l-50.1-40.5h50.1V93.8z M13.2,95.5l2.3,2.3l-2.3,2.3V95.5z M14.5,219.1
			c-0.2-0.7-0.2-1.4,0.1-2.1l1,1L14.5,219.1z M13.4,211.5c-0.1-0.1-0.2-0.1-0.2-0.1v-26.9c0.1,0,0.2,0,0.2-0.1l4.3-4.3l4.3,4.3
			c0.3,0.3,0.7,0.4,1.1,0.4c0.4,0,0.8-0.2,1.1-0.4c0.6-0.6,0.6-1.6,0-2.2l-4.3-4.3l4.3-4.3c0.6-0.6,0.6-1.6,0-2.2
			c-0.6-0.6-1.6-0.6-2.2,0l-4.3,4.3l-4.3-4.3c-0.1-0.1-0.2,0-0.2-0.1v-24.2c0.2,0.3,0.4,0.5,0.7,0.7l0.1,0l12.1,8.5
			c0.3,0.2,0.6,0.3,0.9,0.3c0.5,0,1-0.2,1.3-0.7c0.5-0.7,0.3-1.6-0.4-2.1l-12.1-8.5l-0.1,0c-0.6-0.5-1.1-1.2-1.2-2l3.3-3.3l4.3,4.3
			c0.3,0.3,0.7,0.4,1.1,0.4c0.4,0,0.8-0.2,1.1-0.4c0.6-0.6,0.6-1.6,0-2.2l-4.3-4.3l4.3-4.3c0.6-0.6,0.6-1.6,0-2.2
			c-0.6-0.6-1.6-0.6-2.2,0l-4,4L49.7,85v65.7l-36,61.1L13.4,211.5z M13.2,137.3v-1.7l0.7,0.7L13.2,137.3z M13.2,175.6l2.3,2.3
			l-2.3,2.3V175.6z M13.2,255.7l2.3,2.3l-2.3,2.3V255.7z M16.7,301.8c-0.1,0-0.2-0.1-0.3-0.2l1.3-1.3l1.4,1.5L16.7,301.8z
			 M14.2,299.4c-0.1-0.2-0.2-0.3-0.3-0.5c-0.2-0.7-0.1-1.5,0.2-2.2l1.4,1.4L14.2,299.4z M13.2,330.6l2.4,2.4l-2.4,2.4V330.6z
			 M16.4,373.2h7.2l-3.7,6.4l-3.6-6.3L16.4,373.2z M14.6,378.6c-0.5-0.8-0.7-1.8-0.4-2.8l2.9,5L14.6,378.6z M21.3,383.5l6.3-11
			c0.3-0.5,0.3-1.1,0-1.5c-0.3-0.5-0.8-0.8-1.3-0.8h-5.5l6.9-4.9c0.7-0.5,0.9-1.4,0.4-2.1c-0.5-0.7-1.4-0.9-2.1-0.4l0,0l-10.4,7.4
			h-1.9c-0.2,0-0.2,0.2-0.4,0.2v-30.8c0.1,0,0.2,0,0.2-0.1l4.3-4.3l4.3,4.3c0.3,0.3,0.7,0.5,1.1,0.5c0.4,0,0.8-0.2,1.1-0.4
			c0.6-0.6,0.6-1.6,0-2.2c0,0,0,0,0,0l-4.3-4.3l4.3-4.3c0.6-0.6,0.6-1.6,0-2.2s-1.6-0.6-2.2,0l-4.3,4.3l-4.3-4.3
			c-0.1-0.1-0.2,0-0.2-0.1v-21.7c0.1-0.1,0.2,0,0.2-0.1l0.8-0.8c0.4,0.2,0.7,0.4,1.1,0.6l0.1,0.1c0.3,0.1,0.5,0.3,0.7,0.4
			c0.1,0,0.2,0,0.3,0l0.1,0h5.9c0.2,0.1,0.3,0.2,0.5,0.2s0.4-0.2,0.6-0.2h26v105.1l-29.2-26C20.8,383.8,21.1,383.8,21.3,383.5
			L21.3,383.5z M23.5,301.8l-3.6-3.6l4.3-4.3c0.6-0.6,0.6-1.6,0-2.1c0,0,0,0,0,0c-0.6-0.6-1.6-0.6-2.2,0l-4.3,4.3l-1.5-1.5l8.4-7.7
			c0.6-0.6,0.7-1.6,0.1-2.2c-0.6-0.6-1.6-0.7-2.2-0.1l0,0l-8.5,7.8l-0.6-0.6c-0.1-0.1-0.2-0.1-0.2-0.1v-26.9c0.1-0.1,0.2,0,0.2-0.1
			l4.3-4.3l4.3,4.3c0.3,0.3,0.7,0.4,1.1,0.4c0.4,0,0.8-0.2,1.1-0.4c0.6-0.6,0.6-1.6,0-2.2l-4.3-4.3l4.3-4.3c0.6-0.6,0.6-1.6,0-2.2
			c-0.6-0.6-1.6-0.6-2.2,0l-4.3,4.3l-4.3-4.3c-0.1-0.1-0.2,0-0.2-0.1v-26.9c0.1-0.1,0.2,0,0.2-0.1l0.8-0.8L26,232
			c0.3,0.2,0.6,0.3,0.9,0.3c0.5,0,1-0.2,1.3-0.6c0.5-0.7,0.3-1.7-0.4-2.1l-11.4-8l1.3-1.3l4.3,4.3c0.3,0.3,0.7,0.5,1.1,0.5
			c0.4,0,0.8-0.2,1.1-0.4c0.6-0.6,0.6-1.6,0-2.2c0,0,0,0,0,0l-4.3-4.3l4.3-4.3c0.6-0.6,0.6-1.6,0-2.2c-0.6-0.6-1.6-0.6-2.1,0
			l-4.3,4.3l-1.8-1.8l33.7-57.3v145L23.5,301.8z M52.8,145.5V80.1l16.9-26.9h37.5L52.8,145.5z M52.8,74.3V53.2H66L52.8,74.3z
			 M49.7,79.2l-34.1,54.4l-2.1-2.1c-0.1-0.1-0.2,0-0.2-0.1v-27c0.1-0.1,0.2,0,0.2-0.1l4.3-4.3l4.3,4.3c0.3,0.3,0.7,0.5,1.1,0.5
			c0.4,0,0.8-0.2,1.1-0.5c0.6-0.6,0.6-1.6,0-2.2l-4.3-4.3l4.3-4.3c0.6-0.6,0.6-1.6,0-2.2c-0.6-0.6-1.6-0.6-2.2,0l-4.3,4.3l-4.3-4.3
			c-0.1-0.1-0.2,0-0.2-0.1V60.9c1,1.5,2.7,2.4,4.5,2.5c3.1,0,5.6-2.5,5.6-5.6c0-1.9-1-3.6-2.6-4.5h29L49.7,79.2z M17.7,55.3
			c1.4,0,2.5,1.1,2.5,2.5c0,1.4-1.1,2.5-2.5,2.5c-1.4,0-2.5-1.1-2.5-2.5c0,0,0,0,0,0C15.2,56.4,16.3,55.3,17.7,55.3L17.7,55.3z
			 M13.2,54.7v-1.4h1.5C14.1,53.6,13.6,54.1,13.2,54.7L13.2,54.7z M13.2,421.4c0.4,0.6,0.9,1.1,1.5,1.4h-1.5V421.4z M15.2,418.3
			c0-1.4,1.1-2.5,2.5-2.5c1.4,0,2.5,1.1,2.5,2.5c0,1.4-1.1,2.5-2.5,2.5c0,0,0,0,0,0C16.3,420.8,15.2,419.7,15.2,418.3L15.2,418.3z
			 M20.7,422.8c1.6-1,2.5-2.7,2.5-4.5c0-3.1-2.5-5.6-5.6-5.6c-1.8,0-3.5,0.9-4.5,2.4v-33.6l36.5,32.5v8.8H20.7z M52.8,416.8l6.7,6
			h-6.7V416.8z M52.8,412.7V304.9h122.5v118H64.1L52.8,412.7z M178.5,459.7c-0.1-0.1-0.1-0.2-0.2-0.3v-2.4l1.4,1.4L178.5,459.7z
			 M181.9,460.6l1.3,1.3c-0.7,0.3-1.4,0.3-2.1,0.1c-0.1,0-0.2-0.1-0.4-0.2L181.9,460.6z M251.1,459.5l-0.4-3.5l2.3,2.3l-1.6,1.6
			C251.3,459.8,251.1,459.7,251.1,459.5L251.1,459.5z M255.2,460.6l1.6,1.6c-0.7,0.3-1.6,0.4-2.4,0.3c-0.3,0-0.5-0.3-0.8-0.4
			L255.2,460.6z M261.6,462.7l-0.4-0.4l21.4-36.4h38.2l-22.3,34.2l-1.7-1.7l4.3-4.3c0.6-0.6,0.6-1.6,0-2.2s-1.6-0.6-2.2,0l-4.3,4.3
			l-4.3-4.3c-0.2-0.1-0.4-0.2-0.7-0.3l-0.6-5c-0.1-0.8-0.8-1.4-1.7-1.3c0,0,0,0,0,0c-0.8,0.1-1.4,0.9-1.3,1.7c0,0,0,0,0,0l1.5,13.1
			c0,0.1-0.1,0.2,0,0.2c0.3,0.7,0.7,1.3,1.2,1.9l-0.5,0.5c-0.1,0.1-0.1,0.2-0.1,0.2h-26.4C261.7,462.9,261.7,462.8,261.6,462.7
			L261.6,462.7z M290.7,459.7l-0.4-3.6l2.3,2.3l-1.6,1.6C290.9,459.9,290.8,459.8,290.7,459.7L290.7,459.7z M294.7,460.6l1.6,1.6
			c-0.7,0.3-1.6,0.4-2.3,0.3c-0.3,0-0.5-0.3-0.8-0.4L294.7,460.6z M301.2,462.7l-0.4-0.4l23.7-36.4h14.2v29.4
			c-1-1.6-2.7-2.5-4.5-2.5c-3.1,0-5.6,2.5-5.6,5.6c0,1.9,1,3.7,2.7,4.6h-30.1C301.2,462.9,301.3,462.8,301.2,462.7L301.2,462.7z
			 M336.7,458.3c0,1.4-1.1,2.5-2.5,2.5c-1.4,0-2.5-1.1-2.5-2.5c0-1.4,1.1-2.5,2.5-2.5C335.6,455.8,336.7,456.9,336.7,458.3
			C336.7,458.3,336.7,458.3,336.7,458.3L336.7,458.3z M338.8,461.3v1.6h-1.6C337.8,462.5,338.4,462,338.8,461.3L338.8,461.3z
			 M341.9,425.9h36.5v29.4c-1-1.6-2.7-2.5-4.5-2.5c-3.1,0-5.6,2.5-5.6,5.6c0,1.9,1,3.7,2.7,4.6h-29V425.9z M373.8,460.8
			c-1.4,0-2.5-1.1-2.5-2.5c0-1.4,1.1-2.5,2.5-2.5c1.4,0,2.5,1.1,2.5,2.5c0,0,0,0,0,0C376.3,459.7,375.2,460.8,373.8,460.8
			L373.8,460.8z M373.8,15.2c1.4,0,2.5,1.1,2.5,2.5c0,1.4-1.1,2.5-2.5,2.5c-1.4,0-2.5-1.1-2.5-2.5C371.3,16.3,372.4,15.2,373.8,15.2
			C373.8,15.2,373.8,15.2,373.8,15.2L373.8,15.2z M373.8,23.2c1.8,0,3.6-1,4.5-2.5v29.4h-36.5V13.2h28.8c-1.5,1-2.4,2.7-2.4,4.5
			C368.3,20.7,370.7,23.2,373.8,23.2L373.8,23.2z M338.8,14.6c-0.4-0.6-0.9-1.1-1.4-1.5h1.4V14.6z M336.7,17.7
			c0,1.4-1.1,2.5-2.5,2.5s-2.5-1.1-2.5-2.5c0-1.4,1.1-2.5,2.5-2.5C335.6,15.2,336.7,16.3,336.7,17.7L336.7,17.7z M231.5,17.8
			c0.1-0.3,0.3-0.6,0.5-0.8h6.3l-3.8,6.4l-3-5.3L231.5,17.8L231.5,17.8z M164.8,16.7c0-0.1,0.1-0.2,0.2-0.3l1.3,1.3l-1.5,1.5
			L164.8,16.7z M167.2,14.2c0.2-0.1,0.3-0.2,0.5-0.2c0.7-0.1,1.5-0.1,2.2,0.2l-1.4,1.3L167.2,14.2z M162,13.4l0.8,0.8
			c-0.5,0.6-0.9,1.3-1.1,2c0,0.1,0.1,0.2,0.1,0.3l-0.1,0.1v6.1c0,0.2,0,0.5,0,0.7v26.7h-49.2L132.6,16l1.7,1.7L130,22
			c-0.6,0.6-0.6,1.6,0,2.2c0.3,0.3,0.7,0.4,1.1,0.4c0.4,0,0.8-0.2,1.1-0.4l4.3-4.3l4.3,4.3c0.2,0.2,0.4,0.3,0.7,0.3l0.6,5
			c0.1,0.8,0.7,1.4,1.5,1.4l0.2,0c0.8-0.1,1.4-0.8,1.4-1.7c0,0,0,0,0,0L143.5,16c0-0.1-0.1-0.1-0.1-0.2l0-0.1
			c-0.3-0.6-0.6-1.2-1.1-1.7l0.5-0.5c0.1-0.1,0.1-0.2,0.1-0.3h18.9C162,13.3,161.9,13.4,162,13.4L162,13.4z M140.4,16.5L140.4,16.5
			l0.4,3.5l-2.3-2.3l1.6-1.6C140.3,16.3,140.4,16.3,140.4,16.5L140.4,16.5z M136.4,15.5l-1.7-1.7c0.8-0.3,1.6-0.4,2.4-0.3
			c0.3,0.1,0.6,0.3,0.9,0.4L136.4,15.5z M130,13.4l0.3,0.3l0,0.1l-21.4,36.3H71.5L93,16l1.7,1.7L90.4,22c-0.6,0.6-0.6,1.6,0,2.2
			c0.3,0.3,0.7,0.4,1.1,0.4c0.4,0,0.8-0.2,1.1-0.4l4.3-4.3l4.3,4.3c0.2,0.1,0.4,0.2,0.7,0.3l0.6,5c0.1,0.8,0.8,1.3,1.5,1.4l0.2,0
			c0.8-0.1,1.4-0.9,1.3-1.7c0,0,0,0,0,0L103.9,16l-0.1-0.1c0-0.1,0.1-0.2,0-0.2c-0.3-0.6-0.6-1.2-1.1-1.7l0.5-0.5
			c0.1-0.1,0.1-0.2,0.1-0.3h26.4C129.9,13.3,129.9,13.4,130,13.4L130,13.4z M100.8,16.4l0.4,3.5L99,17.7l1.6-1.6
			C100.7,16.2,100.8,16.3,100.8,16.4L100.8,16.4z M96.8,15.5l-1.7-1.7c0.7-0.3,1.6-0.4,2.4-0.3c0.3,0.1,0.6,0.3,0.9,0.4L96.8,15.5z
			 M90.4,13.4l0.3,0.3l0,0.1L67.9,50.1H52.8V20.8c1,1.5,2.7,2.4,4.5,2.4c3.1,0,5.6-2.5,5.6-5.6c0-1.8-0.9-3.5-2.4-4.5h29.9
			C90.3,13.3,90.3,13.4,90.4,13.4L90.4,13.4z M54.8,17.7c0-1.4,1.1-2.5,2.5-2.5s2.5,1.1,2.5,2.5c0,1.4-1.1,2.5-2.5,2.5c0,0,0,0,0,0
			C55.9,20.2,54.8,19,54.8,17.7L54.8,17.7z M52.8,14.5v-1.4h1.3C53.6,13.6,53.1,14,52.8,14.5L52.8,14.5z M49.7,50.1H13.2V20.8
			c1,1.5,2.7,2.4,4.5,2.4c3.1,0,5.6-2.5,5.6-5.6c0-1.8-0.9-3.5-2.4-4.5h28.9L49.7,50.1z M17.7,15.2c1.4,0,2.5,1.1,2.5,2.5
			c0,1.4-1.1,2.5-2.5,2.5c-1.4,0-2.5-1.1-2.5-2.5C15.2,16.3,16.3,15.2,17.7,15.2L17.7,15.2z M60.1,462.9c1.6-1,2.6-2.7,2.7-4.6
			c0-3.1-2.5-5.6-5.6-5.6c-1.8,0-3.5,0.9-4.5,2.4v-29.2H63l41.5,37L60.1,462.9z"/>
		<path id="Path_19231" class="st3" d="M390,0H1.5C0.7,0,0,0.7,0,1.5c0,0,0,0,0,0v473.1c0,0.9,0.7,1.5,1.5,1.5c0,0,0,0,0,0H390
			c0.9,0,1.5-0.7,1.5-1.5c0,0,0,0,0,0V1.5C391.6,0.7,390.9,0,390,0C390,0,390,0,390,0z M388.5,473.1H3.1V3.1h385.4V473.1z"/>
		<path id="Path_19232" class="st3" d="M369.1,183.3c0.4,0.7,1.4,1,2.1,0.5c0.2-0.1,0.4-0.3,0.5-0.6l6.3-11c0.3-0.5,0.3-1.1,0-1.5
			c-0.3-0.5-0.8-0.8-1.3-0.8H364c-0.6,0-1.1,0.3-1.3,0.8c-0.3,0.5-0.3,1.1,0,1.5L369.1,183.3z M374.1,173.1l-3.7,6.4l-3.7-6.4H374.1
			z"/>
	</g>
	<text transform="matrix(1 0 0 1 1630.2371 3249.229)" class="st4 st5 st6">設</text>
	<text transform="matrix(1 0 0 1 1653.4871 3249.229)" class="st4 st5 st6 st7">計︰</text>
	<text transform="matrix(1 0 0 1 1690.687 3249.229)" class="st4 st8 st9">500</text>
	<text transform="matrix(1 0 0 1 1754.0884 3249.229)" class="st4 st8 st9 st10">0</text>
	<text transform="matrix(1 0 0 1 1779.0222 3249.229)" class="st4 st8 st9">ps</text>
	<text transform="matrix(1 0 0 1 1819.156 3249.229)" class="st4 st8 st9 st11">i</text>
	<text transform="matrix(1 0 0 1 1829.4984 3249.229)" class="st4 st5 st6">混凝土</text>
	<text transform="matrix(1 0 0 1 1630.2371 3289.229)" class="st4 st8 st6 st12">(</text>
	<text transform="matrix(1 0 0 1 1645.2103 3289.229)" class="st4 st5 st6">實測鑽心</text>
	<text transform="matrix(1 0 0 1 1738.2103 3289.229)" class="st4 st8 st9">5500</text>
	<text transform="matrix(1 0 0 1 1822.7455 3288.2361)" class="st4 st5 st9">～</text>
	<text transform="matrix(1 0 0 1 1851.2455 3289.229)" class="st4 st8 st9">600</text>
	<text transform="matrix(1 0 0 1 1914.6469 3289.229)" class="st4 st8 st9 st10">0</text>
	<text transform="matrix(1 0 0 1 1939.5806 3289.229)" class="st4 st8 st6">)</text>
	<text transform="matrix(1 0 0 1 1630.2371 3407.907)" class="st4 st5 st6">採用中鋼鋼材焊組</text>
	<g id="Group_2444" transform="translate(1389.157 3278.883)">
		<path id="Path_19233" class="st4" d="M37.9,4.4C37.4,1.9,35.3,0,32.7,0c-3,0-5.4,2.4-5.4,5.4c0,3,2.4,5.4,5.4,5.4
			c2.6,0,4.7-1.9,5.2-4.4H230V4.4L37.9,4.4z"/>
		<path id="Path_19234" class="st4" d="M5.4,117.6c-3,0-5.4,2.4-5.4,5.4s2.4,5.4,5.4,5.4c2.6,0,4.7-1.9,5.2-4.4h217.8v-2.1H10.6
			C10.1,119.4,7.9,117.6,5.4,117.6z"/>
	</g>
	<g>
		<g>
			<rect x="1084.7" y="2967.1" class="st13" width="949.4" height="694.2"/>
			<path class="st14" d="M2040.2,3667.4h-961.7v-706.5h961.7V3667.4z M1090.8,3655.1h937.1v-681.9h-937.1V3655.1z"/>
		</g>
		<g>
			<g>
				<path class="st1" d="M1424.6,3474.8h-66.8c-0.8,0-1.5-0.7-1.5-1.5c0-0.8,0.7-1.5,1.5-1.5h66.8c0.8,0,1.5,0.7,1.5,1.5
					C1426.1,3474.1,1425.4,3474.8,1424.6,3474.8z"/>
				<g>
					<path class="st1" d="M1424.6,3480.2c-0.8,0-1.5-0.7-1.5-1.5v-5.4c0-0.8,0.7-1.5,1.5-1.5c0.8,0,1.5,0.7,1.5,1.5v5.4
						C1426.1,3479.5,1425.4,3480.2,1424.6,3480.2z"/>
					<path class="st1" d="M1424.6,3151.3c-0.8,0-1.5-0.7-1.5-1.5v-3.9h-63.8v3.9c0,0.8-0.7,1.5-1.5,1.5c-0.8,0-1.5-0.7-1.5-1.5v-5.4
						c0-0.8,0.7-1.5,1.5-1.5h66.8c0.8,0,1.5,0.7,1.5,1.5v5.4C1426.1,3150.7,1425.4,3151.3,1424.6,3151.3z"/>
					<path class="st1" d="M1424.6,3480.2h-66.8c-0.8,0-1.5-0.7-1.5-1.5v-5.4c0-0.8,0.7-1.5,1.5-1.5c0.8,0,1.5,0.7,1.5,1.5v3.9h65.3
						c0.8,0,1.5,0.7,1.5,1.5S1425.4,3480.2,1424.6,3480.2z"/>
					<path class="st1" d="M1424.6,3151.3h-66.8c-0.8,0-1.5-0.7-1.5-1.5c0-0.8,0.7-1.5,1.5-1.5h66.8c0.8,0,1.5,0.7,1.5,1.5
						C1426.1,3150.7,1425.4,3151.3,1424.6,3151.3z"/>
					<path class="st1" d="M1389.5,3474.8c-0.8,0-1.5-0.7-1.5-1.5v-323.5c0-0.8,0.7-1.5,1.5-1.5c0.8,0,1.5,0.7,1.5,1.5v323.5
						C1391,3474.1,1390.3,3474.8,1389.5,3474.8z"/>
					<path class="st1" d="M1392.8,3474.8c-0.8,0-1.5-0.7-1.5-1.5v-323.5c0-0.8,0.7-1.5,1.5-1.5c0.8,0,1.5,0.7,1.5,1.5v323.5
						C1394.3,3474.1,1393.6,3474.8,1392.8,3474.8z"/>
					<path class="st1" d="M1474.7,3212.9h-5.3c-0.8,0-1.5-0.7-1.5-1.5c0-0.8,0.7-1.5,1.5-1.5h5.3c0.8,0,1.5,0.7,1.5,1.5
						C1476.2,3212.2,1475.5,3212.9,1474.7,3212.9z"/>
					<path class="st1" d="M1237.8,3279.6h-5.4c-0.8,0-1.5-0.7-1.5-1.5v-66.8c0-0.8,0.7-1.5,1.5-1.5h5.4c0.8,0,1.5,0.7,1.5,1.5
						c0,0.8-0.7,1.5-1.5,1.5h-3.9v63.7h3.9c0.8,0,1.5,0.7,1.5,1.5C1239.3,3279,1238.6,3279.6,1237.8,3279.6z"/>
					<path class="st1" d="M1474.7,3279.6h-5.3c-0.8,0-1.5-0.7-1.5-1.5c0-0.8,0.7-1.5,1.5-1.5h3.8v-65.3c0-0.8,0.7-1.5,1.5-1.5
						c0.8,0,1.5,0.7,1.5,1.5v66.8C1476.2,3279,1475.5,3279.6,1474.7,3279.6z"/>
					<path class="st1" d="M1237.8,3279.6c-0.8,0-1.5-0.7-1.5-1.5v-66.8c0-0.8,0.7-1.5,1.5-1.5c0.8,0,1.5,0.7,1.5,1.5v66.8
						C1239.3,3279,1238.6,3279.6,1237.8,3279.6z"/>
					<path class="st1" d="M1469.4,3279.6c-0.8,0-1.5-0.7-1.5-1.5v-66.8c0-0.8,0.7-1.5,1.5-1.5c0.8,0,1.5,0.7,1.5,1.5v66.8
						C1470.9,3279,1470.2,3279.6,1469.4,3279.6z"/>
					<path class="st1" d="M1389.5,3247.9h-151.7c-0.8,0-1.5-0.7-1.5-1.5c0-0.8,0.7-1.5,1.5-1.5h151.7c0.8,0,1.5,0.7,1.5,1.5
						C1391,3247.2,1390.3,3247.9,1389.5,3247.9z"/>
					<path class="st1" d="M1469.4,3247.9h-76.6c-0.8,0-1.5-0.7-1.5-1.5c0-0.8,0.7-1.5,1.5-1.5h76.6c0.8,0,1.5,0.7,1.5,1.5
						C1470.9,3247.2,1470.2,3247.9,1469.4,3247.9z"/>
					<path class="st1" d="M1389.5,3244.5h-151.7c-0.8,0-1.5-0.7-1.5-1.5c0-0.8,0.7-1.5,1.5-1.5h151.7c0.8,0,1.5,0.7,1.5,1.5
						C1391,3243.9,1390.3,3244.5,1389.5,3244.5z"/>
					<path class="st1" d="M1469.4,3244.5h-76.6c-0.8,0-1.5-0.7-1.5-1.5c0-0.8,0.7-1.5,1.5-1.5h76.6c0.8,0,1.5,0.7,1.5,1.5
						C1470.9,3243.9,1470.2,3244.5,1469.4,3244.5z"/>
				</g>
			</g>
			<g>
				<path class="st2" d="M1357.8,3480.2h-125.3c-0.8,0-1.5-0.7-1.5-1.5v-200.5c0-0.8,0.7-1.5,1.5-1.5c0.8,0,1.5,0.7,1.5,1.5v199
					h123.8c0.8,0,1.5,0.7,1.5,1.5S1358.6,3480.2,1357.8,3480.2z"/>
				<path class="st2" d="M1357.8,3474.8h-120c-0.8,0-1.5-0.7-1.5-1.5v-195.2c0-0.8,0.7-1.5,1.5-1.5c0.8,0,1.5,0.7,1.5,1.5v193.7
					h118.4c0.8,0,1.5,0.7,1.5,1.5C1359.3,3474.1,1358.6,3474.8,1357.8,3474.8z"/>
			</g>
			<path class="st3" d="M1525.5,3537h-352.2c-0.8,0-1.5-0.7-1.5-1.5c0-0.8,0.7-1.5,1.5-1.5h352.2c0.8,0,1.5,0.7,1.5,1.5
				C1527,3536.3,1526.3,3537,1525.5,3537z"/>
			<path class="st3" d="M1525.4,3536.9c-0.8,0-1.5-0.7-1.5-1.5s0.7-1.5,1.5-1.5c2.5,0,4.5-2,4.5-4.5c0-0.8,0.7-1.5,1.5-1.5
				s1.5,0.7,1.5,1.5C1533,3533.5,1529.6,3536.9,1525.4,3536.9z"/>
			<path class="st3" d="M1173.2,3536.9c-4.2,0-7.6-3.4-7.6-7.6c0-0.8,0.7-1.5,1.5-1.5c0.8,0,1.5,0.7,1.5,1.5c0,2.5,2,4.5,4.5,4.5
				c0.8,0,1.5,0.7,1.5,1.5S1174.1,3536.9,1173.2,3536.9z"/>
			<path class="st3" d="M1531.5,3530.9c-0.8,0-1.5-0.7-1.5-1.5v-435.8c0-0.8,0.7-1.5,1.5-1.5s1.5,0.7,1.5,1.5v435.8
				C1533,3530.2,1532.3,3530.9,1531.5,3530.9z"/>
			<path class="st3" d="M1531.5,3095.1c-0.8,0-1.5-0.7-1.5-1.5c0-2.5-2-4.5-4.5-4.5c-0.8,0-1.5-0.7-1.5-1.5c0-0.8,0.7-1.5,1.5-1.5
				c4.2,0,7.6,3.4,7.6,7.5C1533,3094.4,1532.3,3095.1,1531.5,3095.1z"/>
			<path class="st3" d="M1525.5,3089.2h-352.2c-0.8,0-1.5-0.7-1.5-1.5c0-0.8,0.7-1.5,1.5-1.5h352.2c0.8,0,1.5,0.7,1.5,1.5
				C1527,3088.5,1526.3,3089.2,1525.5,3089.2z"/>
			<path class="st3" d="M1167.2,3095.1c-0.8,0-1.5-0.7-1.5-1.5c0-4.2,3.4-7.5,7.6-7.5c0.8,0,1.5,0.7,1.5,1.5c0,0.8-0.7,1.5-1.5,1.5
				c-2.5,0-4.5,2-4.5,4.5C1168.7,3094.4,1168,3095.1,1167.2,3095.1z"/>
			<path class="st3" d="M1167.3,3530.9c-0.8,0-1.5-0.7-1.5-1.5v-435.8c0-0.8,0.7-1.5,1.5-1.5s1.5,0.7,1.5,1.5v435.8
				C1168.8,3530.2,1168.1,3530.9,1167.3,3530.9z"/>
			<path class="st3" d="M1541.5,3547h-384.2c-0.8,0-1.5-0.7-1.5-1.5v-467.8c0-0.8,0.7-1.5,1.5-1.5h384.2c0.8,0,1.5,0.7,1.5,1.5
				v467.8C1543,3546.3,1542.3,3547,1541.5,3547z M1158.8,3544H1540v-464.8h-381.1V3544z"/>
			<path class="st3" d="M1173.2,3534.9c-3,0-5.5-2.5-5.5-5.5c0-3,2.5-5.5,5.5-5.5c3,0,5.5,2.5,5.5,5.5
				C1178.7,3532.4,1176.3,3534.9,1173.2,3534.9z M1173.2,3526.9c-1.4,0-2.5,1.1-2.5,2.5c0,1.4,1.1,2.5,2.5,2.5
				c1.4,0,2.5-1.1,2.5-2.5C1175.7,3528,1174.6,3526.9,1173.2,3526.9z"/>
			<path class="st3" d="M1173.2,3099.1c-3,0-5.5-2.5-5.5-5.5c0-3,2.5-5.5,5.5-5.5c3,0,5.5,2.5,5.5,5.5
				C1178.7,3096.6,1176.3,3099.1,1173.2,3099.1z M1173.2,3091.2c-1.4,0-2.5,1.1-2.5,2.4c0,1.4,1.1,2.5,2.5,2.5
				c1.4,0,2.5-1.1,2.5-2.5C1175.7,3092.2,1174.6,3091.2,1173.2,3091.2z"/>
			<path class="st3" d="M1525.4,3534.9c-3,0-5.5-2.5-5.5-5.5c0-3,2.5-5.5,5.5-5.5c3,0,5.5,2.5,5.5,5.5
				C1530.9,3532.4,1528.5,3534.9,1525.4,3534.9z M1525.4,3526.9c-1.4,0-2.5,1.1-2.5,2.5c0,1.4,1.1,2.5,2.5,2.5
				c1.4,0,2.5-1.1,2.5-2.5C1527.9,3528,1526.8,3526.9,1525.4,3526.9z"/>
			<path class="st3" d="M1525.4,3099.1c-3,0-5.5-2.5-5.5-5.5c0-3,2.5-5.5,5.5-5.5c3,0,5.5,2.5,5.5,5.5
				C1530.9,3096.6,1528.5,3099.1,1525.4,3099.1z M1525.4,3091.2c-1.4,0-2.5,1.1-2.5,2.4c0,1.4,1.1,2.5,2.5,2.5
				c1.4,0,2.5-1.1,2.5-2.5C1527.9,3092.2,1526.8,3091.2,1525.4,3091.2z"/>
			<path class="st3" d="M1173.2,3099.1c-3,0-5.5-2.5-5.5-5.5c0-3,2.5-5.5,5.5-5.5c3,0,5.5,2.5,5.5,5.5
				C1178.7,3096.6,1176.3,3099.1,1173.2,3099.1z M1173.2,3091.2c-1.4,0-2.5,1.1-2.5,2.4c0,1.4,1.1,2.5,2.5,2.5
				c1.4,0,2.5-1.1,2.5-2.5C1175.7,3092.2,1174.6,3091.2,1173.2,3091.2z"/>
			<path class="st3" d="M1525.4,3534.9c-3,0-5.5-2.5-5.5-5.5c0-3,2.5-5.5,5.5-5.5c3,0,5.5,2.5,5.5,5.5
				C1530.9,3532.4,1528.5,3534.9,1525.4,3534.9z M1525.4,3526.9c-1.4,0-2.5,1.1-2.5,2.5c0,1.4,1.1,2.5,2.5,2.5
				c1.4,0,2.5-1.1,2.5-2.5C1527.9,3528,1526.8,3526.9,1525.4,3526.9z"/>
			<path class="st3" d="M1525.4,3099.1c-3,0-5.5-2.5-5.5-5.5c0-3,2.5-5.5,5.5-5.5c3,0,5.5,2.5,5.5,5.5
				C1530.9,3096.6,1528.5,3099.1,1525.4,3099.1z M1525.4,3091.2c-1.4,0-2.5,1.1-2.5,2.4c0,1.4,1.1,2.5,2.5,2.5
				c1.4,0,2.5-1.1,2.5-2.5C1527.9,3092.2,1526.8,3091.2,1525.4,3091.2z"/>
			<path class="st3" d="M1206.4,3537c-0.8,0-1.5-0.7-1.5-1.5v-447.8c0-0.8,0.7-1.5,1.5-1.5c0.8,0,1.5,0.7,1.5,1.5v447.8
				C1207.9,3536.3,1207.3,3537,1206.4,3537z"/>
			<path class="st3" d="M1492.3,3537c-0.8,0-1.5-0.7-1.5-1.5v-447.8c0-0.8,0.7-1.5,1.5-1.5c0.8,0,1.5,0.7,1.5,1.5v447.8
				C1493.9,3536.3,1493.2,3537,1492.3,3537z"/>
			<path class="st3" d="M1531.5,3497.3h-364.2c-0.8,0-1.5-0.7-1.5-1.5c0-0.8,0.7-1.5,1.5-1.5h364.2c0.8,0,1.5,0.7,1.5,1.5
				C1533,3496.7,1532.3,3497.3,1531.5,3497.3z"/>
			<path class="st3" d="M1531.5,3128.8h-364.2c-0.8,0-1.5-0.7-1.5-1.5c0-0.8,0.7-1.5,1.5-1.5h364.2c0.8,0,1.5,0.7,1.5,1.5
				C1533,3128.1,1532.3,3128.8,1531.5,3128.8z"/>
			<g>
				<path class="st3" d="M1264.6,3534.8C1264.6,3534.8,1264.6,3534.8,1264.6,3534.8c-0.5,0-1.1-0.3-1.3-0.8l-6.3-10.9
					c-0.3-0.5-0.3-1,0-1.5c0.3-0.5,0.8-0.8,1.3-0.8h12.7c0.5,0,1.1,0.3,1.3,0.8c0.3,0.5,0.3,1.1,0,1.5l-6.4,10.9
					C1265.6,3534.5,1265.1,3534.8,1264.6,3534.8z M1260.9,3523.9l3.7,6.4l3.7-6.4H1260.9z"/>
				<path class="st3" d="M1522.1,3258.2c-0.5,0-1-0.3-1.3-0.8l-6.4-10.9c-0.3-0.5-0.3-1.1,0-1.5c0.3-0.5,0.8-0.8,1.3-0.8h12.7
					c0.5,0,1,0.3,1.3,0.8c0.3,0.5,0.3,1,0,1.5l-6.3,10.9C1523.1,3257.9,1522.6,3258.2,1522.1,3258.2
					C1522.1,3258.2,1522.1,3258.2,1522.1,3258.2z M1518.3,3247.3l3.7,6.4l3.7-6.4H1518.3z"/>
				<path class="st3" d="M1387.6,3103.9C1387.6,3103.9,1387.6,3103.9,1387.6,3103.9c-0.5,0-1.1-0.3-1.3-0.8l-6.3-10.9
					c-0.3-0.5-0.3-1,0-1.5c0.3-0.5,0.8-0.8,1.3-0.8h12.7c0.5,0,1.1,0.3,1.3,0.8c0.3,0.5,0.3,1.1,0,1.5l-6.4,10.9
					C1388.7,3103.6,1388.2,3103.9,1387.6,3103.9z M1384,3093l3.7,6.4l3.7-6.4H1384z"/>
				<path class="st3" d="M1175.5,3456.2c-0.5,0-1-0.3-1.3-0.8l-6.3-10.9c-0.3-0.5-0.3-1,0-1.5c0.3-0.5,0.8-0.8,1.3-0.8h12.6
					c0.5,0,1,0.3,1.3,0.8c0.3,0.5,0.3,1,0,1.5l-6.3,10.9C1176.5,3455.9,1176,3456.2,1175.5,3456.2z M1171.8,3445.2l3.7,6.3l3.7-6.3
					H1171.8z"/>
			</g>
			<g>
				<g>
					<path class="st3" d="M1530.8,3417.4c-0.4,0-0.8-0.2-1.1-0.4l-10.6-10.6c-0.6-0.6-0.6-1.6,0-2.2c0.6-0.6,1.6-0.6,2.1,0
						l10.6,10.6c0.6,0.6,0.6,1.6,0,2.2C1531.6,3417.3,1531.2,3417.4,1530.8,3417.4z"/>
					<g>
						<path class="st3" d="M1520.2,3417.4c-0.4,0-0.8-0.2-1.1-0.4c-0.6-0.6-0.6-1.6,0-2.2l10.6-10.6c0.6-0.6,1.6-0.6,2.1,0
							c0.6,0.6,0.6,1.6,0,2.2l-10.6,10.6C1521,3417.3,1520.6,3417.4,1520.2,3417.4z"/>
					</g>
				</g>
				<g>
					<g>
						<path class="st3" d="M1530.8,3298.6c-0.4,0-0.8-0.2-1.1-0.5l-10.6-10.7c-0.6-0.6-0.6-1.6,0-2.1c0.6-0.6,1.6-0.6,2.2,0
							l10.6,10.7c0.6,0.6,0.6,1.6,0,2.1C1531.6,3298.5,1531.2,3298.6,1530.8,3298.6z"/>
					</g>
					<path class="st3" d="M1520.2,3298.6c-0.4,0-0.8-0.1-1.1-0.4c-0.6-0.6-0.6-1.6,0-2.1l10.6-10.7c0.6-0.6,1.6-0.6,2.2,0
						c0.6,0.6,0.6,1.6,0,2.1l-10.6,10.7C1521,3298.4,1520.6,3298.6,1520.2,3298.6z"/>
				</g>
				<g>
					<path class="st3" d="M1530.8,3338.2c-0.4,0-0.8-0.2-1.1-0.4l-10.6-10.6c-0.6-0.6-0.6-1.6,0-2.2c0.6-0.6,1.6-0.6,2.1,0
						l10.6,10.6c0.6,0.6,0.6,1.6,0,2.2C1531.6,3338,1531.2,3338.2,1530.8,3338.2z"/>
					<path class="st3" d="M1520.2,3338.2c-0.4,0-0.8-0.2-1.1-0.4c-0.6-0.6-0.6-1.6,0-2.2l10.6-10.6c0.6-0.6,1.6-0.6,2.1,0
						c0.6,0.6,0.6,1.6,0,2.2l-10.6,10.6C1521,3338,1520.6,3338.2,1520.2,3338.2z"/>
				</g>
				<path class="st3" d="M1212.4,3534.9c-3,0-5.5-2.5-5.5-5.5c0-3,2.5-5.5,5.5-5.5c3,0,5.5,2.5,5.5,5.5
					C1217.9,3532.4,1215.4,3534.9,1212.4,3534.9z M1212.4,3526.9c-1.4,0-2.5,1.1-2.5,2.5c0,1.4,1.1,2.5,2.5,2.5
					c1.4,0,2.5-1.1,2.5-2.5C1214.8,3528,1213.7,3526.9,1212.4,3526.9z"/>
				<path class="st3" d="M1212.4,3099.1c-3,0-5.5-2.5-5.5-5.5c0-3,2.5-5.5,5.5-5.5c3,0,5.5,2.5,5.5,5.5
					C1217.9,3096.6,1215.4,3099.1,1212.4,3099.1z M1212.4,3091.2c-1.4,0-2.5,1.1-2.5,2.4c0,1.4,1.1,2.5,2.5,2.5
					c1.4,0,2.5-1.1,2.5-2.5C1214.8,3092.2,1213.7,3091.2,1212.4,3091.2z"/>
				<path class="st3" d="M1486.3,3534.9c-3,0-5.5-2.5-5.5-5.5c0-3,2.5-5.5,5.5-5.5c3,0,5.5,2.5,5.5,5.5
					C1491.8,3532.4,1489.4,3534.9,1486.3,3534.9z M1486.3,3526.9c-1.4,0-2.5,1.1-2.5,2.5c0,1.4,1.1,2.5,2.5,2.5
					c1.4,0,2.5-1.1,2.5-2.5C1488.8,3528,1487.7,3526.9,1486.3,3526.9z"/>
				<path class="st3" d="M1486.3,3099.1c-3,0-5.5-2.5-5.5-5.5c0-3,2.5-5.5,5.5-5.5c3,0,5.5,2.5,5.5,5.5
					C1491.8,3096.6,1489.4,3099.1,1486.3,3099.1z M1486.3,3091.2c-1.4,0-2.5,1.1-2.5,2.4c0,1.4,1.1,2.5,2.5,2.5
					c1.4,0,2.5-1.1,2.5-2.5C1488.8,3092.2,1487.7,3091.2,1486.3,3091.2z"/>
				<g>
					<path class="st3" d="M1256.8,3100.5c-0.4,0-0.8-0.2-1.1-0.4l-10.6-10.6c-0.6-0.6-0.6-1.6,0-2.2c0.6-0.6,1.6-0.6,2.1,0
						l10.6,10.6c0.6,0.6,0.6,1.6,0,2.2C1257.6,3100.3,1257.2,3100.5,1256.8,3100.5z"/>
					<path class="st3" d="M1246.2,3100.5c-0.4,0-0.8-0.2-1.1-0.4c-0.6-0.6-0.6-1.6,0-2.2l10.6-10.6c0.6-0.6,1.6-0.6,2.1,0
						c0.6,0.6,0.6,1.6,0,2.2l-10.6,10.6C1247,3100.3,1246.6,3100.5,1246.2,3100.5z"/>
				</g>
				<path class="st3" d="M1173.2,3534.9c-3,0-5.5-2.5-5.5-5.5c0-3,2.5-5.5,5.5-5.5c3,0,5.5,2.5,5.5,5.5
					C1178.7,3532.4,1176.3,3534.9,1173.2,3534.9z M1173.2,3526.9c-1.4,0-2.5,1.1-2.5,2.5c0,1.4,1.1,2.5,2.5,2.5
					c1.4,0,2.5-1.1,2.5-2.5C1175.7,3528,1174.6,3526.9,1173.2,3526.9z"/>
				<path class="st3" d="M1173.2,3495.3c-3,0-5.5-2.5-5.5-5.5c0-3,2.5-5.5,5.5-5.5c3,0,5.5,2.5,5.5,5.5
					C1178.7,3492.8,1176.3,3495.3,1173.2,3495.3z M1173.2,3487.3c-1.4,0-2.5,1.1-2.5,2.4c0,1.4,1.1,2.5,2.5,2.5
					c1.4,0,2.5-1.1,2.5-2.5C1175.7,3488.4,1174.6,3487.3,1173.2,3487.3z"/>
				<path class="st3" d="M1525.4,3534.9c-3,0-5.5-2.5-5.5-5.5c0-3,2.5-5.5,5.5-5.5c3,0,5.5,2.5,5.5,5.5
					C1530.9,3532.4,1528.5,3534.9,1525.4,3534.9z M1525.4,3526.9c-1.4,0-2.5,1.1-2.5,2.5c0,1.4,1.1,2.5,2.5,2.5
					c1.4,0,2.5-1.1,2.5-2.5C1527.9,3528,1526.8,3526.9,1525.4,3526.9z"/>
				<path class="st3" d="M1525.4,3495.3c-3,0-5.5-2.5-5.5-5.5c0-3,2.5-5.5,5.5-5.5c3,0,5.5,2.5,5.5,5.5
					C1530.9,3492.8,1528.5,3495.3,1525.4,3495.3z M1525.4,3487.3c-1.4,0-2.5,1.1-2.5,2.4c0,1.4,1.1,2.5,2.5,2.5
					c1.4,0,2.5-1.1,2.5-2.5C1527.9,3488.4,1526.8,3487.3,1525.4,3487.3z"/>
				<path class="st3" d="M1173.2,3099.1c-3,0-5.5-2.5-5.5-5.5c0-3,2.5-5.5,5.5-5.5c3,0,5.5,2.5,5.5,5.5
					C1178.7,3096.6,1176.3,3099.1,1173.2,3099.1z M1173.2,3091.2c-1.4,0-2.5,1.1-2.5,2.4c0,1.4,1.1,2.5,2.5,2.5
					c1.4,0,2.5-1.1,2.5-2.5C1175.7,3092.2,1174.6,3091.2,1173.2,3091.2z"/>
				<path class="st3" d="M1173.2,3138.8c-3,0-5.5-2.5-5.5-5.5c0-3,2.5-5.5,5.5-5.5c3,0,5.5,2.5,5.5,5.5
					C1178.7,3136.3,1176.3,3138.8,1173.2,3138.8z M1173.2,3130.8c-1.4,0-2.5,1.1-2.5,2.5c0,1.4,1.1,2.4,2.5,2.4
					c1.4,0,2.5-1.1,2.5-2.4C1175.7,3131.9,1174.6,3130.8,1173.2,3130.8z"/>
				<path class="st3" d="M1525.4,3099.1c-3,0-5.5-2.5-5.5-5.5c0-3,2.5-5.5,5.5-5.5c3,0,5.5,2.5,5.5,5.5
					C1530.9,3096.6,1528.5,3099.1,1525.4,3099.1z M1525.4,3091.2c-1.4,0-2.5,1.1-2.5,2.4c0,1.4,1.1,2.5,2.5,2.5
					c1.4,0,2.5-1.1,2.5-2.5C1527.9,3092.2,1526.8,3091.2,1525.4,3091.2z"/>
				<path class="st3" d="M1525.4,3138.8c-3,0-5.5-2.5-5.5-5.5c0-3,2.5-5.5,5.5-5.5c3,0,5.5,2.5,5.5,5.5
					C1530.9,3136.3,1528.5,3138.8,1525.4,3138.8z M1525.4,3130.8c-1.4,0-2.5,1.1-2.5,2.5c0,1.4,1.1,2.4,2.5,2.4
					c1.4,0,2.5-1.1,2.5-2.4C1527.9,3131.9,1526.8,3130.8,1525.4,3130.8z"/>
				<g>
					<path class="st3" d="M1178.6,3179.7c-0.4,0-0.8-0.2-1.1-0.4l-10.6-10.6c-0.6-0.6-0.6-1.6,0-2.2c0.6-0.6,1.6-0.6,2.1,0
						l10.6,10.6c0.6,0.6,0.6,1.6,0,2.2C1179.4,3179.6,1179,3179.7,1178.6,3179.7z"/>
					<path class="st3" d="M1168,3179.7c-0.4,0-0.8-0.2-1.1-0.4c-0.6-0.6-0.6-1.6,0-2.2l10.6-10.6c0.6-0.6,1.6-0.6,2.1,0
						c0.6,0.6,0.6,1.6,0,2.2l-10.6,10.6C1168.8,3179.6,1168.4,3179.7,1168,3179.7z"/>
				</g>
				<g>
					<path class="st3" d="M1296,3100.5c-0.4,0-0.8-0.2-1.1-0.4l-10.6-10.6c-0.6-0.6-0.6-1.6,0-2.2c0.6-0.6,1.6-0.6,2.1,0l10.6,10.6
						c0.6,0.6,0.6,1.6,0,2.2C1296.7,3100.3,1296.4,3100.5,1296,3100.5z"/>
					<path class="st3" d="M1285.3,3100.5c-0.4,0-0.8-0.2-1.1-0.4c-0.6-0.6-0.6-1.6,0-2.2l10.6-10.6c0.6-0.6,1.6-0.6,2.1,0
						c0.6,0.6,0.6,1.6,0,2.2l-10.6,10.6C1286.1,3100.3,1285.7,3100.5,1285.3,3100.5z"/>
				</g>
				<g>
					<path class="st3" d="M1327.7,3100.5c-0.4,0-0.8-0.2-1.1-0.4l-10.6-10.6c-0.6-0.6-0.6-1.6,0-2.2c0.6-0.6,1.6-0.6,2.1,0
						l10.6,10.6c0.6,0.6,0.6,1.6,0,2.2C1328.4,3100.3,1328,3100.5,1327.7,3100.5z"/>
					<path class="st3" d="M1317,3100.5c-0.4,0-0.8-0.2-1.1-0.4c-0.6-0.6-0.6-1.6,0-2.2l10.6-10.6c0.6-0.6,1.6-0.6,2.1,0
						c0.6,0.6,0.6,1.6,0,2.2l-10.6,10.6C1317.8,3100.3,1317.4,3100.5,1317,3100.5z"/>
				</g>
				<g>
					<path class="st3" d="M1356.5,3100.5c-0.4,0-0.8-0.2-1.1-0.4l-10.6-10.6c-0.6-0.6-0.6-1.6,0-2.2c0.6-0.6,1.6-0.6,2.1,0
						l10.6,10.6c0.6,0.6,0.6,1.6,0,2.2C1357.3,3100.3,1356.9,3100.5,1356.5,3100.5z"/>
					<path class="st3" d="M1345.9,3100.5c-0.4,0-0.8-0.2-1.1-0.4c-0.6-0.6-0.6-1.6,0-2.2l10.6-10.6c0.6-0.6,1.6-0.6,2.1,0
						c0.6,0.6,0.6,1.6,0,2.2L1347,3100C1346.7,3100.3,1346.3,3100.5,1345.9,3100.5z"/>
				</g>
				<g>
					<path class="st3" d="M1452.5,3100.5c-0.4,0-0.8-0.2-1.1-0.4l-10.6-10.6c-0.6-0.6-0.6-1.6,0-2.2c0.6-0.6,1.6-0.6,2.1,0
						l10.6,10.6c0.6,0.6,0.6,1.6,0,2.2C1453.3,3100.3,1452.9,3100.5,1452.5,3100.5z"/>
					<path class="st3" d="M1441.9,3100.5c-0.4,0-0.8-0.2-1.1-0.4c-0.6-0.6-0.6-1.6,0-2.2l10.6-10.6c0.6-0.6,1.6-0.6,2.1,0
						c0.6,0.6,0.6,1.6,0,2.2L1443,3100C1442.7,3100.3,1442.3,3100.5,1441.9,3100.5z"/>
				</g>
				<g>
					<path class="st3" d="M1310.4,3536.3c-0.4,0-0.8-0.2-1.1-0.5l-10.6-10.7c-0.6-0.6-0.6-1.6,0-2.1c0.6-0.6,1.6-0.6,2.2,0
						l10.6,10.7c0.6,0.6,0.6,1.6,0,2.1C1311.2,3536.2,1310.8,3536.3,1310.4,3536.3z"/>
					<path class="st3" d="M1299.8,3536.3c-0.4,0-0.8-0.1-1.1-0.4c-0.6-0.6-0.6-1.6,0-2.1l10.6-10.7c0.6-0.6,1.6-0.6,2.2,0
						c0.6,0.6,0.6,1.6,0,2.1l-10.6,10.7C1300.6,3536.2,1300.2,3536.3,1299.8,3536.3z"/>
				</g>
				<g>
					<path class="st3" d="M1341,3536.3c-0.4,0-0.8-0.2-1.1-0.5l-10.6-10.7c-0.6-0.6-0.6-1.6,0-2.1c0.6-0.6,1.6-0.6,2.2,0l10.6,10.7
						c0.6,0.6,0.6,1.6,0,2.1C1341.8,3536.2,1341.4,3536.3,1341,3536.3z"/>
					<path class="st3" d="M1330.4,3536.3c-0.4,0-0.8-0.1-1.1-0.4c-0.6-0.6-0.6-1.6,0-2.1l10.6-10.7c0.6-0.6,1.6-0.6,2.2,0
						c0.6,0.6,0.6,1.6,0,2.1l-10.6,10.7C1331.2,3536.2,1330.8,3536.3,1330.4,3536.3z"/>
				</g>
				<g>
					<path class="st3" d="M1376.6,3536.3c-0.4,0-0.8-0.2-1.1-0.5l-10.6-10.7c-0.6-0.6-0.6-1.6,0-2.1c0.6-0.6,1.6-0.6,2.2,0
						l10.6,10.7c0.6,0.6,0.6,1.6,0,2.1C1377.3,3536.2,1377,3536.3,1376.6,3536.3z"/>
					<path class="st3" d="M1365.9,3536.3c-0.4,0-0.8-0.1-1.1-0.4c-0.6-0.6-0.6-1.6,0-2.1l10.6-10.7c0.6-0.6,1.6-0.6,2.2,0
						c0.6,0.6,0.6,1.6,0,2.1l-10.6,10.7C1366.7,3536.2,1366.3,3536.3,1365.9,3536.3z"/>
				</g>
				<g>
					<path class="st3" d="M1413.4,3536.3c-0.4,0-0.8-0.2-1.1-0.5l-10.6-10.7c-0.6-0.6-0.6-1.6,0-2.1c0.6-0.6,1.6-0.6,2.2,0
						l10.6,10.7c0.6,0.6,0.6,1.6,0,2.1C1414.2,3536.2,1413.8,3536.3,1413.4,3536.3z"/>
					<path class="st3" d="M1402.8,3536.3c-0.4,0-0.8-0.1-1.1-0.4c-0.6-0.6-0.6-1.6,0-2.1l10.6-10.7c0.6-0.6,1.6-0.6,2.2,0
						c0.6,0.6,0.6,1.6,0,2.1l-10.6,10.7C1403.6,3536.2,1403.2,3536.3,1402.8,3536.3z"/>
				</g>
				<g>
					<path class="st3" d="M1452.5,3536.3c-0.4,0-0.8-0.2-1.1-0.5l-10.6-10.7c-0.6-0.6-0.6-1.6,0-2.1c0.6-0.6,1.6-0.6,2.2,0
						l10.6,10.7c0.6,0.6,0.6,1.6,0,2.1C1453.3,3536.2,1452.9,3536.3,1452.5,3536.3z"/>
					<path class="st3" d="M1441.9,3536.3c-0.4,0-0.8-0.1-1.1-0.4c-0.6-0.6-0.6-1.6,0-2.1l10.6-10.7c0.6-0.6,1.6-0.6,2.2,0
						c0.6,0.6,0.6,1.6,0,2.1l-10.6,10.7C1442.7,3536.2,1442.3,3536.3,1441.9,3536.3z"/>
				</g>
				<g>
					<path class="st3" d="M1178.6,3219.4c-0.4,0-0.8-0.2-1.1-0.4l-10.6-10.6c-0.6-0.6-0.6-1.6,0-2.2c0.6-0.6,1.6-0.6,2.1,0
						l10.6,10.6c0.6,0.6,0.6,1.6,0,2.2C1179.4,3219.2,1179,3219.4,1178.6,3219.4z"/>
					<path class="st3" d="M1168,3219.4c-0.4,0-0.8-0.2-1.1-0.4c-0.6-0.6-0.6-1.6,0-2.2l10.6-10.6c0.6-0.6,1.6-0.6,2.1,0
						c0.6,0.6,0.6,1.6,0,2.2l-10.6,10.6C1168.8,3219.2,1168.4,3219.4,1168,3219.4z"/>
				</g>
				<g>
					<path class="st3" d="M1530.8,3179.7c-0.4,0-0.8-0.2-1.1-0.4l-10.6-10.6c-0.6-0.6-0.6-1.6,0-2.2c0.6-0.6,1.6-0.6,2.1,0
						l10.6,10.6c0.6,0.6,0.6,1.6,0,2.2C1531.6,3179.6,1531.2,3179.7,1530.8,3179.7z"/>
					<path class="st3" d="M1520.2,3179.7c-0.4,0-0.8-0.2-1.1-0.4c-0.6-0.6-0.6-1.6,0-2.2l10.6-10.6c0.6-0.6,1.6-0.6,2.1,0
						c0.6,0.6,0.6,1.6,0,2.2l-10.6,10.6C1521,3179.6,1520.6,3179.7,1520.2,3179.7z"/>
				</g>
				<g>
					<path class="st3" d="M1530.8,3211.9c-0.4,0-0.8-0.2-1.1-0.5l-10.6-10.7c-0.6-0.6-0.6-1.6,0-2.1c0.6-0.6,1.6-0.6,2.2,0
						l10.6,10.7c0.6,0.6,0.6,1.6,0,2.1C1531.6,3211.8,1531.2,3211.9,1530.8,3211.9z"/>
					<path class="st3" d="M1520.2,3211.9c-0.4,0-0.8-0.1-1.1-0.4c-0.6-0.6-0.6-1.6,0-2.1l10.6-10.7c0.6-0.6,1.6-0.6,2.2,0
						c0.6,0.6,0.6,1.6,0,2.1l-10.6,10.7C1521,3211.8,1520.6,3211.9,1520.2,3211.9z"/>
				</g>
				<g>
					<path class="st3" d="M1178.6,3258.9c-0.4,0-0.8-0.2-1.1-0.4l-10.6-10.6c-0.6-0.6-0.6-1.6,0-2.2c0.6-0.6,1.6-0.6,2.1,0
						l10.6,10.6c0.6,0.6,0.6,1.6,0,2.2C1179.4,3258.8,1179,3258.9,1178.6,3258.9z"/>
					<path class="st3" d="M1168,3258.9c-0.4,0-0.8-0.2-1.1-0.4c-0.6-0.6-0.6-1.6,0-2.2l10.6-10.6c0.6-0.6,1.6-0.6,2.1,0
						c0.6,0.6,0.6,1.6,0,2.2l-10.6,10.6C1168.8,3258.8,1168.4,3258.9,1168,3258.9z"/>
				</g>
				<g>
					<path class="st3" d="M1178.6,3298.6c-0.4,0-0.8-0.2-1.1-0.5l-10.6-10.7c-0.6-0.6-0.6-1.6,0-2.1c0.6-0.6,1.6-0.6,2.2,0
						l10.6,10.7c0.6,0.6,0.6,1.6,0,2.1C1179.4,3298.5,1179,3298.6,1178.6,3298.6z"/>
					<path class="st3" d="M1168,3298.6c-0.4,0-0.8-0.1-1.1-0.4c-0.6-0.6-0.6-1.6,0-2.1l10.6-10.7c0.6-0.6,1.6-0.6,2.2,0
						c0.6,0.6,0.6,1.6,0,2.1l-10.6,10.7C1168.8,3298.4,1168.4,3298.6,1168,3298.6z"/>
				</g>
				<g>
					<path class="st3" d="M1178.6,3338.2c-0.4,0-0.8-0.2-1.1-0.4l-10.6-10.6c-0.6-0.6-0.6-1.6,0-2.2c0.6-0.6,1.6-0.6,2.1,0
						l10.6,10.6c0.6,0.6,0.6,1.6,0,2.2C1179.4,3338,1179,3338.2,1178.6,3338.2z"/>
					<path class="st3" d="M1168,3338.2c-0.4,0-0.8-0.2-1.1-0.4c-0.6-0.6-0.6-1.6,0-2.2l10.6-10.6c0.6-0.6,1.6-0.6,2.1,0
						c0.6,0.6,0.6,1.6,0,2.2l-10.6,10.6C1168.8,3338,1168.4,3338.2,1168,3338.2z"/>
				</g>
				<g>
					<path class="st3" d="M1178.6,3377.8c-0.4,0-0.8-0.2-1.1-0.5l-10.6-10.7c-0.6-0.6-0.6-1.6,0-2.1c0.6-0.6,1.6-0.6,2.2,0
						l10.6,10.7c0.6,0.6,0.6,1.6,0,2.1C1179.4,3377.7,1179,3377.8,1178.6,3377.8z"/>
					<path class="st3" d="M1168,3377.8c-0.4,0-0.8-0.1-1.1-0.4c-0.6-0.6-0.6-1.6,0-2.1l10.6-10.7c0.6-0.6,1.6-0.6,2.2,0
						c0.6,0.6,0.6,1.6,0,2.1l-10.6,10.7C1168.8,3377.7,1168.4,3377.8,1168,3377.8z"/>
				</g>
				<g>
					<path class="st3" d="M1530.8,3377.8c-0.4,0-0.8-0.2-1.1-0.5l-10.6-10.7c-0.6-0.6-0.6-1.6,0-2.1c0.6-0.6,1.6-0.6,2.2,0
						l10.6,10.7c0.6,0.6,0.6,1.6,0,2.1C1531.6,3377.7,1531.2,3377.8,1530.8,3377.8z"/>
					<path class="st3" d="M1520.2,3377.8c-0.4,0-0.8-0.1-1.1-0.4c-0.6-0.6-0.6-1.6,0-2.1l10.6-10.7c0.6-0.6,1.6-0.6,2.2,0
						c0.6,0.6,0.6,1.6,0,2.1l-10.6,10.7C1521,3377.7,1520.6,3377.8,1520.2,3377.8z"/>
				</g>
				<g>
					<path class="st3" d="M1178.6,3412.3c-0.4,0-0.8-0.2-1.1-0.5l-10.6-10.7c-0.6-0.6-0.6-1.6,0-2.1c0.6-0.6,1.6-0.6,2.2,0
						l10.6,10.7c0.6,0.6,0.6,1.6,0,2.1C1179.4,3412.2,1179,3412.3,1178.6,3412.3z"/>
					<path class="st3" d="M1168,3412.3c-0.4,0-0.8-0.1-1.1-0.4c-0.6-0.6-0.6-1.6,0-2.1l10.6-10.7c0.6-0.6,1.6-0.6,2.2,0
						c0.6,0.6,0.6,1.6,0,2.1l-10.6,10.7C1168.8,3412.2,1168.4,3412.3,1168,3412.3z"/>
				</g>
				<g>
					<path class="st3" d="M1530.8,3457.1c-0.4,0-0.8-0.2-1.1-0.5l-10.6-10.7c-0.6-0.6-0.6-1.6,0-2.1c0.6-0.6,1.6-0.6,2.2,0
						l10.6,10.7c0.6,0.6,0.6,1.6,0,2.1C1531.6,3456.9,1531.2,3457.1,1530.8,3457.1z"/>
					<path class="st3" d="M1520.2,3457.1c-0.4,0-0.8-0.1-1.1-0.4c-0.6-0.6-0.6-1.6,0-2.1l10.6-10.7c0.6-0.6,1.6-0.6,2.2,0
						c0.6,0.6,0.6,1.6,0,2.1l-10.6,10.7C1521,3456.9,1520.6,3457.1,1520.2,3457.1z"/>
				</g>
			</g>
			<path class="st3" d="M1258.5,3106.6c-0.8,0-1.4-0.6-1.5-1.3l-1.5-13c-0.1-0.8,0.5-1.6,1.3-1.7c0.8-0.3,1.6,0.5,1.7,1.3l1.5,13
				c0.1,0.8-0.5,1.6-1.3,1.7C1258.6,3106.6,1258.6,3106.6,1258.5,3106.6z"/>
			<path class="st3" d="M1257,3093.6c-0.7,0-1.3-0.4-1.5-1.1c-0.4-1.6-1.7-2.7-3.3-3c-1.6-0.3-3.2,0.4-4.1,1.7
				c-0.5,0.7-1.4,0.8-2.1,0.4c-0.7-0.5-0.9-1.4-0.4-2.1c1.6-2.3,4.4-3.4,7.1-3c2.7,0.5,5,2.5,5.8,5.1c0.2,0.8-0.2,1.7-1,1.9
				C1257.3,3093.5,1257.1,3093.6,1257,3093.6z"/>
			<path class="st3" d="M1451.9,3534.3c-0.3,0-0.6-0.1-0.8-0.3c-0.7-0.5-0.9-1.4-0.4-2.1l77.7-119.3c0.5-0.7,1.4-0.9,2.1-0.4
				c0.7,0.5,0.9,1.4,0.4,2.1l-77.7,119.3C1452.8,3534,1452.4,3534.3,1451.9,3534.3z"/>
			<path class="st3" d="M1528.4,3408c-0.3,0-0.6-0.1-0.9-0.3l-12-8.5c-0.7-0.5-0.8-1.4-0.4-2.1c0.5-0.7,1.4-0.9,2.1-0.4l12,8.5
				c0.7,0.5,0.8,1.4,0.4,2.1C1529.3,3407.8,1528.8,3408,1528.4,3408z"/>
			<path class="st3" d="M1529.6,3415c-0.3,0-0.6-0.1-0.9-0.3c-0.7-0.5-0.9-1.4-0.4-2.1c1.1-1.6,0.7-3.8-0.8-4.9
				c-0.7-0.5-0.9-1.4-0.4-2.1c0.5-0.7,1.4-0.8,2.1-0.4c2.9,2.1,3.7,6.2,1.6,9.2C1530.5,3414.8,1530,3415,1529.6,3415z"/>
			<path class="st3" d="M1441.8,3532.5c-0.8,0-1.4-0.6-1.5-1.3l-1.5-13c-0.1-0.8,0.5-1.6,1.3-1.7c0.9-0.1,1.6,0.5,1.7,1.3l1.5,13
				c0.1,0.8-0.5,1.6-1.3,1.7C1441.9,3532.5,1441.8,3532.5,1441.8,3532.5z"/>
			<path class="st3" d="M1447.2,3536.6c-0.4,0-0.8,0-1.2-0.1c-2.7-0.5-5-2.5-5.8-5.1c-0.2-0.8,0.2-1.7,1-1.9c0.8-0.2,1.7,0.2,1.9,1
				c0.4,1.5,1.8,2.7,3.3,3c1.6,0.3,3.2-0.4,4.1-1.7c0.5-0.7,1.4-0.8,2.1-0.4c0.7,0.5,0.9,1.4,0.4,2.1
				C1451.7,3535.5,1449.5,3536.6,1447.2,3536.6z"/>
			<path class="st3" d="M1402.6,3532.5c-0.8,0-1.4-0.6-1.5-1.4l-1.4-13c-0.1-0.8,0.5-1.6,1.3-1.7c0.9-0.2,1.6,0.5,1.7,1.3l1.4,13
				c0.1,0.8-0.5,1.6-1.3,1.7C1402.7,3532.5,1402.6,3532.5,1402.6,3532.5z"/>
			<path class="st3" d="M1408,3536.6c-0.4,0-0.8,0-1.2-0.1c-2.7-0.5-5-2.5-5.8-5.1c-0.2-0.8,0.2-1.6,1-1.9c0.8-0.2,1.7,0.2,1.9,1
				c0.4,1.5,1.8,2.7,3.3,3c1.5,0.3,3.2-0.4,4.1-1.7c0.5-0.7,1.4-0.8,2.1-0.4c0.7,0.5,0.9,1.4,0.4,2.1
				C1412.6,3535.5,1410.4,3536.6,1408,3536.6z"/>
			<path class="st3" d="M1528.4,3328.8c-0.3,0-0.6-0.1-0.9-0.3l-12-8.5c-0.7-0.5-0.8-1.4-0.4-2.1c0.5-0.7,1.4-0.8,2.1-0.4l12,8.5
				c0.7,0.5,0.8,1.4,0.4,2.1C1529.3,3328.6,1528.8,3328.8,1528.4,3328.8z"/>
			<path class="st3" d="M1529.6,3335.7c-0.3,0-0.6-0.1-0.9-0.3c-0.7-0.5-0.9-1.4-0.4-2.1c1.1-1.6,0.7-3.8-0.8-4.9
				c-0.7-0.5-0.9-1.4-0.4-2.1c0.5-0.7,1.4-0.8,2.1-0.4c2.9,2.1,3.7,6.2,1.6,9.2C1530.5,3335.5,1530,3335.7,1529.6,3335.7z"/>
			<path class="st3" d="M1412.7,3534.3c-0.3,0-0.5-0.1-0.8-0.2c-0.7-0.4-1-1.4-0.5-2.1l116.8-198.5c0.4-0.8,1.4-1,2.1-0.5
				c0.7,0.4,1,1.4,0.5,2.1L1414,3533.5C1413.8,3534,1413.3,3534.3,1412.7,3534.3z"/>
			<path class="st3" d="M1169.2,3290.3c-0.3,0-0.5-0.1-0.8-0.2c-0.7-0.4-1-1.4-0.5-2.1l116.8-198.4c0.4-0.7,1.4-1,2.1-0.5
				c0.7,0.4,1,1.4,0.5,2.1l-116.8,198.4C1170.2,3290.1,1169.7,3290.3,1169.2,3290.3z"/>
			<path class="st3" d="M1297.6,3106.6c-0.8,0-1.4-0.6-1.5-1.4l-1.4-13c-0.1-0.8,0.5-1.6,1.3-1.7c0.9-0.1,1.6,0.5,1.7,1.3l1.4,13
				c0.1,0.8-0.5,1.6-1.3,1.7C1297.7,3106.6,1297.7,3106.6,1297.6,3106.6z"/>
			<path class="st3" d="M1296.1,3093.6c-0.7,0-1.3-0.4-1.5-1.1c-0.4-1.6-1.7-2.7-3.3-3c-1.6-0.3-3.2,0.4-4.1,1.7
				c-0.5,0.7-1.4,0.8-2.1,0.4c-0.7-0.5-0.9-1.4-0.4-2.1c1.6-2.3,4.4-3.4,7.1-3c2.7,0.5,5,2.5,5.8,5.1c0.2,0.8-0.2,1.7-1,1.9
				C1296.4,3093.5,1296.3,3093.6,1296.1,3093.6z"/>
			<path class="st3" d="M1182.4,3305.8c-0.3,0-0.6-0.1-0.9-0.3l-12-8.4c-0.7-0.5-0.9-1.4-0.4-2.1c0.5-0.7,1.4-0.8,2.1-0.4l12,8.4
				c0.7,0.5,0.9,1.4,0.4,2.1C1183.3,3305.6,1182.9,3305.8,1182.4,3305.8z"/>
			<path class="st3" d="M1170.3,3297.4c-0.3,0-0.6-0.1-0.9-0.3c-3-2.1-3.7-6.2-1.6-9.2c0.5-0.7,1.4-0.8,2.1-0.4
				c0.7,0.5,0.9,1.4,0.4,2.1c-1.1,1.6-0.7,3.8,0.8,4.9c0.7,0.5,0.9,1.4,0.4,2.1C1171.3,3297.2,1170.8,3297.4,1170.3,3297.4z"/>
			<path class="st3" d="M1182.4,3231.1c-0.3,0-0.6-0.1-0.9-0.3l-12-8.4c-0.7-0.5-0.9-1.4-0.4-2.1c0.5-0.7,1.4-0.8,2.1-0.4l12,8.4
				c0.7,0.5,0.9,1.4,0.4,2.1C1183.3,3230.9,1182.9,3231.1,1182.4,3231.1z"/>
			<path class="st3" d="M1170.3,3222.7c-0.3,0-0.6-0.1-0.9-0.3c-1.4-1-2.4-2.5-2.7-4.2c-0.3-1.7,0.1-3.5,1.1-4.9
				c0.5-0.7,1.4-0.8,2.1-0.4c0.7,0.5,0.9,1.4,0.4,2.1c-0.5,0.8-0.7,1.7-0.6,2.6c0.2,0.9,0.7,1.7,1.4,2.3c0.7,0.5,0.9,1.4,0.4,2.1
				C1171.3,3222.5,1170.8,3222.7,1170.3,3222.7z"/>
			<path class="st3" d="M1169.2,3215.7c-0.3,0-0.6-0.1-0.8-0.2c-0.7-0.4-0.9-1.4-0.5-2.1l77.7-123.8c0.4-0.7,1.4-0.9,2.1-0.5
				c0.7,0.4,0.9,1.4,0.5,2.1l-77.7,123.8C1170.2,3215.5,1169.7,3215.7,1169.2,3215.7z"/>
			<path class="st3" d="M1333.1,3237.6h-15.9c-0.8,0-1.5-0.7-1.5-1.5v-143.5c0-0.8,0.7-1.5,1.5-1.5c0.8,0,1.5,0.7,1.5,1.5v142h14.4
				c0.8,0,1.5,0.7,1.5,1.5C1334.6,3237,1334,3237.6,1333.1,3237.6z"/>
			<path class="st3" d="M1334.8,3101c-0.4,0-0.8-0.2-1.1-0.5l-8.3-8.9c-0.6-0.6-0.5-1.6,0.1-2.1c0.6-0.6,1.6-0.6,2.1,0.1l8.3,8.9
				c0.6,0.6,0.5,1.6-0.1,2.1C1335.5,3100.9,1335.2,3101,1334.8,3101z"/>
			<path class="st3" d="M1317.2,3094c-0.1,0-0.2,0-0.3,0c-0.8-0.2-1.3-1-1.2-1.8c0.6-2.6,2.6-4.7,5.2-5.2c2.6-0.5,5.3,0.5,6.9,2.6
				c0.5,0.7,0.4,1.6-0.3,2.1c-0.7,0.5-1.6,0.4-2.1-0.3c-0.9-1.2-2.4-1.7-3.8-1.4c-1.4,0.3-2.6,1.5-2.9,2.9
				C1318.5,3093.5,1317.9,3094,1317.2,3094z"/>
			<path class="st3" d="M1370.1,3377.6h-198.1c-0.8,0-1.5-0.7-1.5-1.5s0.7-1.5,1.5-1.5h196.5v-14.4c0-0.8,0.7-1.5,1.5-1.5
				s1.5,0.7,1.5,1.5v15.9C1371.6,3376.9,1371,3377.6,1370.1,3377.6z"/>
			<path class="st3" d="M1170.2,3368.3c-0.4,0-0.8-0.2-1.1-0.5c-0.6-0.6-0.5-1.6,0.1-2.2l9-8.2c0.6-0.6,1.6-0.5,2.1,0.1
				c0.6,0.6,0.5,1.6-0.1,2.2l-9,8.2C1170.9,3368.2,1170.5,3368.3,1170.2,3368.3z"/>
			<path class="st3" d="M1172.1,3377.6c-0.1,0-0.2,0-0.3,0c-2.6-0.6-4.7-2.6-5.2-5.2c-0.6-2.6,0.5-5.3,2.6-6.9
				c0.7-0.5,1.6-0.4,2.1,0.3c0.5,0.7,0.3,1.6-0.3,2.1c-1.2,0.9-1.7,2.4-1.4,3.8c0.3,1.4,1.4,2.6,2.9,2.9c0.8,0.2,1.3,1,1.2,1.8
				C1173.5,3377.2,1172.8,3377.6,1172.1,3377.6z"/>
			<path class="st3" d="M1330.6,3532.1c-0.8,0-1.5-0.7-1.5-1.5V3281c0-0.8,0.7-1.5,1.5-1.5h15.9c0.8,0,1.5,0.7,1.5,1.5
				c0,0.8-0.7,1.5-1.5,1.5h-14.4v248.1C1332.1,3531.5,1331.5,3532.1,1330.6,3532.1z"/>
			<path class="st3" d="M1339.9,3534c-0.4,0-0.7-0.1-1-0.4c-0.6-0.6-0.7-1.5-0.1-2.1l8.2-8.9c0.6-0.6,1.5-0.6,2.1-0.1
				c0.6,0.6,0.7,1.5,0.1,2.1l-8.2,8.9C1340.8,3533.9,1340.3,3534,1339.9,3534z"/>
			<path class="st3" d="M1335.7,3536.2c-0.5,0-1,0-1.4-0.2c-2.6-0.6-4.6-2.6-5.2-5.2c-0.2-0.8,0.3-1.6,1.2-1.8
				c0.8-0.2,1.6,0.3,1.8,1.2c0.3,1.4,1.4,2.6,2.9,2.9c1.5,0.4,2.9-0.2,3.8-1.4c0.5-0.7,1.5-0.8,2.1-0.3c0.7,0.5,0.8,1.5,0.3,2.1
				C1339.8,3535.2,1337.8,3536.2,1335.7,3536.2z"/>
			<path class="st3" d="M1381.6,3108.1c-0.1,0-0.1,0-0.2,0c-0.8-0.1-1.4-0.9-1.3-1.7l1.5-13c0.1-0.8,0.7-1.5,1.7-1.3
				c0.8,0.1,1.4,0.9,1.3,1.7l-1.5,13C1383.1,3107.6,1382.4,3108.1,1381.6,3108.1z"/>
			<path class="st3" d="M1383.1,3095.1c-0.1,0-0.3,0-0.4-0.1c-0.8-0.2-1.3-1.1-1-1.9c0.8-2.7,3-4.7,5.8-5.1c2.7-0.4,5.5,0.7,7.1,3
				c0.5,0.7,0.3,1.6-0.4,2.1c-0.7,0.5-1.6,0.3-2.1-0.4c-0.9-1.3-2.6-2-4.1-1.7c-1.6,0.3-2.9,1.4-3.3,3
				C1384.3,3094.6,1383.7,3095.1,1383.1,3095.1z"/>
			<path class="st3" d="M1529.6,3203.7c-0.3,0-0.7-0.1-1-0.3l-136.3-110.3c-0.7-0.5-0.7-1.5-0.2-2.1c0.5-0.7,1.5-0.8,2.1-0.2
				l136.3,110.3c0.7,0.5,0.8,1.5,0.2,2.1C1530.5,3203.5,1530,3203.7,1529.6,3203.7z"/>
			<path class="st3" d="M1516.4,3219.1c-0.5,0-0.9-0.2-1.2-0.6c-0.5-0.7-0.3-1.6,0.4-2.1l12-8.4c0.7-0.5,1.6-0.3,2.1,0.4
				c0.5,0.7,0.3,1.6-0.4,2.1l-12,8.4C1517,3219,1516.7,3219.1,1516.4,3219.1z"/>
			<path class="st3" d="M1528.3,3210.7c-0.5,0-0.9-0.2-1.2-0.6c-0.5-0.7-0.3-1.6,0.4-2.1c1.6-1.1,2-3.3,0.8-4.9
				c-0.5-0.7-0.3-1.6,0.4-2.1c0.7-0.5,1.6-0.3,2.1,0.4c2.1,3,1.4,7.1-1.6,9.2C1529,3210.6,1528.7,3210.7,1528.3,3210.7z"/>
			<path class="st3" d="M1260.1,3534.3c-0.4,0-0.7-0.1-1-0.4l-91.1-81.2c-0.6-0.6-0.7-1.5-0.1-2.1c0.5-0.7,1.5-0.7,2.1-0.1
				l91.1,81.2c0.6,0.6,0.7,1.5,0.1,2.1C1260.9,3534.2,1260.5,3534.3,1260.1,3534.3z"/>
			<path class="st3" d="M1170.2,3446.2c-0.5,0-0.9-0.2-1.2-0.6c-0.5-0.7-0.3-1.6,0.4-2.1l12-8.5c0.7-0.5,1.6-0.3,2.1,0.4
				c0.5,0.7,0.3,1.6-0.4,2.1l-12,8.5C1170.9,3446.1,1170.6,3446.2,1170.2,3446.2z"/>
			<path class="st3" d="M1169,3453.1c-0.5,0-0.9-0.2-1.2-0.6c-1-1.4-1.4-3.2-1.1-4.9c0.3-1.7,1.3-3.2,2.7-4.2
				c0.7-0.5,1.6-0.3,2.1,0.4c0.5,0.7,0.3,1.6-0.4,2.1c-0.8,0.5-1.3,1.3-1.4,2.3c-0.2,0.9,0,1.9,0.6,2.6c0.5,0.7,0.3,1.6-0.4,2.1
				C1169.6,3453,1169.3,3453.1,1169,3453.1z"/>
			<path class="st3" d="M1270.3,3532.7c-0.1,0-0.1,0-0.2,0c-0.8-0.1-1.4-0.8-1.3-1.7l1.4-13c0.1-0.8,0.7-1.5,1.7-1.3
				c0.8,0.1,1.4,0.8,1.3,1.7l-1.4,13C1271.7,3532.1,1271,3532.7,1270.3,3532.7z"/>
			<path class="st3" d="M1264.8,3536.8c-2.3,0-4.6-1.1-5.9-3.1c-0.5-0.7-0.3-1.6,0.4-2.1c0.7-0.5,1.6-0.3,2.1,0.4
				c0.9,1.3,2.5,1.9,4.1,1.7c1.6-0.3,2.9-1.4,3.3-3c0.2-0.8,1-1.3,1.9-1c0.8,0.2,1.3,1.1,1,1.9c-0.8,2.7-3,4.7-5.8,5.1
				C1265.6,3536.7,1265.2,3536.8,1264.8,3536.8z"/>
			<path class="st3" d="M1526.7,3298.4h-120.3c-0.8,0-1.5-0.7-1.5-1.5v-15.9c0-0.8,0.7-1.5,1.5-1.5c0.8,0,1.5,0.7,1.5,1.5v14.4
				h118.7c0.8,0,1.5,0.7,1.5,1.5C1528.2,3297.7,1527.5,3298.4,1526.7,3298.4z"/>
			<path class="st3" d="M1528.6,3289.1c-0.4,0-0.7-0.1-1-0.4l-9-8.2c-0.6-0.6-0.7-1.5-0.1-2.2c0.6-0.6,1.5-0.7,2.1-0.1l9,8.2
				c0.6,0.6,0.7,1.5,0.1,2.2C1529.4,3288.9,1529,3289.1,1528.6,3289.1z"/>
			<path class="st3" d="M1526.5,3298.4c-0.7,0-1.3-0.5-1.5-1.2c-0.2-0.8,0.3-1.6,1.2-1.8c1.4-0.3,2.6-1.4,2.9-2.9
				c0.3-1.4-0.3-2.9-1.4-3.8c-0.7-0.5-0.8-1.5-0.3-2.1c0.5-0.7,1.5-0.8,2.1-0.3c2.2,1.6,3.2,4.3,2.6,6.9c-0.6,2.6-2.6,4.7-5.2,5.2
				C1526.7,3298.4,1526.6,3298.4,1526.5,3298.4z"/>
			<g>
				<g>
					<path class="st4" d="M1641.9,3233.7c0.2,0,0.4,0.2,0.4,0.5v1c0,0.3-0.1,0.5-0.4,0.5h-10.8c-0.2,0-0.4-0.2-0.4-0.5v-1
						c0-0.3,0.1-0.5,0.4-0.5H1641.9z M1641,3246.9c0.3,0,0.5,0.1,0.5,0.4v8.9c0,0.3-0.2,0.4-0.5,0.4h-1.2c-0.3,0-0.5-0.1-0.5-0.4
						v-1.1h-5.7v1.2c0,0.2-0.2,0.4-0.5,0.4h-1.2c-0.3,0-0.5-0.1-0.5-0.4v-9c0-0.3,0.2-0.5,0.5-0.5H1641z M1640.6,3242.4
						c0.2,0,0.4,0.2,0.4,0.5v1c0,0.3-0.1,0.5-0.4,0.5h-8.4c-0.3,0-0.3-0.2-0.3-0.5v-1c0-0.3,0.1-0.5,0.3-0.5H1640.6z M1640.6,3238
						c0.2,0,0.4,0.2,0.4,0.5v1c0,0.3-0.1,0.5-0.4,0.5h-8.2c-0.2,0-0.4-0.2-0.4-0.5v-1c0-0.3,0.1-0.5,0.4-0.5H1640.6z M1640.6,3229.5
						c0.2,0,0.4,0.2,0.4,0.5v1c0,0.3-0.1,0.5-0.4,0.5h-8.1c-0.2,0-0.4-0.2-0.4-0.5v-1c0-0.3,0.1-0.5,0.4-0.5H1640.6z M1639.3,3253.2
						v-4.3h-5.7v4.3H1639.3z M1655.6,3241.7c0.2,0,0.4,0.1,0.5,0.2c0.4,0.6,0.6,0.9,0.6,1c-0.6,1.9-1.1,3.4-1.6,4.4
						c-0.6,1.3-1.2,2.4-1.9,3.2c-0.4,0.5-0.7,0.9-1.1,1.3c0.8,0.6,1.7,1.1,2.9,1.6c1,0.5,2.4,0.9,4.1,1.3c0.2,0,0.3,0.1,0.3,0.2
						c0,0.1-0.1,0.2-0.2,0.3c-0.4,0.3-0.7,0.6-1.1,1.1c-0.2,0.2-0.3,0.3-0.3,0.3c-0.1,0-0.2-0.1-0.5-0.2c-0.8-0.3-1.7-0.6-2.7-0.9
						c-1.2-0.5-2.2-1.1-3.2-1.6c-0.3-0.2-0.6-0.4-0.9-0.6c-1,0.8-2.1,1.5-3.3,2c-0.9,0.5-2,0.9-3.4,1.2c-0.3,0-0.5-0.1-0.6-0.3
						c-0.3-0.3-0.5-0.7-0.7-1c-0.1-0.1-0.2-0.2-0.2-0.3c0-0.1,0.1-0.2,0.2-0.2c0.9-0.2,1.7-0.5,2.6-0.8c1.5-0.6,2.9-1.3,3.9-2.1
						c-0.1-0.1-0.1-0.1-0.1-0.1c-0.9-0.8-1.5-1.7-1.8-2.6c-0.6-1-1.1-2.2-1.5-3.8v-0.3c0-0.1,0.6-0.2,1.9-0.4c0.2,1.1,0.5,2,0.9,2.7
						c0.4,1,1,1.9,1.7,2.6c0.1,0.2,0.3,0.4,0.5,0.5c0.4-0.4,0.9-0.9,1.2-1.4c0.6-0.9,1.2-2,1.7-3.1c0.3-0.6,0.6-1.4,0.8-2.3h-10.3
						c-0.2,0-0.3-0.1-0.3-0.5v-1c0-0.3,0.1-0.5,0.3-0.5H1655.6z M1653.4,3229.3c0.3,0,0.5,0.1,0.5,0.4v7c0,0.3,0.1,0.4,0.2,0.5
						c0.2,0.1,0.5,0.2,0.9,0.2h1.1c0.4,0,0.7-0.2,0.9-0.5c0.2-0.4,0.3-1.2,0.5-2.4c0-0.1,0.1-0.2,0.3-0.2c0.1,0,0.2,0.1,0.4,0.1
						c0.3,0.1,0.6,0.2,1,0.4c0.3,0.1,0.4,0.2,0.4,0.5c-0.3,1.5-0.6,2.6-1,3.4c-0.3,0.6-0.8,0.8-1.7,0.8h-3c-0.8,0-1.4-0.1-1.8-0.4
						c-0.3-0.2-0.4-0.5-0.4-0.9v-7.3h-3.9v1.5c0,1.3-0.2,2.5-0.4,3.6c-0.2,1-0.7,1.8-1.5,2.6c-0.5,0.5-1.1,1-1.9,1.5
						c-0.3,0-0.4-0.1-0.6-0.2c-0.3-0.3-0.6-0.7-0.8-1c-0.2-0.1-0.2-0.3-0.2-0.4c1.5-0.9,2.5-1.9,3-3.2c0.2-0.9,0.4-1.9,0.4-3v-2.8
						c0-0.3,0.1-0.4,0.3-0.4H1653.4z"/>
					<path class="st4" d="M1674.7,3233.7c0.2,0,0.4,0.2,0.4,0.5v1c0,0.3-0.1,0.5-0.4,0.5h-12.8c-0.2,0-0.3-0.2-0.3-0.5v-1
						c0-0.3,0.1-0.5,0.3-0.5H1674.7z M1673,3246.8c0.3,0,0.5,0.1,0.5,0.4v9.2c0,0.2-0.1,0.4-0.5,0.4h-1.2c-0.3,0-0.5-0.1-0.5-0.4
						v-1.5h-6.3v1.5c0,0.2-0.2,0.4-0.5,0.4h-1.2c-0.3,0-0.5-0.1-0.5-0.4v-9.1c0-0.3,0.2-0.5,0.5-0.5H1673z M1672.9,3242.2
						c0.2,0,0.3,0.2,0.3,0.5v0.9c0,0.3-0.1,0.5-0.3,0.5h-9.3c-0.2,0-0.4-0.2-0.4-0.5v-0.9c0-0.3,0.1-0.5,0.4-0.5H1672.9z
						 M1672.9,3238c0.2,0,0.3,0.2,0.3,0.5v1c0,0.3-0.1,0.5-0.3,0.5h-9.2c-0.2,0-0.4-0.2-0.4-0.5v-1c0-0.3,0.1-0.5,0.4-0.5H1672.9z
						 M1672.6,3229.5c0.2,0,0.4,0.2,0.4,0.5v1c0,0.3-0.1,0.5-0.4,0.5h-8.8c-0.3,0-0.4-0.2-0.4-0.5v-1c0-0.3,0.1-0.5,0.4-0.5H1672.6z
						 M1671.3,3252.9v-4.2h-6.3v4.2H1671.3z M1681.2,3237.7v-8.4c0-0.3,0.2-0.4,0.5-0.4c1.5,0,2.3,0.1,2.3,0.4
						c0,0.3-0.1,0.4-0.3,0.5c-0.2,0-0.3,0.3-0.3,0.6v7.4h6c0.2,0,0.4,0.2,0.4,0.5v1c0,0.3-0.1,0.5-0.4,0.5h-6v16.7
						c0,0.2-0.2,0.4-0.5,0.4h-1.2c-0.3,0-0.5-0.1-0.5-0.4v-16.7h-5.8c-0.2,0-0.4-0.2-0.4-0.5v-1c0-0.3,0.1-0.5,0.4-0.5H1681.2z"/>
					<path class="st4" d="M1700.2,3236.9v-3.7h3.7v3.7H1700.2z M1700.2,3252.3v-3.7h3.7v3.7H1700.2z"/>
					<path class="st4" d="M1728.8,3254c-1.5,1.6-3.4,2.4-5.7,2.4c-3.6,0-6.1-1.7-7.4-5.3l2.5-1.1c1,2.6,2.6,3.9,4.9,3.9
						c1.5,0,2.7-0.5,3.7-1.7c1.1-1.2,1.7-2.9,1.7-5c0-4.1-1.5-6.2-4.6-6.2c-2.1,0-3.7,1-4.7,3.1h-2.4v-13.4h13.4v2.5h-10.7v7
						c1-1.2,2.5-1.8,4.4-1.8c2.2,0,4,0.8,5.3,2.4c1.3,1.5,2,3.7,2,6.3C1731.3,3250,1730.4,3252.3,1728.8,3254z"/>
					<path class="st4" d="M1744.7,3256.4c-5.5,0-8.3-4.4-8.3-13.1c0-4.2,0.6-7.3,1.8-9.4c1.4-2.3,3.5-3.4,6.4-3.4
						c2.9,0,5.1,1.2,6.4,3.4c1.2,2.1,1.8,5.3,1.8,9.4C1753,3252,1750.2,3256.4,1744.7,3256.4z M1748.8,3235.1
						c-0.9-1.5-2.3-2.2-4.1-2.2c-1.9,0-3.3,0.7-4.1,2.2c-1,1.7-1.5,4.4-1.5,8.1c0,3.8,0.5,6.6,1.5,8.3c0.9,1.5,2.3,2.3,4.1,2.3
						c1.9,0,3.2-0.8,4.1-2.3c1-1.7,1.5-4.4,1.5-8.3C1750.3,3239.5,1749.8,3236.8,1748.8,3235.1z"/>
					<path class="st4" d="M1765.9,3256.4c-5.5,0-8.3-4.4-8.3-13.1c0-4.2,0.6-7.3,1.8-9.4c1.4-2.3,3.5-3.4,6.4-3.4
						c2.9,0,5.1,1.2,6.5,3.4c1.2,2.1,1.8,5.3,1.8,9.4C1774.2,3252,1771.4,3256.4,1765.9,3256.4z M1770,3235.1
						c-0.9-1.5-2.3-2.2-4.1-2.2c-1.9,0-3.3,0.7-4.1,2.2c-1,1.7-1.5,4.4-1.5,8.1c0,3.8,0.5,6.6,1.5,8.3c0.9,1.5,2.3,2.3,4.1,2.3
						c1.9,0,3.2-0.8,4.1-2.3c1-1.7,1.5-4.4,1.5-8.3C1771.5,3239.5,1771,3236.8,1770,3235.1z"/>
					<path class="st4" d="M1787.1,3256.4c-5.5,0-8.3-4.4-8.3-13.1c0-4.2,0.6-7.3,1.8-9.4c1.4-2.3,3.5-3.4,6.4-3.4
						c2.9,0,5.1,1.2,6.4,3.4c1.2,2.1,1.8,5.3,1.8,9.4C1795.4,3252,1792.6,3256.4,1787.1,3256.4z M1791.2,3235.1
						c-0.9-1.5-2.3-2.2-4.1-2.2c-1.9,0-3.3,0.7-4.1,2.2c-1,1.7-1.5,4.4-1.5,8.1c0,3.8,0.5,6.6,1.5,8.3c0.9,1.5,2.3,2.3,4.1,2.3
						c1.9,0,3.2-0.8,4.1-2.3c1-1.7,1.5-4.4,1.5-8.3C1792.7,3239.5,1792.2,3236.8,1791.2,3235.1z"/>
					<path class="st4" d="M1817.3,3254.2c-1.5,1.4-3.3,2.1-5.5,2.1c-2.6,0-4.6-1-6-3v7.9h-2.7v-22.3h2.7v2.7c1.5-2,3.4-3,5.9-3
						c2.5,0,4.4,0.8,5.9,2.4c1.5,1.7,2.2,3.8,2.2,6.4C1819.8,3250.4,1818.9,3252.6,1817.3,3254.2z M1815.7,3242.9
						c-0.9-1.1-2.3-1.7-4-1.7c-1.7,0-3.1,0.6-4.2,1.8c-1.2,1.2-1.7,2.9-1.7,4.9c0,1.8,0.7,3.3,2,4.4c1.2,1,2.5,1.5,4.1,1.5
						c1.5,0,2.6-0.5,3.6-1.4c1.1-1.1,1.7-2.7,1.7-5C1817,3245.5,1816.6,3244,1815.7,3242.9z"/>
					<path class="st4" d="M1834.3,3254.9c-1.3,1-2.9,1.4-4.9,1.4c-3.4,0-6-1.4-7.8-4.1l2.6-1.1c1.1,1.8,2.8,2.6,5.1,2.6
						c1.4,0,2.4-0.3,3.2-0.9c0.6-0.5,0.9-1,0.9-1.5c0-1.1-1.7-2.1-5.2-2.9c-2.1-0.5-3.6-1-4.5-1.5c-1.4-0.8-2.1-1.9-2.1-3.3
						c0-1.7,0.7-3,2.2-3.9c1.1-0.6,2.5-1,4.3-1c3.3,0,5.8,1.2,7.4,3.6l-2.5,1.1c-1-1.4-2.7-2.1-4.9-2.1c-2.5,0-3.8,0.8-3.8,2.4
						c0,0.5,0.6,0.9,1.7,1.4c0.7,0.2,1.7,0.6,3,1c2.5,0.9,4.1,1.4,4.6,1.7c1.7,0.9,2.5,2.2,2.5,3.7
						C1836.2,3252.7,1835.6,3253.9,1834.3,3254.9z"/>
					<path class="st4" d="M1842,3233.8v-3.1h2.9v3.1H1842z M1842.1,3256v-17h2.7v17H1842.1z"/>
					<path class="st4" d="M1857.2,3237.7c0.9,0.5,1.7,1,2.4,1.4c0,0.1-0.1,0.2-0.1,0.3c-0.6,0.9-0.9,1.3-1,1.3
						c-1-0.6-2.1-1.2-3.2-1.7c-0.9-0.4-1.7-0.7-2.3-0.9c0-0.1,0.3-0.6,0.9-1.4c0.1-0.1,0.2-0.2,0.3-0.2
						C1855.4,3236.9,1856.4,3237.3,1857.2,3237.7z M1860.1,3243.4c0.5,1.1,0.7,1.7,0.7,1.8c0,0.2-0.1,0.3-0.2,0.4
						c-1,2.4-2,4.5-2.9,6.2c-0.5,1-1.1,2-1.8,3.2c-0.2,0.3-0.2,0.6-0.2,1.1c0,0.3-0.1,0.4-0.2,0.4c-0.2,0-0.8-0.6-2-2
						c-0.1-0.1-0.2-0.2-0.2-0.3c0-0.2,0-0.3,0.2-0.4c0.6-0.6,1.2-1.4,1.8-2.3c0.9-1.2,1.7-2.7,2.5-4.2c0.7-1.4,1.3-2.6,1.8-3.8
						c0.1-0.2,0.1-0.3,0.2-0.3C1859.9,3243.1,1860,3243.2,1860.1,3243.4z M1858.9,3230.7c0.8,0.6,1.6,1.1,2.2,1.6
						c0,0-0.1,0.1-0.2,0.3c-0.6,0.9-0.9,1.3-0.9,1.3c-1-0.7-2-1.4-3-2c-0.9-0.5-1.6-0.9-2.2-1.1c0-0.1,0.3-0.6,1-1.4
						c0.1-0.1,0.2-0.2,0.2-0.2C1857.1,3229.7,1858.1,3230.2,1858.9,3230.7z M1864.8,3253.2c1.8-0.4,3.4-0.8,5-1.3
						c0.1,0,0.1-0.1,0.2-0.1c0.2,0,0.2,0.1,0.2,0.4c0,1-0.1,1.5-0.1,1.6c-3.1,0.8-6.2,1.5-9.3,2.2c-0.3,0.6-0.5,0.9-0.7,0.9
						c-0.2,0-0.5-0.8-1.1-2.4c1-0.2,2.3-0.4,3.6-0.7v-11.5c0-0.2,0.2-0.4,0.5-0.4c1.5,0,2.3,0.1,2.3,0.4c0,0.3-0.1,0.4-0.3,0.5
						c-0.2,0-0.3,0.3-0.3,0.6v2.4h4.9c0.2,0,0.3,0.2,0.3,0.5v1c0,0.3-0.1,0.5-0.3,0.5h-4.9V3253.2z M1878.3,3229.5
						c0.3,0,0.5,0.1,0.5,0.4v10.2c0,0.2-0.2,0.3-0.5,0.3h-15.5c-0.3,0-0.5-0.1-0.5-0.3v-10.2c0-0.2,0.1-0.4,0.5-0.4H1878.3z
						 M1876.7,3234v-2.5h-12.1v2.5H1876.7z M1876.7,3235.9h-12.1v2.5h12.1V3235.9z M1881,3245.7c0,0.2-0.1,0.2-0.3,0.2
						c-0.4,0-0.6,0.1-0.6,0.2c-2,1-4.1,1.8-6.3,2.5v4.1c0,0.9,0.6,1.3,1.7,1.3h1.6c1,0,1.6-0.1,1.8-0.5c0.2-0.2,0.6-1.2,1-2.8
						c0.2,0.4,0.7,0.8,1.3,1.2c0.2,0.1,0.4,0.2,0.4,0.4c-0.5,1.8-0.9,2.9-1.2,3.1c-0.3,0.4-0.8,0.6-1.7,0.6h-3.4
						c-2.4,0-3.6-0.7-3.6-2.2v-11.5c0-0.3,0.1-0.4,0.2-0.4l2,0.2c0.2,0.1,0.4,0.1,0.4,0.3c0,0.2-0.1,0.3-0.2,0.4
						c-0.2,0-0.3,0.2-0.3,0.3v3.4c0.7-0.2,1.3-0.4,1.8-0.7c1.1-0.4,2.2-1.1,3.3-1.8c0.2-0.1,0.3-0.1,0.4-0.1
						C1880.4,3245,1881,3245.6,1881,3245.7z"/>
					<path class="st4" d="M1888.2,3241.6c0.5,1.1,0.8,1.6,0.8,1.7c0,0.2,0,0.4-0.1,0.5c-0.5,2.7-1,4.9-1.5,6.7
						c-0.2,1.1-0.6,2.2-0.9,3.5c-0.1,0.3-0.1,0.7-0.1,1.2c0,0.3-0.1,0.4-0.2,0.4c-0.2,0-0.8-0.6-1.9-1.8c-0.1-0.1-0.2-0.2-0.2-0.3
						c0-0.2,0-0.3,0.1-0.5c0.4-0.6,0.7-1.5,1.1-2.5c0.5-1.4,1-2.9,1.5-4.7c0.4-1.5,0.8-2.9,1.1-4.2c0-0.2,0.1-0.2,0.1-0.2
						C1888.1,3241.4,1888.1,3241.4,1888.2,3241.6z M1887.9,3233.2c0.6,1.2,1.1,2.3,1.5,3.2c0,0.1-0.1,0.2-0.2,0.3
						c-0.6,0.9-0.9,1.3-0.9,1.3c-0.7-1.5-1.4-2.9-2.1-4.1c-0.6-1-1.1-1.7-1.5-2.2c0-0.1,0.3-0.6,1-1.4c0.1-0.1,0.2-0.2,0.2-0.2
						C1886.7,3231.2,1887.4,3232.3,1887.9,3233.2z M1894.1,3239.5c0.2,0.1,0.3,0.3,0.3,0.4c0,0.2-0.1,0.3-0.2,0.3
						c-0.2,0-0.2,0.1-0.2,0.3c-0.1,0.5-0.3,0.9-0.4,1.3h6c0.2,0,0.3,0.1,0.3,0.4v1c0,0.3-0.1,0.5-0.3,0.5h-2.9
						c-0.1,1.5-0.1,2.7-0.2,3.6h3.9c0.2,0,0.2,0.1,0.2,0.4v1c0,0.3-0.1,0.5-0.2,0.5h-3.7c0.4,0.9,0.7,1.5,1.1,1.8
						c0.5,0.7,1.1,1.4,1.8,2c0,0.2-0.1,0.3-0.2,0.4c-0.3,0.2-0.7,0.6-1.1,1c-0.1,0-0.1,0-0.1-0.1c-0.4-0.4-0.8-0.8-1.2-1.4
						c-0.3-0.5-0.7-1.2-1.1-2c-0.2,0.8-0.5,1.5-0.8,2c-0.5,0.9-1.1,1.6-1.7,2.2c-0.6,0.6-1.4,1.2-2.3,1.7c-0.5-0.5-1-1-1.3-1.3
						c0.5-0.2,1-0.6,1.7-1.2c0.7-0.6,1.3-1.4,1.8-2.1c0.5-0.9,0.8-2,1.1-3.1h-4c-0.2,0-0.2-0.2-0.2-0.5v-1c0-0.3,0.1-0.4,0.2-0.4
						h4.3c0.1-1,0.1-2.2,0.2-3.6h-1.8c-0.2,0.5-0.4,0.9-0.6,1.3c-0.3,0.5-0.6,1-0.9,1.4c-0.3,0-0.5,0-0.6-0.1
						c-0.4-0.1-0.7-0.3-1.1-0.4c-0.2-0.1-0.2-0.1-0.2-0.2c0-0.1,0-0.1,0.1-0.2c0.5-0.6,0.9-1.4,1.3-2.3c0.2-0.5,0.4-1.1,0.6-1.7
						c0.2-0.6,0.3-1.5,0.5-2.4c0-0.1,0.1-0.1,0.1-0.1L1894.1,3239.5z M1893,3229.3c0.2,0,0.3,0.1,0.3,0.2c0,0.2-0.1,0.3-0.2,0.4
						c-0.1,0-0.2,0.2-0.2,0.3v2.3c0.6-0.2,1.1-0.3,1.7-0.5c0.8-0.3,1.5-0.6,2.2-1c0.5-0.3,1-0.6,1.4-1c0,0,0,0,0.1,0
						c0.1,0,0.2,0.1,0.3,0.3c0.8,1.1,1.2,1.6,1.2,1.7c0,0.2-0.1,0.3-0.2,0.3l-0.6-0.1c-0.1,0-0.1,0-0.1,0c-0.5,0.3-1.1,0.6-1.6,0.9
						c-0.7,0.3-1.5,0.6-2.4,0.8c-0.6,0.2-1.2,0.3-2,0.5v1.3c0,0.8,0.5,1.2,1.5,1.2h1.7c0.9,0,1.5-0.1,1.7-0.4
						c0.2-0.2,0.5-0.9,0.8-2.3c0.2,0.4,0.6,0.7,1.2,1.1c0.2,0.1,0.4,0.2,0.4,0.4c-0.5,1.5-0.9,2.4-1.1,2.5c-0.2,0.4-0.8,0.5-1.6,0.5
						h-3.2c-2.2,0-3.3-0.6-3.3-1.9v-7.4c0-0.2,0.1-0.3,0.2-0.3L1893,3229.3z M1911.3,3238.6c0.2,0,0.4,0.1,0.5,0.4
						c0.7,0.8,1.1,1.2,1.1,1.3c-1.1,2.5-1.8,4.1-2,4.7c-0.1,0.2-0.1,0.3-0.1,0.3c-0.2,0-0.3-0.1-0.5-0.2c-0.3-0.2-0.7-0.6-1-0.9
						c-0.2-0.1-0.2-0.2-0.2-0.3l2-3.5h-3.4v6.8h3.5c0.2,0,0.3,0.1,0.3,0.4v1c0,0.3-0.1,0.5-0.3,0.5h-3.5v5.2
						c0.6,0.1,1.2,0.1,2.1,0.1c0.5,0,1.5-0.1,3.1-0.2c0,0.1-0.1,0.2-0.2,0.4c-0.2,0.5-0.3,0.9-0.4,1.4c-0.1,0.3-0.1,0.4-0.2,0.4
						h-1.9c-1.9,0-3.2-0.2-4-0.5c-0.6-0.2-1.2-0.6-1.7-1c-0.4-0.3-0.7-0.7-1-1.2c-0.3-0.4-0.5-0.9-0.6-1.4c-0.5,1.9-1.2,3.4-2,4.5
						c-0.2,0-0.4-0.1-0.5-0.2c-0.3-0.3-0.6-0.6-0.9-0.9c-0.1-0.2-0.2-0.3-0.2-0.4c0-0.2,0-0.3,0.2-0.4c0.5-0.6,0.9-1.2,1.2-1.8
						c0.3-0.7,0.6-1.4,0.8-2.2c0.2-0.8,0.3-1.7,0.4-2.7c0.1-1.2,0.2-2.6,0.2-4.3c0-0.3,0.1-0.5,0.3-0.5l1.9,0.5
						c0.2,0.1,0.3,0.2,0.3,0.3c0,0.3-0.2,0.4-0.5,0.4c-0.2,0.1-0.3,0.3-0.4,0.6c-0.1,1.2-0.1,2.4-0.3,3.4c0.2,1.1,0.4,1.9,0.6,2.3
						c0.2,0.6,0.4,1.1,0.7,1.5c0.2,0.4,0.5,0.6,0.9,0.9v-13h-4.2c-0.2,0-0.2-0.2-0.2-0.5v-1c0-0.3,0.1-0.4,0.2-0.4H1911.3z
						 M1910.7,3229.6c0.2,0,0.4,0.1,0.5,0.1c0.4,0.3,0.6,0.6,0.6,0.7l-4.1,5.2c0.7,0.4,1.2,0.8,1.7,1.2c0,0-0.1,0.1-0.2,0.2
						c-0.5,0.7-0.8,1.1-0.8,1.1c-1.1-0.9-2.4-1.6-3.6-2.4c-1-0.6-1.9-1-2.6-1.2c0-0.1,0.3-0.5,0.9-1.1c0.1-0.1,0.2-0.2,0.2-0.2
						c1.1,0.5,1.9,1,2.7,1.4l2.7-3.2h-6.8c-0.2,0-0.4-0.2-0.4-0.5v-1c0-0.2,0.1-0.3,0.4-0.3H1910.7z"/>
					<path class="st4" d="M1928.2,3239.2v-9.9c0-0.3,0.2-0.4,0.5-0.4c1.6,0,2.4,0.1,2.4,0.4c0,0.3-0.1,0.4-0.3,0.5
						c-0.2,0-0.3,0.3-0.3,0.6v8.8h10.2c0.2,0,0.3,0.2,0.3,0.5v1.2c0,0.3-0.1,0.5-0.3,0.5h-10.2v11.8h12c0.2,0,0.4,0.2,0.4,0.5v1.2
						c0,0.3-0.1,0.5-0.4,0.5h-26.7c-0.2,0-0.4-0.2-0.4-0.5v-1.2c0-0.3,0.1-0.5,0.4-0.5h12.4v-11.8h-10.7c-0.3,0-0.4-0.2-0.4-0.5
						v-1.2c0-0.3,0.1-0.5,0.4-0.5H1928.2z"/>
					<path class="st4" d="M1636.9,3297.3c-1.5-1.4-2.8-2.9-3.8-4.8c-1.5-2.7-2.3-5.5-2.3-8.4c0-2.9,0.7-5.7,2.3-8.4
						c1-1.8,2.3-3.4,3.8-4.8l1.3,1.4c-1.4,1.2-2.5,2.7-3.4,4.3c-1.4,2.4-2,4.9-2,7.5c0,2.6,0.6,5.1,2,7.5c0.9,1.6,2,3.1,3.4,4.3
						L1636.9,3297.3z"/>
					<path class="st4" d="M1668,3274.6c0.3,0,0.5,0.1,0.5,0.4v2.9h4.8c0.2,0,0.3,0.1,0.3,0.4v0.7c0,0.3-0.1,0.5-0.3,0.5h-4.8v2.9
						c0,0.3-0.2,0.4-0.5,0.4h-15.8c-0.3,0-0.5-0.1-0.5-0.4v-2.9h-5.4c-0.2,0-0.3-0.2-0.3-0.5v-0.7c0-0.3,0.1-0.4,0.3-0.4h5.4v-2.9
						c0-0.2,0.2-0.4,0.5-0.4H1668z M1661.7,3269.6c0,0.3-0.1,0.4-0.3,0.5c-0.2,0-0.3,0.2-0.3,0.6v0.7h11.4c0.3,0,0.5,0.1,0.5,0.4
						v4.3c0,0.3-0.2,0.4-0.5,0.4h-1.2c-0.3,0-0.5-0.1-0.5-0.4v-3h-22v3c0,0.3-0.2,0.4-0.5,0.4h-1.2c-0.3,0-0.5-0.1-0.5-0.4v-4.3
						c0-0.3,0.1-0.4,0.5-0.4h11.8v-1.8c0-0.3,0.2-0.4,0.5-0.4C1661,3269.2,1661.7,3269.4,1661.7,3269.6z M1668.1,3284.1
						c0.3,0,0.5,0.1,0.5,0.4v9.2c0,0.2-0.2,0.3-0.5,0.3h-3.9c1.5,0.4,2.8,0.6,3.7,1c1.3,0.4,2.4,0.8,3.3,1.1c0,0-0.1,0.1-0.2,0.3
						c-0.6,0.9-0.9,1.3-1,1.3c-1.4-0.5-2.9-1-4.5-1.4c-1.3-0.4-2.4-0.6-3.3-0.7c0-0.1,0.3-0.6,1-1.4c0.1-0.1,0.1-0.1,0.1-0.1h-7.3
						c0.9,0.7,1.3,1.2,1.3,1.3c0,0.1-0.1,0.2-0.3,0.2c-0.4,0-0.6,0-0.6,0.2c-2.4,0.8-5,1.4-7.6,1.9c-0.2,0-0.4-0.1-0.4-0.2
						c-0.1-0.3-0.3-0.5-0.6-0.6c-0.1-0.1-0.1-0.3-0.1-0.3c0-0.1,0.1-0.2,0.3-0.2c1.4-0.3,2.6-0.6,3.6-0.8c1.2-0.4,2.5-0.9,3.8-1.4
						h-3.8c-0.3,0-0.5-0.1-0.5-0.3v-9.2c0-0.3,0.1-0.4,0.5-0.4H1668.1z M1666.4,3287v-1.5h-13.1v1.5H1666.4z M1666.4,3289.9v-1.5
						h-13.1v1.5H1666.4z M1666.4,3291.2h-13.1v1.3h13.1V3291.2z M1658.8,3277.8v-1.8h-5.1v1.8H1658.8z M1658.8,3279.4h-5.1v1.8h5.1
						V3279.4z M1660.9,3277.8h5.5v-1.8h-5.5V3277.8z M1666.4,3279.4h-5.5v1.8h5.5V3279.4z"/>
					<path class="st4" d="M1680.4,3278.4c0.7,0.6,1.4,1.2,1.9,1.6c0,0.1-0.1,0.1-0.1,0.3c-0.6,0.9-0.9,1.3-0.9,1.3
						c-0.8-0.7-1.7-1.5-2.6-2.1c-0.7-0.5-1.4-0.8-1.9-1.1c0-0.1,0.3-0.6,1-1.4c0.1-0.1,0.2-0.2,0.2-0.2
						C1678.9,3277.4,1679.7,3277.9,1680.4,3278.4z M1682.3,3285.1c0.5,1.1,0.7,1.7,0.7,1.8c0,0.2-0.1,0.3-0.1,0.4
						c-0.8,2.2-1.6,4.1-2.3,5.6c-0.4,0.9-0.9,1.8-1.5,2.8c-0.1,0.3-0.1,0.6-0.1,1c0,0.3-0.1,0.4-0.3,0.4c-0.2,0-0.8-0.6-2-1.9
						c-0.1-0.1-0.2-0.2-0.2-0.3c0-0.2,0-0.3,0.1-0.4c0.5-0.6,1-1.2,1.5-2.1c0.7-1.1,1.4-2.4,2.1-3.9c0.6-1.2,1.1-2.4,1.5-3.4
						c0.1-0.2,0.1-0.3,0.2-0.3C1682.2,3284.8,1682.3,3284.9,1682.3,3285.1z M1681.4,3271c0.7,0.6,1.3,1,1.9,1.5c0,0-0.1,0.1-0.2,0.3
						c-0.6,0.9-0.9,1.3-0.9,1.3c-0.8-0.7-1.6-1.3-2.5-1.9c-0.7-0.5-1.3-0.8-1.8-1c0-0.1,0.3-0.6,0.9-1.4c0.1-0.1,0.2-0.2,0.3-0.2
						C1679.9,3270.1,1680.7,3270.6,1681.4,3271z M1688.3,3292.4c0.2,0.2,0.2,0.3,0.2,0.4c0,0.1-0.1,0.2-0.2,0.2
						c-0.2,0-0.3,0.1-0.4,0.2c-0.5,0.7-1,1.4-1.5,2c-0.6,0.7-1.5,1.4-2.4,2c-0.2,0-0.4-0.1-0.5-0.2c-0.4-0.3-0.8-0.6-1.1-0.9
						c-0.2-0.1-0.2-0.2-0.2-0.2c0-0.1,0-0.1,0.1-0.2c0.5-0.2,0.9-0.5,1.2-0.7c0.6-0.5,1.2-1.1,1.7-1.7c0.4-0.5,0.9-1.2,1.4-2
						c0-0.1,0.1-0.2,0.1-0.2L1688.3,3292.4z M1693.5,3270.6c0.3,0,0.5,0.1,0.5,0.4v19.3c0,0.3-0.2,0.4-0.5,0.4h-8.2
						c-0.3,0-0.5-0.1-0.5-0.4v-19.3c0-0.3,0.2-0.4,0.5-0.4H1693.5z M1691.8,3276.5v-4h-4.9v4H1691.8z M1691.8,3282.5v-4.1h-4.9v4.1
						H1691.8z M1691.8,3284.5h-4.9v4.2h4.9V3284.5z M1693.8,3293.7c0.5,0.5,1.1,1,2.1,1.6c0.1,0.1,0.2,0.3,0.2,0.4
						c0,0.2-0.5,0.7-1.3,1.6c-0.1,0-0.1,0-0.2-0.1c-1.7-1.5-2.9-3-3.7-4.3c-0.1-0.2-0.1-0.3-0.1-0.3c0-0.2,0.4-0.6,1.3-1.4
						C1692.6,3292.2,1693.2,3293,1693.8,3293.7z M1699.8,3272.5c0,0.3-0.1,0.4-0.3,0.5c-0.2,0-0.3,0.3-0.3,0.6v17.3
						c0,0.2-0.2,0.3-0.5,0.3h-1.2c-0.3,0-0.5-0.1-0.5-0.3v-18.4c0-0.2,0.2-0.4,0.5-0.4C1699,3272.1,1699.8,3272.3,1699.8,3272.5z
						 M1704.9,3269.6c0.2,0.1,0.3,0.2,0.3,0.3c0,0.2-0.1,0.3-0.3,0.3c-0.4,0.2-0.6,0.6-0.6,1.4v23.5c0,1.5-1.1,2.2-3.2,2.2h-1.6
						c-0.2,0-0.3-0.2-0.3-0.5c-0.1-0.4-0.3-0.9-0.6-1.4c0-0.2,0.1-0.3,0.2-0.3c0.7,0.2,1.4,0.3,1.9,0.3c0.9,0,1.3-0.4,1.3-1.1v-22.8
						c0-0.6-0.1-1.1-0.1-1.4c-0.1-0.2-0.1-0.4-0.1-0.6c0-0.2,0.2-0.3,0.6-0.3L1704.9,3269.6z"/>
					<path class="st4" d="M1714.4,3270.9c0,0.2-0.1,0.3-0.2,0.3c-0.3,0-0.5,0.2-0.5,0.3c0,0.1-0.1,0.1-0.1,0.2
						c0.6,0.9,1,1.6,1.4,1.9c0.6,0.7,1.3,1.4,2.2,2c0,0.2-0.1,0.3-0.2,0.4c-0.3,0.3-0.7,0.6-1.1,1c-0.1,0-0.1,0-0.2-0.1
						c-0.5-0.3-1-0.8-1.4-1.3c-0.5-0.6-1-1.3-1.5-2.2c-0.6,1.2-1.2,2.1-1.7,2.7c-0.3,0.4-0.7,0.8-1.1,1.3h5.5c0.2,0,0.2,0.1,0.2,0.4
						v1c0,0.3-0.1,0.5-0.2,0.5h-2v3.6h3c0.1,0,0.2,0.1,0.2,0.4v1c0,0.3-0.1,0.5-0.2,0.5h-3v8.9c1.2-0.3,2.3-0.6,3.3-1
						c0.1,0,0.1-0.1,0.2-0.1c0.2,0,0.2,0.1,0.2,0.4c0,1-0.1,1.5-0.1,1.6c-2.5,0.7-5.1,1.4-7.7,2c-0.3,0.6-0.5,0.9-0.7,0.9
						c-0.2,0-0.6-0.8-1.1-2.4c1.1-0.2,2.4-0.4,3.9-0.8v-9.5h-3c-0.2,0-0.2-0.1-0.2-0.5v-1c0-0.3,0.1-0.4,0.2-0.4h3v-3.6h-1.9
						c-0.2,0-0.2-0.2-0.2-0.5v-0.5c-0.2,0.2-0.4,0.4-0.6,0.6c-0.2,0-0.4-0.1-0.6-0.3c-0.3-0.2-0.6-0.5-0.8-0.7
						c-0.1-0.1-0.2-0.2-0.2-0.3c0.6-0.6,1.2-1.3,1.8-2c0.8-0.9,1.5-1.9,2.1-3c0.5-1,0.9-1.9,1.2-2.9c0-0.2,0.1-0.3,0.1-0.3
						C1713.6,3270.3,1714.4,3270.8,1714.4,3270.9z M1710.5,3290.1c0.2,0.8,0.5,1.6,0.6,2.4c0,0.1-0.6,0.3-1.8,0.6
						c-0.1-0.6-0.2-1.2-0.5-2.1c-0.2-0.9-0.6-1.8-1-2.8c0-0.1,0.5-0.5,1.6-1C1709.8,3288.4,1710.2,3289.3,1710.5,3290.1z
						 M1717,3287.6c0.2,0.1,0.4,0.3,0.4,0.4c0,0.1-0.1,0.2-0.2,0.3c-0.2,0-0.3,0.1-0.3,0.3c-0.5,1.5-0.9,2.8-1.3,3.6
						c-0.1,0.2-0.2,0.3-0.2,0.3c-0.1,0-0.2,0-0.4-0.2c-0.4-0.2-0.7-0.3-1-0.5c-0.2,0-0.2-0.1-0.2-0.1c0,0,0-0.1,0.1-0.2
						c0.4-0.7,0.7-1.4,0.9-1.9c0.3-0.7,0.5-1.5,0.7-2.2c0-0.2,0.1-0.3,0.2-0.3L1717,3287.6z M1720.4,3269.9c0.2,0.1,0.4,0.2,0.4,0.4
						c0,0.1-0.1,0.2-0.2,0.3c-0.2,0-0.3,0.1-0.3,0.4c-0.1,0.5-0.2,0.9-0.3,1.2h1.5v-2.5c0-0.2,0.2-0.3,0.5-0.3
						c1.3,0,1.9,0.1,1.9,0.3c0,0.3-0.1,0.4-0.2,0.4c-0.2,0-0.2,0.2-0.2,0.6v1.6h2.3c0.2,0,0.2,0.1,0.2,0.4v0.7
						c0,0.3-0.1,0.5-0.2,0.5h-2.3v2h6.1v-2h-1.4c-0.2,0.5-0.3,0.9-0.5,1.3c-0.1,0.2-0.2,0.3-0.2,0.3c-0.1,0-0.3-0.1-0.4-0.2
						c-0.3-0.1-0.7-0.3-0.9-0.4c-0.2-0.1-0.2-0.1-0.2-0.1c0-0.1,0-0.1,0.1-0.2c0.3-0.8,0.6-1.5,0.7-2.1c0.2-0.7,0.4-1.5,0.5-2.3
						c0-0.2,0.1-0.3,0.1-0.3l1.5,0.6c0.3,0.1,0.4,0.2,0.4,0.3c0,0.2-0.1,0.3-0.2,0.3c-0.1,0-0.2,0.1-0.2,0.3
						c-0.1,0.3-0.1,0.6-0.2,0.9h1v-2.7c0-0.2,0.2-0.3,0.5-0.3c1.3,0,1.9,0.1,1.9,0.3c0,0.2-0.1,0.4-0.2,0.4c-0.2,0-0.2,0.2-0.2,0.6
						v1.7h2.8c0.2,0,0.2,0.1,0.2,0.4v0.7c0,0.3-0.1,0.5-0.2,0.5h-2.8v2h3.4c0.2,0,0.2,0.1,0.2,0.4v0.7c0,0.3-0.1,0.5-0.2,0.5h-2.8
						v2.3c0,0.7,0.4,1,1.3,1h0.1c0.3,0,0.5-0.1,0.6-0.3c0.1-0.1,0.2-0.6,0.3-1.4c0-0.1,0.1-0.2,0.1-0.2c0.4,0.3,0.9,0.4,1.5,0.4
						c0.2,0,0.3,0.1,0.3,0.3c-0.2,1.2-0.5,2-0.8,2.3c-0.2,0.3-0.5,0.4-1,0.4h-1.9c-1.5,0-2.2-0.5-2.2-1.5v-3.3h-0.5
						c-0.1,0.8-0.1,1.5-0.2,1.8c-0.2,0.7-0.4,1.3-0.7,1.7c-0.2,0.4-0.6,0.7-0.9,0.9c-0.3,0.3-0.7,0.5-1.2,0.7
						c-0.4-0.4-0.8-0.8-1.1-1.2c0.2-0.1,0.5-0.2,0.8-0.4c0.3-0.3,0.6-0.5,0.8-0.8c0.3-0.4,0.5-0.9,0.6-1.4c0.1-0.3,0.1-0.8,0.2-1.4
						h-3.5v2.2c0.6-0.1,1.2-0.3,1.7-0.5c0,0,0,0,0.1,0c0.1,0,0.1,0.1,0.1,0.3v1.2c-1.4,0.4-2.8,0.8-4.2,1.2
						c-0.2,0.4-0.5,0.6-0.6,0.6c-0.2,0-0.4-0.6-0.9-1.9c0.6-0.1,1.3-0.2,2.1-0.4v-2.6h-1.2c-0.1,0.8-0.2,1.3-0.3,1.7
						c-0.2,0.6-0.5,1.2-0.8,1.6c-0.3,0.3-0.7,0.6-1.1,0.9c-0.4,0.2-0.9,0.5-1.5,0.6c-0.4-0.4-0.8-0.8-1.1-1.2
						c0.3-0.1,0.6-0.2,1.1-0.4c0.4-0.2,0.8-0.5,1.1-0.7c0.3-0.4,0.6-0.8,0.7-1.3c0.1-0.3,0.2-0.7,0.2-1.2h-2c-0.2,0-0.2-0.2-0.2-0.5
						v-0.7c0-0.3,0.1-0.4,0.2-0.4h3.5v-2h-1.9c-0.2,0.5-0.3,0.9-0.5,1.3c-0.1,0.2-0.2,0.3-0.2,0.3c-0.1,0-0.3-0.1-0.4-0.2
						c-0.3-0.1-0.6-0.3-1-0.4c-0.1-0.1-0.2-0.1-0.2-0.1c0-0.1,0-0.1,0.1-0.2c0.4-0.8,0.7-1.6,0.9-2.2c0.3-0.8,0.5-1.6,0.7-2.5
						c0.1-0.3,0.1-0.4,0.2-0.4L1720.4,3269.9z M1732.1,3282.7c0.3,0,0.5,0.1,0.5,0.4v10.5c0,0.2-0.2,0.3-0.5,0.3h-2.6
						c1.2,0.8,2.8,1.7,4.7,2.6c0.2,0.1,0.2,0.1,0.2,0.2c0,0.1-0.1,0.3-0.2,0.4c-0.6,0.6-1,0.9-1.2,0.9c-0.1,0-0.2,0-0.3-0.1
						c-2.3-1.1-4.1-2.2-5.4-3.2c0.4-0.4,0.7-0.6,1-0.9h-5.7c0.9,0.7,1.3,1.2,1.3,1.3c0,0.1-0.1,0.2-0.3,0.2c-0.4,0-0.6,0-0.7,0.2
						c-1.5,0.9-3.1,1.7-4.7,2.3c-0.3,0-0.4-0.1-0.5-0.3c-0.1-0.3-0.4-0.5-0.7-0.8c-0.1-0.2-0.2-0.3-0.2-0.4c0-0.1,0.1-0.2,0.2-0.2
						c0.9-0.3,1.7-0.6,2.4-1c0.7-0.4,1.4-0.8,2.2-1.4h-2.3c-0.3,0-0.5-0.1-0.5-0.3V3283c0-0.3,0.1-0.4,0.5-0.4H1732.1z
						 M1730.6,3285.8v-1.6h-9.6v1.6H1730.6z M1730.6,3289.1v-1.6h-9.6v1.6H1730.6z M1730.6,3290.8h-9.6v1.6h9.6V3290.8z"/>
					<path class="st4" d="M1744.1,3280.3c0.3,0.2,0.5,0.3,0.5,0.5c0,0.4-0.2,0.6-0.4,0.7c-0.3,0-0.6,0.3-0.6,0.8
						c-0.9,3.8-1.8,6.7-2.7,8.8c-0.2,0.5-0.4,0.7-0.5,0.7c-0.2,0-0.4-0.1-0.6-0.2c-0.5-0.2-0.9-0.4-1.3-0.6
						c-0.2-0.1-0.3-0.1-0.3-0.2c0-0.1,0-0.3,0.2-0.5c0.9-1.8,1.5-3.4,1.9-4.8c0.6-1.8,1.1-3.5,1.4-5.3c0.1-0.5,0.2-0.8,0.3-0.8
						L1744.1,3280.3z M1749.5,3276.6c0.3,0.1,0.4,0.1,0.4,0.3c0,0.2-0.1,0.3-0.2,0.3c-0.2,0.1-0.3,0.2-0.3,0.4v15.1
						c0,1,0.6,1.5,1.7,1.5h5.8c1.7,0,2.7-0.3,3.1-0.9c0.4-0.5,0.9-2.3,1.5-5.4c0.3,0.5,0.7,0.9,1.4,1.2c0.3,0.1,0.4,0.3,0.4,0.5
						c-0.8,3.4-1.5,5.2-1.9,5.6c-0.5,0.7-1.4,1.1-2.8,1.1h-7.7c-2.5,0-3.7-0.8-3.7-2.3v-17.3c0-0.3,0-0.4,0.1-0.4L1749.5,3276.6z
						 M1749.2,3269.7c2.3,1.1,4.7,2.4,7.2,4.1c0.2,0.1,0.3,0.3,0.3,0.5c0,0.1,0,0.2-0.1,0.3l-0.7,0.9c-0.2,0.1-0.4,0.2-0.6,0.2
						c-0.2,0-0.4-0.1-0.7-0.4c-2.3-1.5-4.5-2.7-6.7-3.6c-0.4-0.1-0.6-0.3-0.6-0.5c0-0.1,0-0.2,0.1-0.3l0.8-1.1
						c0.1-0.1,0.2-0.1,0.4-0.1C1748.8,3269.5,1749,3269.5,1749.2,3269.7z M1763.4,3282.3c1.3,1.2,2.4,2.4,3.4,3.3
						c0,0-0.1,0.1-0.2,0.3c-0.7,1-1.1,1.5-1.1,1.5c-1.4-1.5-2.9-3-4.5-4.3c-1.3-1-2.4-1.8-3.3-2.3c0-0.1,0.4-0.6,1.1-1.5
						c0.1-0.2,0.2-0.2,0.3-0.2C1760.8,3280.3,1762.3,3281.4,1763.4,3282.3z"/>
					<path class="st4" d="M1783.9,3294.6c-1.5,1.6-3.4,2.4-5.7,2.4c-3.6,0-6.1-1.7-7.4-5.3l2.5-1.1c1,2.6,2.6,3.9,4.9,3.9
						c1.5,0,2.7-0.5,3.7-1.7c1.1-1.2,1.7-2.9,1.7-5c0-4.1-1.5-6.2-4.6-6.2c-2.1,0-3.7,1-4.7,3.1h-2.4v-13.4h13.4v2.5h-10.7v7
						c1-1.2,2.5-1.8,4.4-1.8c2.2,0,4,0.8,5.3,2.4c1.3,1.5,2,3.7,2,6.3C1786.4,3290.6,1785.6,3292.9,1783.9,3294.6z"/>
					<path class="st4" d="M1805.1,3294.6c-1.5,1.6-3.4,2.4-5.7,2.4c-3.6,0-6.1-1.7-7.4-5.3l2.5-1.1c1,2.6,2.6,3.9,4.9,3.9
						c1.5,0,2.7-0.5,3.7-1.7c1.1-1.2,1.7-2.9,1.7-5c0-4.1-1.5-6.2-4.6-6.2c-2.1,0-3.7,1-4.7,3.1h-2.4v-13.4h13.4v2.5h-10.7v7
						c1-1.2,2.5-1.8,4.4-1.8c2.2,0,4,0.8,5.3,2.4c1.3,1.5,2,3.7,2,6.3C1807.6,3290.6,1806.8,3292.9,1805.1,3294.6z"/>
					<path class="st4" d="M1821,3297c-5.5,0-8.3-4.4-8.3-13.1c0-4.2,0.6-7.3,1.8-9.4c1.4-2.3,3.5-3.4,6.4-3.4c2.9,0,5.1,1.2,6.4,3.4
						c1.2,2.1,1.8,5.3,1.8,9.4C1829.3,3292.6,1826.5,3297,1821,3297z M1825.2,3275.7c-0.9-1.5-2.3-2.2-4.1-2.2
						c-1.9,0-3.3,0.7-4.1,2.2c-1,1.7-1.5,4.4-1.5,8.1c0,3.8,0.5,6.6,1.5,8.3c0.9,1.5,2.3,2.3,4.1,2.3c1.9,0,3.2-0.8,4.1-2.3
						c1-1.7,1.5-4.5,1.5-8.3C1826.6,3280.1,1826.1,3277.4,1825.2,3275.7z"/>
					<path class="st4" d="M1842.2,3297c-5.5,0-8.3-4.4-8.3-13.1c0-4.2,0.6-7.3,1.8-9.4c1.4-2.3,3.5-3.4,6.4-3.4
						c2.9,0,5.1,1.2,6.4,3.4c1.2,2.1,1.8,5.3,1.8,9.4C1850.5,3292.6,1847.7,3297,1842.2,3297z M1846.4,3275.7
						c-0.9-1.5-2.3-2.2-4.1-2.2c-1.9,0-3.3,0.7-4.1,2.2c-1,1.7-1.5,4.4-1.5,8.1c0,3.8,0.5,6.6,1.5,8.3c0.9,1.5,2.3,2.3,4.1,2.3
						c1.9,0,3.2-0.8,4.1-2.3c1-1.7,1.5-4.5,1.5-8.3C1847.8,3280.1,1847.3,3277.4,1846.4,3275.7z"/>
					<path class="st4" d="M1886.9,3285.3c-1.6,1.4-3.7,2.1-6.2,2.1c-2,0-4-0.5-6.1-1.6c-1.8-1-3.6-2-5.3-3c-2-1-3.9-1.6-5.6-1.6
						c-1.9,0-3.5,0.5-4.7,1.5c-0.9,0.7-1.7,1.8-2.5,3.3l-2.1-1.2c0.9-1.8,1.9-3.1,3-4c1.6-1.4,3.7-2.1,6.2-2.1c1.9,0,4,0.5,6.1,1.6
						c1.8,1,3.6,2,5.3,3c2,1.1,3.9,1.6,5.6,1.6c1.9,0,3.5-0.5,4.7-1.5c0.8-0.6,1.6-1.8,2.5-3.3l2.1,1.2
						C1888.9,3283.1,1887.9,3284.5,1886.9,3285.3z"/>
					<path class="st4" d="M1908.4,3294.2c-1.6,1.9-3.7,2.8-6.2,2.8c-5.8,0-8.6-4.2-8.6-12.5c0-9,2.9-13.4,8.6-13.4
						c3.6,0,6,1.7,7.3,5l-2.6,0.9c-0.5-1.1-1-1.9-1.6-2.4c-0.8-0.6-1.9-1-3.2-1c-3.6,0-5.6,3.2-5.9,9.6c1.8-1.6,3.8-2.5,6.1-2.5
						c2.6,0,4.6,0.8,6.1,2.3c1.3,1.4,2,3.3,2,5.6C1910.5,3290.7,1909.8,3292.6,1908.4,3294.2z M1906.4,3284.5
						c-1-1.1-2.4-1.6-4.1-1.6c-1.1,0-2.3,0.3-3.5,0.9c-1.2,0.6-2.1,1.4-2.6,2.1c0.2,5.7,2.2,8.5,5.9,8.5c1.7,0,3.1-0.6,4.2-1.9
						c0.9-1.2,1.4-2.5,1.4-4.1C1907.8,3286.9,1907.3,3285.5,1906.4,3284.5z"/>
					<path class="st4" d="M1923.2,3297c-5.5,0-8.3-4.4-8.3-13.1c0-4.2,0.6-7.3,1.8-9.4c1.4-2.3,3.5-3.4,6.4-3.4
						c2.9,0,5.1,1.2,6.4,3.4c1.2,2.1,1.8,5.3,1.8,9.4C1931.5,3292.6,1928.7,3297,1923.2,3297z M1927.3,3275.7
						c-0.9-1.5-2.3-2.2-4.1-2.2c-1.9,0-3.3,0.7-4.1,2.2c-1,1.7-1.5,4.4-1.5,8.1c0,3.8,0.5,6.6,1.5,8.3c0.9,1.5,2.3,2.3,4.1,2.3
						s3.2-0.8,4.1-2.3c1-1.7,1.5-4.5,1.5-8.3C1928.8,3280.1,1928.3,3277.4,1927.3,3275.7z"/>
					<path class="st4" d="M1944.4,3297c-5.5,0-8.3-4.4-8.3-13.1c0-4.2,0.6-7.3,1.8-9.4c1.4-2.3,3.5-3.4,6.4-3.4
						c2.9,0,5.1,1.2,6.4,3.4c1.2,2.1,1.8,5.3,1.8,9.4C1952.7,3292.6,1949.9,3297,1944.4,3297z M1948.5,3275.7
						c-0.9-1.5-2.3-2.2-4.1-2.2c-1.9,0-3.3,0.7-4.1,2.2c-1,1.7-1.5,4.4-1.5,8.1c0,3.8,0.5,6.6,1.5,8.3c0.9,1.5,2.3,2.3,4.1,2.3
						c1.9,0,3.2-0.8,4.1-2.3c1-1.7,1.5-4.5,1.5-8.3C1950,3280.1,1949.5,3277.4,1948.5,3275.7z"/>
					<path class="st4" d="M1965.6,3297c-5.5,0-8.3-4.4-8.3-13.1c0-4.2,0.6-7.3,1.8-9.4c1.4-2.3,3.5-3.4,6.4-3.4
						c2.9,0,5.1,1.2,6.4,3.4c1.2,2.1,1.8,5.3,1.8,9.4C1973.9,3292.6,1971.1,3297,1965.6,3297z M1969.8,3275.7
						c-0.9-1.5-2.3-2.2-4.1-2.2c-1.9,0-3.3,0.7-4.1,2.2c-1,1.7-1.5,4.4-1.5,8.1c0,3.8,0.5,6.6,1.5,8.3c0.9,1.5,2.3,2.3,4.1,2.3
						c1.9,0,3.2-0.8,4.1-2.3c1-1.7,1.5-4.5,1.5-8.3C1971.2,3280.1,1970.7,3277.4,1969.8,3275.7z"/>
					<path class="st4" d="M1986.6,3292.6c-1.1,1.8-2.3,3.4-3.8,4.8l-1.3-1.4c1.3-1.2,2.5-2.7,3.4-4.3c1.3-2.4,2-4.9,2-7.5
						c0-2.6-0.7-5.1-2-7.5c-0.9-1.6-2.1-3.1-3.4-4.3l1.3-1.4c1.5,1.4,2.7,3,3.8,4.8c1.5,2.7,2.3,5.5,2.3,8.4
						C1988.9,3287.1,1988.1,3289.9,1986.6,3292.6z"/>
				</g>
			</g>
			<g>
				<g>
					<path class="st4" d="M1635.4,3392.1v-4.1c0-0.6-0.1-1.1-0.1-1.4c-0.1-0.2-0.1-0.4-0.1-0.6s0.2-0.2,0.6-0.2l2.4,0.3
						c0.2,0.1,0.3,0.2,0.3,0.3c0,0.2-0.1,0.3-0.3,0.3c-0.4,0.2-0.6,0.6-0.6,1.4v4h2.8c0.2,0,0.3,0.1,0.3,0.4v1
						c0,0.3-0.1,0.5-0.3,0.5h-2.8v6.4c1-0.5,1.9-1,2.8-1.5c0-0.1,0.1-0.1,0.2-0.1c0.2,0,0.2,0.1,0.2,0.3c0,1-0.1,1.6-0.1,1.7
						c-1.1,0.6-2,1.2-3,1.8v9.3c0,1.5-1.1,2.2-3.2,2.2l-1.7-0.1c-0.2,0-0.2-0.2-0.2-0.5c-0.1-0.4-0.3-0.9-0.6-1.4
						c0-0.2,0.1-0.2,0.2-0.2c0.7,0.2,1.5,0.4,2.1,0.4c0.9,0,1.3-0.4,1.3-1.1v-7.3c-1,0.6-2,1.1-3,1.5c-0.3,0.6-0.5,0.9-0.7,0.9
						c-0.2,0-0.6-0.8-1.2-2.5c1.3-0.4,2.8-1,4.7-1.9c0.1,0,0.2-0.1,0.2-0.1v-7.4h-3.7c-0.2,0-0.3-0.2-0.3-0.5v-1
						c0-0.3,0.1-0.4,0.3-0.4H1635.4z M1648.8,3400v-2.4c0-0.3,0.1-0.4,0.5-0.4c1.5,0,2.3,0.1,2.3,0.4c0,0.3-0.1,0.4-0.3,0.5
						c-0.2,0-0.3,0.2-0.3,0.6v1.3h7.5c0.3,0,0.4,0.2,0.4,0.5v1c0,0.3-0.1,0.5-0.4,0.5h-7.2c0.9,1.5,1.7,2.6,2.4,3.4
						c0.8,1.1,1.8,2,3,2.9c1,0.7,1.9,1.3,2.9,1.7c0,0.1-0.1,0.2-0.3,0.3c-0.4,0.4-0.7,0.8-1,1.2c-0.1,0.1-0.2,0.2-0.3,0.2
						c-1.5-0.8-2.8-1.7-3.7-2.7c-1.1-1-2-2.1-2.8-3.3c-0.2-0.2-0.4-0.5-0.6-0.8v8.5c0,0.2-0.2,0.4-0.5,0.4h-1.2
						c-0.3,0-0.5-0.1-0.5-0.4v-8.5c-0.3,0.5-0.6,0.9-0.9,1.2c-0.8,1-1.7,2-2.7,2.9c-1.1,1-2.2,1.8-3.3,2.4c-0.2,0-0.4-0.1-0.6-0.2
						c-0.4-0.4-0.8-0.7-1.2-1.1c-0.1-0.1-0.1-0.3-0.1-0.3c1-0.6,1.9-1.1,2.5-1.6c1-0.7,2-1.6,3-2.8c0.6-0.7,1.5-1.9,2.6-3.5h-6.2
						c-0.2,0-0.4-0.2-0.4-0.5v-1c0-0.3,0.1-0.5,0.4-0.5H1648.8z M1656.5,3387.6c-1.1,0.4-2.4,0.7-3.8,1c-1.8,0.3-3.4,0.6-4.8,0.7
						c-1.8,0.2-3.4,0.3-4.8,0.3c-0.4,0-0.6-0.1-0.6-0.4c-0.3-0.4-0.6-0.8-0.9-1.3c0-0.2,0.1-0.4,0.4-0.4h1.8c1.9,0,3.5-0.1,4.8-0.3
						c1.2-0.1,2.4-0.3,3.7-0.6c1.4-0.3,2.6-0.7,3.6-1.2c0.1,0,0.2-0.1,0.3-0.1c0.2,0,0.4,0.1,0.5,0.1c1.2,1,1.8,1.7,1.8,1.9
						c0,0.2-0.1,0.4-0.4,0.4l-0.8-0.4C1656.9,3387.5,1656.7,3387.5,1656.5,3387.6z M1645.5,3393.5c0.3,0.8,0.5,1.6,0.7,2.5
						c0,0.1-0.7,0.3-2,0.6c-0.1-0.6-0.2-1.2-0.5-2c-0.3-0.9-0.6-1.9-1.1-2.8c0-0.2,0.6-0.5,1.7-1.1
						C1644.8,3391.7,1645.2,3392.6,1645.5,3393.5z M1650.7,3393.1c0.2,0.8,0.5,1.6,0.7,2.4c0,0.1-0.7,0.3-2,0.6
						c-0.1-0.5-0.2-1.2-0.5-2c-0.2-0.9-0.6-1.8-1-2.7c0-0.1,0.6-0.5,1.7-1.1C1650,3391.3,1650.4,3392.2,1650.7,3393.1z
						 M1658.3,3391.3c0.2,0.1,0.2,0.3,0.2,0.4c0,0.2-0.1,0.3-0.4,0.3c-0.4,0.1-0.6,0.2-0.6,0.3c-0.6,1.2-1.5,2.7-2.7,4.4
						c-0.3,0-0.5,0-0.5-0.1l-1.5-0.8c0.8-0.8,1.4-1.6,1.9-2.5c0.5-1,0.9-1.9,1.2-2.7c0.1-0.1,0.2-0.2,0.4-0.2L1658.3,3391.3z"/>
					<path class="st4" d="M1686.5,3386.7c0.4,0,0.6,0.2,0.6,0.5v23.1c0,1-0.5,1.7-1.5,2.3c-1,0.4-2.2,0.7-3.7,0.8
						c-0.2,0-0.4-0.1-0.4-0.4c0-0.4-0.2-1.1-0.7-1.9c0-0.1,0.1-0.2,0.3-0.2c1.8,0,2.9-0.1,3.2-0.3c0.4-0.2,0.6-0.6,0.6-1.2v-4.9
						h-7.9v8.1c0,0.2-0.2,0.3-0.5,0.3h-1.2c-0.3,0-0.5-0.1-0.5-0.3v-8.1h-8.2c-0.1,0.3-0.1,0.5-0.1,0.8c-0.3,1.8-0.7,3.5-1.5,5.3
						c-0.4,1.1-1,2.1-1.7,3c-0.2,0-0.2,0-0.3-0.1c-0.3-0.3-0.7-0.6-1.1-0.8c-0.1-0.1-0.2-0.3-0.2-0.4c0.6-0.9,1.2-2.1,1.7-3.6
						c0.5-1.6,0.9-3.3,1.1-5.1c0.2-1.9,0.3-4.1,0.3-6.8v-9.6c0-0.3,0.2-0.5,0.5-0.5H1686.5z M1674.9,3402.5v-6h-7.7v0.2
						c0,2.2-0.1,4.2-0.2,5.8H1674.9z M1674.9,3394.5v-5.9h-7.7v5.9H1674.9z M1677.1,3394.5h7.9v-5.9h-7.9V3394.5z M1685,3402.5v-6
						h-7.9v6H1685z"/>
					<path class="st4" d="M1705.8,3391.3v-5.2c0-0.2,0.2-0.4,0.5-0.4c1.6,0,2.4,0.1,2.4,0.4c0,0.3-0.1,0.4-0.3,0.5
						c-0.2,0-0.3,0.3-0.3,0.6v4.1h10.4c0.4,0,0.6,0.1,0.6,0.4v14c0,0.3-0.2,0.4-0.6,0.4h-1.2c-0.3,0-0.5-0.1-0.5-0.4v-2.3h-8.7v10
						c0,0.2-0.2,0.4-0.6,0.4h-1.2c-0.3,0-0.5-0.1-0.5-0.4v-10h-9.3v2.2c0,0.3-0.2,0.4-0.6,0.4h-1.2c-0.3,0-0.5-0.1-0.5-0.4v-13.8
						c0-0.3,0.2-0.5,0.5-0.5H1705.8z M1705.8,3401.2v-7.7h-9.3v7.7H1705.8z M1708.1,3401.2h8.7v-7.7h-8.7V3401.2z"/>
					<path class="st4" d="M1731.9,3387c0,0.2-0.1,0.3-0.2,0.3c-0.3,0.1-0.6,0.2-0.6,0.3c-0.1,0.1-0.1,0.1-0.1,0.1
						c0.7,1.1,1.3,1.9,1.8,2.4c0.7,0.8,1.6,1.5,2.7,2.2c0,0.2-0.1,0.4-0.2,0.4c-0.3,0.3-0.7,0.6-1.1,1c-0.1,0-0.1,0-0.2-0.1
						c-0.6-0.4-1.2-0.9-1.8-1.5c-0.6-0.7-1.4-1.7-2.2-2.9c-0.8,1.2-1.6,2.2-2.4,2.9c-0.6,0.6-1.7,1.6-3.2,2.7
						c-0.2,0-0.4-0.1-0.5-0.2c-0.3-0.2-0.5-0.4-0.8-0.6c-0.1-0.1-0.2-0.2-0.2-0.3c0.7-0.6,1.5-1.3,2.3-2c1-0.9,1.9-1.9,2.7-3
						c0.6-1,1.2-1.9,1.5-2.9c0-0.1,0.1-0.1,0.1-0.1C1731.2,3386.5,1731.9,3386.9,1731.9,3387z M1733.8,3393.9c0.1,0,0.2,0.1,0.2,0.4
						v1c0,0.3-0.1,0.5-0.2,0.5h-3v3.9h4c0.2,0,0.3,0.1,0.3,0.3v1c0,0.3-0.1,0.5-0.3,0.5h-4v9c1.5-0.2,2.8-0.6,4.2-0.9
						c0.1,0,0.1,0,0.2,0c0.2,0,0.2,0.1,0.2,0.2c0,0.9-0.1,1.3-0.1,1.5c-3.1,0.6-6.3,1.1-9.4,1.5c-0.3,0.5-0.5,0.7-0.6,0.7
						c-0.2,0-0.5-0.7-1-2.1c1.3-0.1,2.8-0.3,4.5-0.6v-9.4h-4.2c-0.2,0-0.3-0.2-0.3-0.5v-1c0-0.2,0.1-0.3,0.3-0.3h4.2v-3.9h-2.5
						c-0.2,0-0.2-0.2-0.2-0.5v-1c0-0.2,0.1-0.4,0.2-0.4H1733.8z M1727.2,3406.4c0.2,0.7,0.4,1.4,0.6,2.2c0,0.1-0.6,0.3-1.8,0.6
						c-0.1-0.5-0.3-1.1-0.4-1.8c-0.2-0.8-0.5-1.7-0.9-2.5c0-0.1,0.5-0.4,1.5-1C1726.6,3404.9,1727,3405.7,1727.2,3406.4z
						 M1735,3404.4c0.1,0.1,0.2,0.2,0.2,0.3c0,0.1-0.1,0.2-0.2,0.2c-0.2,0-0.3,0.1-0.3,0.2c-0.3,0.9-0.7,2-1.3,3.3
						c-0.3,0-0.4,0-0.4-0.1l-1.2-0.7c0.3-0.6,0.6-1.2,0.8-1.9c0.2-0.7,0.4-1.4,0.6-2c0-0.1,0.1-0.2,0.2-0.2L1735,3404.4z
						 M1750.6,3386.8c0.4,0,0.6,0.2,0.6,0.5v23.4c0,1-0.4,1.8-1.1,2.3c-0.7,0.4-1.6,0.7-2.8,0.8c-0.2,0-0.4-0.1-0.4-0.3
						c0-0.4-0.2-1.1-0.7-1.9c0-0.1,0.1-0.2,0.2-0.2c1.3,0,2-0.1,2.3-0.3c0.3-0.2,0.4-0.6,0.4-1.2v-21.4H1738v24.5
						c0,0.3-0.2,0.4-0.5,0.4h-1.2c-0.2,0-0.4-0.1-0.4-0.4v-26c0-0.2,0.1-0.3,0.4-0.3H1750.6z M1748.2,3395.9c0.2,0,0.2,0.1,0.2,0.3
						v1c0,0.3-0.1,0.4-0.2,0.4h-3.7v9.3h1.5v-7.2c0-0.2,0.2-0.3,0.5-0.3c1.3,0,1.9,0.1,1.9,0.3c0,0.2-0.1,0.4-0.2,0.4
						c-0.2,0-0.2,0.2-0.2,0.6v8.8c0,0.3-0.2,0.4-0.5,0.4h-1c-0.3,0-0.5-0.1-0.5-0.4v-0.8h-4.9v2.2c0,0.3-0.2,0.4-0.5,0.4h-1
						c-0.3,0-0.5-0.1-0.5-0.4v-11c0-0.2,0.2-0.3,0.5-0.3c1.3,0,1.9,0.1,1.9,0.3c0,0.2-0.1,0.4-0.3,0.4c-0.2,0-0.2,0.2-0.2,0.6v6.2
						h1.6v-9.3h-3.7c-0.2,0-0.2-0.1-0.2-0.4v-1c0-0.2,0.1-0.3,0.2-0.3H1748.2z M1742,3392.5c0.3,0.6,0.6,1.3,0.9,2
						c0,0.1-0.6,0.3-1.8,0.6c-0.1-0.4-0.3-1-0.6-1.7c-0.4-0.7-0.8-1.5-1.4-2.3c0-0.1,0.5-0.4,1.6-1
						C1741.2,3391,1741.7,3391.8,1742,3392.5z M1748.2,3391c0.2,0.1,0.2,0.3,0.2,0.3c0,0.1-0.1,0.2-0.2,0.2c-0.2,0-0.3,0.1-0.4,0.3
						c-0.3,0.9-0.9,1.9-1.6,3.2c-0.3,0-0.4,0-0.5-0.1l-1.4-0.8c0.4-0.6,0.7-1.2,1-1.8c0.2-0.7,0.5-1.4,0.6-2c0-0.1,0.1-0.2,0.2-0.2
						L1748.2,3391z"/>
					<path class="st4" d="M1762.8,3387c0,0.2-0.1,0.3-0.2,0.3c-0.3,0.1-0.6,0.2-0.6,0.3c-0.1,0.1-0.1,0.1-0.1,0.1
						c0.7,1.1,1.3,1.9,1.8,2.4c0.7,0.8,1.6,1.5,2.7,2.2c0,0.2-0.1,0.4-0.2,0.4c-0.3,0.3-0.7,0.6-1.1,1c-0.1,0-0.1,0-0.2-0.1
						c-0.6-0.4-1.2-0.9-1.8-1.5c-0.6-0.7-1.4-1.7-2.2-2.9c-0.8,1.2-1.6,2.2-2.4,2.9c-0.6,0.6-1.7,1.6-3.2,2.7
						c-0.2,0-0.4-0.1-0.5-0.2c-0.3-0.2-0.5-0.4-0.8-0.6c-0.1-0.1-0.2-0.2-0.2-0.3c0.7-0.6,1.5-1.3,2.3-2c1-0.9,1.9-1.9,2.7-3
						c0.6-1,1.2-1.9,1.5-2.9c0-0.1,0.1-0.1,0.1-0.1C1762.1,3386.5,1762.8,3386.9,1762.8,3387z M1764.7,3393.9c0.1,0,0.2,0.1,0.2,0.4
						v1c0,0.3-0.1,0.5-0.2,0.5h-3v3.9h4c0.2,0,0.3,0.1,0.3,0.3v1c0,0.3-0.1,0.5-0.3,0.5h-4v9c1.5-0.2,2.8-0.6,4.2-0.9
						c0.1,0,0.1,0,0.2,0c0.2,0,0.2,0.1,0.2,0.2c0,0.9-0.1,1.3-0.1,1.5c-3.1,0.6-6.3,1.1-9.4,1.5c-0.3,0.5-0.5,0.7-0.6,0.7
						c-0.2,0-0.5-0.7-1-2.1c1.3-0.1,2.8-0.3,4.5-0.6v-9.4h-4.2c-0.2,0-0.3-0.2-0.3-0.5v-1c0-0.2,0.1-0.3,0.3-0.3h4.2v-3.9h-2.5
						c-0.2,0-0.2-0.2-0.2-0.5v-1c0-0.2,0.1-0.4,0.2-0.4H1764.7z M1758.1,3406.4c0.2,0.7,0.4,1.4,0.6,2.2c0,0.1-0.6,0.3-1.8,0.6
						c-0.1-0.5-0.3-1.1-0.4-1.8c-0.2-0.8-0.5-1.7-0.9-2.5c0-0.1,0.5-0.4,1.5-1C1757.5,3404.9,1757.9,3405.7,1758.1,3406.4z
						 M1765.9,3404.4c0.1,0.1,0.2,0.2,0.2,0.3c0,0.1-0.1,0.2-0.2,0.2c-0.2,0-0.3,0.1-0.3,0.2c-0.3,0.9-0.7,2-1.3,3.3
						c-0.3,0-0.4,0-0.4-0.1l-1.2-0.7c0.3-0.6,0.6-1.2,0.8-1.9c0.2-0.7,0.4-1.4,0.6-2c0-0.1,0.1-0.2,0.2-0.2L1765.9,3404.4z
						 M1781.6,3386.8c0.4,0,0.6,0.2,0.6,0.5v23.4c0,1-0.4,1.8-1.1,2.3c-0.7,0.4-1.6,0.7-2.7,0.8c-0.3,0-0.4-0.1-0.4-0.3
						c0-0.4-0.2-1.1-0.7-1.9c0-0.1,0.1-0.2,0.2-0.2c1.3,0,2-0.1,2.3-0.3c0.3-0.2,0.4-0.6,0.4-1.2v-21.4h-11.3v24.5
						c0,0.3-0.2,0.4-0.5,0.4h-1.2c-0.2,0-0.4-0.1-0.4-0.4v-26c0-0.2,0.1-0.3,0.4-0.3H1781.6z M1779.1,3395.9c0.1,0,0.2,0.1,0.2,0.3
						v1c0,0.3-0.1,0.4-0.2,0.4h-3.7v9.3h1.5v-7.2c0-0.2,0.2-0.3,0.5-0.3c1.3,0,1.9,0.1,1.9,0.3c0,0.2-0.1,0.4-0.2,0.4
						c-0.2,0-0.2,0.2-0.2,0.6v8.8c0,0.3-0.2,0.4-0.5,0.4h-1c-0.3,0-0.5-0.1-0.5-0.4v-0.8h-5v2.2c0,0.3-0.2,0.4-0.5,0.4h-1
						c-0.3,0-0.5-0.1-0.5-0.4v-11c0-0.2,0.2-0.3,0.5-0.3c1.3,0,1.9,0.1,1.9,0.3c0,0.2-0.1,0.4-0.3,0.4c-0.2,0-0.2,0.2-0.2,0.6v6.2
						h1.6v-9.3h-3.7c-0.2,0-0.2-0.1-0.2-0.4v-1c0-0.2,0.1-0.3,0.2-0.3H1779.1z M1773,3392.5c0.3,0.6,0.6,1.3,0.9,2
						c0,0.1-0.6,0.3-1.8,0.6c-0.1-0.4-0.3-1-0.7-1.7c-0.4-0.7-0.8-1.5-1.4-2.3c0-0.1,0.5-0.4,1.6-1
						C1772.1,3391,1772.6,3391.8,1773,3392.5z M1779.1,3391c0.1,0.1,0.2,0.3,0.2,0.3c0,0.1-0.1,0.2-0.2,0.2c-0.2,0-0.3,0.1-0.4,0.3
						c-0.3,0.9-0.9,1.9-1.6,3.2c-0.3,0-0.4,0-0.5-0.1l-1.4-0.8c0.4-0.6,0.7-1.2,1-1.8c0.2-0.7,0.5-1.4,0.6-2c0-0.1,0.1-0.2,0.2-0.2
						L1779.1,3391z"/>
					<path class="st4" d="M1791.6,3391.4v-5.3c0-0.2,0.2-0.4,0.5-0.4c1.5,0,2.3,0.1,2.3,0.4c0,0.3-0.1,0.4-0.3,0.5
						c-0.2,0-0.3,0.3-0.3,0.6v4.2h4c0.2,0,0.4,0.2,0.4,0.5v1c0,0.3-0.1,0.5-0.4,0.5h-3.7c0.6,1.6,1.2,2.8,1.8,3.7
						c0.6,1.2,1.8,2.6,3.4,4.1c0.2,0.1,0.3,0.3,0.3,0.4c0,0.1-0.1,0.2-0.2,0.3c-0.2,0.3-0.6,0.6-1,1c-0.1,0.2-0.3,0.3-0.3,0.3
						c-0.1,0-0.3-0.1-0.5-0.3c-1.1-1.2-2-2.5-2.8-4c-0.3-0.6-0.6-1.2-0.9-1.9v16.2c0,0.2-0.2,0.4-0.5,0.4h-1.2
						c-0.3,0-0.5-0.1-0.5-0.4v-14.8c-0.1,0.2-0.1,0.5-0.2,0.7c-0.6,1.9-1.3,3.5-1.9,5c-0.7,1.5-1.5,3-2.4,4.3
						c-0.2,0-0.4-0.1-0.5-0.2c-0.5-0.2-0.9-0.4-1.4-0.6c-0.2,0-0.3,0-0.3-0.1c1.2-1.7,2.2-3.4,2.9-5c0.7-1.5,1.3-3,1.8-4.5
						c0.3-1,0.7-2.5,1.2-4.7h-4.8c-0.2,0-0.4-0.2-0.4-0.5v-1c0-0.3,0.1-0.5,0.4-0.5H1791.6z M1807.8,3391.5v-3.9
						c0-0.6-0.1-1.1-0.1-1.4c-0.1-0.2-0.1-0.4-0.1-0.6c0-0.1,0.2-0.2,0.6-0.2l2.4,0.3c0.2,0.1,0.4,0.2,0.4,0.3
						c0,0.2-0.1,0.3-0.4,0.3c-0.4,0.2-0.6,0.6-0.6,1.4v3.7h3.5c0.2,0,0.3,0.2,0.3,0.5v1c0,0.3-0.1,0.5-0.3,0.5h-3.5v17.8
						c0,1.4-1.1,2.2-3.2,2.2h-2.3c-0.2,0-0.3-0.2-0.3-0.5c-0.1-0.4-0.3-0.9-0.6-1.4c0-0.1,0.1-0.2,0.2-0.2c1,0.1,1.9,0.2,2.7,0.2
						c0.9,0,1.3-0.4,1.3-1.1V3397c-0.6,1.1-1,2.1-1.5,2.9c-0.9,1.7-1.9,3.2-3,4.6c-1.2,1.5-2.5,2.9-3.7,3.9c-0.2,0-0.4-0.1-0.5-0.2
						c-0.4-0.4-0.8-0.7-1.2-1c-0.1-0.1-0.1-0.3-0.1-0.3c1.1-0.9,2.1-1.8,2.8-2.6c1.1-1.1,2.2-2.6,3.4-4.6c0.7-1.2,1.8-3.3,3.1-6.2
						h-6.8c-0.2,0-0.4-0.2-0.4-0.5v-1c0-0.3,0.1-0.5,0.4-0.5H1807.8z"/>
					<path class="st4" d="M1820.2,3391.8c0,0.2-0.1,0.4-0.3,0.5c-0.2,0.2-0.4,0.4-0.4,0.6c-0.2,1.9-0.4,3.5-0.7,4.8
						c-0.2,0.7-0.4,1.4-0.7,2.1c-0.1,0.2-0.2,0.2-0.2,0.2c-0.7-0.2-1.3-0.3-1.8-0.4c-0.2,0-0.3-0.1-0.3-0.3c0.4-0.9,0.8-2,1.1-3.1
						c0.3-1.1,0.6-2.7,0.7-4.8c0-0.2,0.1-0.3,0.3-0.3C1819.4,3391.3,1820.2,3391.6,1820.2,3391.8z M1827.5,3390.3
						c0.3,0.1,0.4,0.3,0.4,0.4c0,0.2-0.1,0.3-0.3,0.3c-0.3,0-0.4,0.1-0.5,0.4c-0.7,1.8-1.5,3.2-2.2,4.2c-0.2,0.2-0.3,0.3-0.4,0.3
						c-0.2,0-0.3-0.1-0.5-0.2c-0.3-0.1-0.6-0.3-0.9-0.4c-0.1,2.1-0.2,3.9-0.4,5.2c-0.1,0.6-0.1,1.2-0.2,1.7c0.4,1.3,0.8,2.4,1.3,3.4
						c0.7,1.6,1.7,3.2,2.9,4.7c0.1,0.1,0.1,0.2,0.1,0.3c0,0.2-0.6,0.5-1.7,1c-0.2,0-0.3-0.1-0.3-0.2c-1.5-2-2.5-3.6-3.1-5
						c-0.1-0.1-0.1-0.2-0.1-0.2c-0.2,0.9-0.5,1.8-0.8,2.5c-0.6,1.6-1.4,3.1-2.2,4.5h-0.3c-0.7-0.2-1.3-0.4-1.9-0.6
						c-0.1-0.1-0.1-0.2-0.1-0.3c1.1-1.4,2-2.9,2.7-4.5c0.7-1.6,1.3-3.7,1.6-6.2c0.4-2.6,0.7-7.1,0.7-13.3c0-0.4-0.1-1.3-0.1-2.4
						c0-0.1,0.1-0.2,0.3-0.2l2.2,0.2c0.3,0.1,0.4,0.2,0.4,0.3c0,0.3-0.1,0.4-0.3,0.5c-0.4,0.1-0.6,0.3-0.6,0.7c0,2.7,0,5.2-0.1,7.2
						c0.5-0.7,0.9-1.3,1.1-1.8c0.5-0.9,0.8-1.7,1.1-2.6c0.1-0.2,0.2-0.4,0.3-0.4L1827.5,3390.3z M1842.9,3399.4
						c0.2,0,0.3,0.2,0.3,0.5v1c0,0.3-0.1,0.5-0.3,0.5h-6.1v3.9h7.1c0.2,0,0.4,0.2,0.4,0.5v1c0,0.3-0.1,0.5-0.4,0.5h-7.1v6
						c0,0.3-0.2,0.4-0.5,0.4h-1.2c-0.3,0-0.5-0.1-0.5-0.4v-6h-7.9c-0.2,0-0.3-0.1-0.3-0.5v-1c0-0.3,0.1-0.5,0.3-0.5h7.9v-3.9h-6.4
						c-0.3,0-0.4-0.2-0.4-0.5v-1c0-0.3,0.1-0.5,0.4-0.5H1842.9z M1841.8,3386.4c0.3,0,0.5,0.1,0.5,0.4v10c0,0.2-0.1,0.3-0.5,0.3
						h-12.6c-0.3,0-0.5-0.1-0.5-0.3v-10c0-0.2,0.2-0.4,0.5-0.4H1841.8z M1840.1,3390.8v-2.4h-9.2v2.4H1840.1z M1840.1,3392.7h-9.2
						v2.5h9.2V3392.7z"/>
					<path class="st4" d="M1855.8,3386.6c0.1,0.2,0.2,0.3,0.2,0.3c0,0.2-0.2,0.3-0.5,0.3c-0.5,0-0.8,0.1-0.9,0.3
						c-1,1.8-2,3.5-2.9,4.9c0.7,0.7,1.4,1.3,2.1,2c0.1-0.1,0.2-0.2,0.2-0.4c1.2-1.6,2.2-3.1,3-4.5c1.4,1.2,2.2,1.8,2.2,1.9
						c0,0.2-0.1,0.2-0.4,0.2c-0.5,0-0.8,0.1-0.9,0.3c-1.8,2.7-3.6,5.1-5.3,7.3c1.4-0.1,3.1-0.2,5.1-0.3c-0.3-0.8-0.7-1.6-1.1-2.4
						c0-0.1,0.5-0.4,1.6-1c0.6,1.2,1.1,2.2,1.5,3.2c0.4,0.9,0.7,1.8,0.9,2.8c0,0.1-0.6,0.3-1.8,0.6c-0.1-0.6-0.3-1.2-0.6-2l-3.6,0.6
						v12.3c0,0.3-0.2,0.4-0.5,0.4h-1.2c-0.3,0-0.5-0.1-0.5-0.4v-11.9l-4.1,0.7c-0.5,0.6-0.8,0.8-0.9,0.8c-0.1,0-0.3-1-0.6-2.9
						c0-0.1,1-0.2,3.2-0.4c1.1-1.4,2-2.7,2.8-3.7c-1.1-0.9-2-1.6-2.6-2c-0.9-0.6-1.9-1.1-2.8-1.6c0-0.2,0.4-0.7,1.3-1.6
						c0.1-0.1,0.2-0.2,0.3-0.2c0.4,0.3,0.8,0.6,1.2,0.9c0.6-0.9,1.1-1.8,1.6-2.6c0.8-1.5,1.4-2.6,1.7-3.3L1855.8,3386.6z
						 M1851,3404.1c0,0.2-0.1,0.4-0.3,0.5c-0.2,0.2-0.3,0.3-0.3,0.5c-0.2,1.8-0.4,3.2-0.7,4.3c-0.2,0.6-0.4,1.3-0.6,1.9
						c-0.1,0.1-0.2,0.2-0.2,0.2c-0.7-0.2-1.3-0.4-1.8-0.4c-0.2-0.1-0.3-0.2-0.3-0.3c0.4-0.8,0.7-1.8,1-2.8c0.3-1,0.5-2.4,0.6-4.4
						c0-0.2,0.1-0.3,0.3-0.3C1850.2,3403.7,1851,3403.9,1851,3404.1z M1857.6,3403.5c0.6,1.1,1.2,2.9,1.9,5.3c0,0.2-0.6,0.4-1.7,0.5
						c-0.3,0-0.4-0.1-0.4-0.2c-0.3-1.7-0.8-3.5-1.4-5.4c0-0.1,0.5-0.3,1.4-0.5C1857.6,3403.2,1857.6,3403.3,1857.6,3403.5z
						 M1872.9,3386.8c0.3,0,0.5,0.1,0.5,0.3v23.6h2.3c0.2,0,0.4,0.2,0.4,0.5v1c0,0.3-0.1,0.5-0.4,0.5h-16.6c-0.2,0-0.4-0.2-0.4-0.5
						v-1c0-0.3,0.1-0.5,0.4-0.5h2.7v-23.4c0-0.3,0.2-0.5,0.5-0.5H1872.9z M1871.2,3394.4v-5.7h-7.3v5.7H1871.2z M1871.2,3402.4v-6
						h-7.3v6H1871.2z M1871.2,3410.7v-6.4h-7.3v6.4H1871.2z"/>
				</g>
			</g>
			<g>
				<rect x="1423.1" y="3283.4" class="st4" width="195.4" height="2"/>
				<g>
					<path class="st4" d="M1423.4,3289.7c-2.9,0-5.3-2.4-5.3-5.3c0-2.9,2.4-5.3,5.3-5.3c2.9,0,5.3,2.4,5.3,5.3
						C1428.7,3287.3,1426.3,3289.7,1423.4,3289.7z"/>
				</g>
			</g>
			<g>
				<rect x="1396.1" y="3399.6" class="st4" width="220.8" height="2"/>
				<g>
					<circle class="st4" cx="1396.3" cy="3400.6" r="5.3"/>
				</g>
			</g>
		</g>
	</g>
</g>
</svg>
