<?xml version="1.0" encoding="utf-8"?>
<!-- Generator: Adobe Illustrator 23.1.1, SVG Export Plug-In . SVG Version: 6.00 Build 0)  -->
<svg version="1.1" id="圖層_1" xmlns="http://www.w3.org/2000/svg" xmlns:xlink="http://www.w3.org/1999/xlink" x="0px" y="0px"
	 viewBox="0 0 26 260" style="enable-background:new 0 0 26 260;" xml:space="preserve">
<style type="text/css">
	.st0{fill:#FFFFFF;}
	.st1{fill:#137388;}
	.st2{fill:#FFFFFF;stroke:#FFFFFF;stroke-width:0.2351;stroke-linejoin:round;stroke-miterlimit:10;}
	.st3{fill:none;stroke:#FFFFFF;stroke-width:0.3392;stroke-miterlimit:10;}
	.st4{fill:none;stroke:#FFFFFF;stroke-width:0.1938;stroke-miterlimit:10;}
	.st5{fill:none;stroke:#FFFFFF;stroke-width:0.2022;stroke-linecap:round;stroke-linejoin:round;stroke-miterlimit:9.9999;}
	.st6{fill:none;stroke:#FFFFFF;stroke-width:0.2022;stroke-linecap:round;stroke-linejoin:round;stroke-miterlimit:10;}
	.st7{fill:none;stroke:#FFFFFF;stroke-width:0.1;stroke-linecap:round;stroke-linejoin:round;stroke-miterlimit:10;}
	.st8{fill:#FFFFFF;stroke:#FFFFFF;stroke-width:0.15;stroke-linejoin:round;stroke-miterlimit:10;}
	.st9{fill:#FFFFFF;stroke:#FFFFFF;stroke-width:5.000000e-02;stroke-linejoin:round;stroke-miterlimit:10;}
	
		.st10{fill-rule:evenodd;clip-rule:evenodd;fill:#FFFFFF;stroke:#FFFFFF;stroke-width:0.1598;stroke-linecap:round;stroke-linejoin:round;stroke-miterlimit:10;}
	.st11{fill:#FFFFFF;stroke:#FFFFFF;stroke-width:0.15;stroke-linecap:round;stroke-linejoin:round;stroke-miterlimit:10;}
	.st12{fill:none;stroke:#FFFFFF;stroke-width:0.358;stroke-linecap:round;stroke-linejoin:round;stroke-miterlimit:10;}
	.st13{fill:none;stroke:#FFFFFF;stroke-width:0.3;stroke-linecap:round;stroke-linejoin:round;stroke-miterlimit:10;}
	.st14{fill:#FFFFFF;stroke:#FFFFFF;stroke-width:0.15;stroke-miterlimit:10;}
	.st15{fill:#FFFFFF;stroke:#FFFFFF;stroke-width:0.25;stroke-miterlimit:10;}
	.st16{fill-rule:evenodd;clip-rule:evenodd;fill:#FFFFFF;}
	.st17{fill:none;stroke:#FFFFFF;stroke-width:0.25;stroke-miterlimit:10;}
</style>
<g>
	<g>
		<g>
			<path class="st0" d="M26,247c0,7.2-5.8,13-13,13s-13-5.8-13-13c0-7.2,5.8-13,13-13S26,239.7,26,247z"/>
			<path class="st1" d="M25.4,247c0,6.8-5.5,12.4-12.4,12.4c-6.8,0-12.4-5.5-12.4-12.4c0-6.8,5.5-12.4,12.4-12.4
				C19.8,234.6,25.4,240.1,25.4,247z"/>
		</g>
		<g id="XMLID_33_">
			<g id="XMLID_39_">
				<path class="st2" d="M6.5,254.4C6.5,254.4,6.4,254.4,6.5,254.4c-0.1,0-0.1-0.1-0.1-0.1l-0.1-1.8H5.2c-0.4,0-0.9-0.4-0.9-0.9
					v-7.1c0-0.4,0.4-0.9,0.9-0.9H16c0.4,0,0.9,0.4,0.9,0.9v7.1c0,0.4-0.4,0.9-0.9,0.9H9.4L8,253.4L6.5,254.4L6.5,254.4z M5.2,243.9
					c-0.3,0-0.6,0.2-0.6,0.6v7.1c0,0.3,0.2,0.6,0.6,0.6h1.1c0.1,0,0.1,0.1,0.1,0.1l0.1,1.7l1.2-0.9l1.4-1c0,0,0,0,0.1,0H16
					c0.3,0,0.6-0.2,0.6-0.6v-7.1c0-0.3-0.2-0.6-0.6-0.6H5.2V243.9z"/>
			</g>
			<g id="XMLID_38_">
				<path class="st2" d="M13.8,245.9H7.5c-0.1,0-0.1-0.1-0.1-0.1l0.1-0.1h6.4c0.1,0,0.1,0.1,0.1,0.1S13.9,245.9,13.8,245.9z"/>
			</g>
			<g id="XMLID_37_">
				<path class="st2" d="M10.7,247.4H7.5c-0.1,0-0.1-0.1-0.1-0.1c0-0.1,0.1-0.1,0.1-0.1h3.2c0.1,0,0.1,0.1,0.1,0.1
					C10.8,247.4,10.7,247.4,10.7,247.4z"/>
			</g>
			<g id="XMLID_36_">
				<path class="st2" d="M12,249.1H7.5c-0.1,0-0.1-0.1-0.1-0.1c0-0.1,0.1-0.1,0.1-0.1H12c0.1,0,0.1,0.1,0.1,0.1
					C12.1,249,12.1,249.1,12,249.1z"/>
			</g>
			<g id="XMLID_35_">
				<path class="st2" d="M13.8,250.6H7.5c-0.1,0-0.1-0.1-0.1-0.1c0-0.1,0.1-0.1,0.1-0.1h6.4c0.1,0,0.1,0.1,0.1,0.1
					C14,250.5,13.9,250.6,13.8,250.6z"/>
			</g>
			<g id="XMLID_34_">
				<path class="st2" d="M19.5,251.4L19.5,251.4l-1.5-1l-1.3-0.9l-0.1-0.1v-4.8c0-0.3-0.2-0.6-0.6-0.6H9.3c-0.1,0-0.1-0.1-0.1-0.1
					v-2.3c0-0.4,0.4-0.9,0.9-0.9h10.8c0.4,0,0.9,0.4,0.9,0.9v7.1c0,0.4-0.4,0.9-0.9,0.9h-1l-0.1,1.8
					C19.7,251.3,19.6,251.3,19.5,251.4C19.6,251.4,19.5,251.4,19.5,251.4z M16.9,249.3l1.2,0.9l1.2,0.9l0.1-1.7
					c0-0.1,0.1-0.1,0.1-0.1h1.1c0.3,0,0.6-0.2,0.6-0.6v-7.1c0-0.3-0.2-0.6-0.6-0.6H10c-0.3,0-0.6,0.2-0.6,0.6v2.1h6.6
					c0.4,0,0.9,0.4,0.9,0.9v4.6H16.9z"/>
			</g>
		</g>
	</g>
	<g>
		<g>
			<path class="st0" d="M26,143c0,7.2-5.8,13-13,13s-13-5.8-13-13c0-7.2,5.8-13,13-13S26,135.7,26,143z"/>
			<path class="st1" d="M25.4,143c0,6.8-5.5,12.4-12.4,12.4c-6.8,0-12.4-5.5-12.4-12.4c0-6.8,5.5-12.4,12.4-12.4
				C19.8,130.6,25.4,136.1,25.4,143z"/>
		</g>
		<g>
			<g>
				<path class="st3" d="M5,149.8h14.8v-14.8L5,149.8z M17,147.1h-5.5l5.5-5.5V147.1z"/>
				<g>
					<line class="st4" x1="6.7" y1="148.8" x2="6.7" y2="149.8"/>
					<line class="st4" x1="7.7" y1="148.8" x2="7.7" y2="149.8"/>
					<line class="st4" x1="8.6" y1="148.8" x2="8.6" y2="149.8"/>
					<line class="st4" x1="9.6" y1="148.8" x2="9.6" y2="149.8"/>
					<line class="st4" x1="10.5" y1="148.8" x2="10.5" y2="149.8"/>
					<line class="st4" x1="11.3" y1="148.8" x2="11.3" y2="149.8"/>
					<line class="st4" x1="12.3" y1="148.8" x2="12.3" y2="149.8"/>
					<line class="st4" x1="13.2" y1="148.8" x2="13.2" y2="149.8"/>
					<line class="st4" x1="14.2" y1="148.8" x2="14.2" y2="149.8"/>
					<line class="st4" x1="15.1" y1="148.8" x2="15.1" y2="149.8"/>
					<line class="st4" x1="16" y1="148.8" x2="16" y2="149.8"/>
					<line class="st4" x1="17" y1="148.8" x2="17" y2="149.8"/>
					<line class="st4" x1="17.8" y1="148.8" x2="17.8" y2="149.8"/>
					<line class="st4" x1="18.8" y1="148.8" x2="18.8" y2="149.8"/>
				</g>
			</g>
			<g>
				
					<rect x="3.8" y="140.4" transform="matrix(0.7069 -0.7073 0.7073 0.7069 -97.137 47.7269)" class="st5" width="10.5" height="1.4"/>
				
					<rect x="12.6" y="136.4" transform="matrix(0.7074 -0.7068 0.7068 0.7074 -93.106 49.2811)" class="st5" width="0.8" height="1.4"/>
				<path class="st6" d="M13.7,137.3l0.3-0.3c0.2-0.2,0.2-0.7,0-1c-0.2-0.2-0.7-0.2-1,0l-0.3,0.3L13.7,137.3z"/>
				<polygon class="st6" points="4.8,144.2 5.8,145.2 4.2,145.9 				"/>
				<polygon class="st6" points="4.5,145.1 4.2,145.9 5,145.5 				"/>
				<g>
					<line class="st7" x1="12.7" y1="137.4" x2="5.3" y2="144.8"/>
				</g>
			</g>
		</g>
	</g>
	<g>
		<g>
			<path class="st0" d="M26,39c0,7.2-5.8,13-13,13S0,46.2,0,39s5.8-13,13-13S26,31.8,26,39z"/>
			<path class="st1" d="M25.4,39c0,6.8-5.5,12.4-12.4,12.4C6.2,51.4,0.6,45.9,0.6,39c0-6.8,5.5-12.4,12.4-12.4
				C19.8,26.6,25.4,32.2,25.4,39z"/>
		</g>
		<g>
			<g>
				<g>
					<g>
						<path class="st8" d="M14.9,46.6h-3.7c-0.1,0-0.3-0.1-0.3-0.3v-0.1c0.3-0.7,0.6-1.1,0.7-1.7c0.1-0.6,0.1-1,0-1.4
							c-0.9-0.3-1.8-0.9-2.3-1.5c-0.7-0.8-1-1.7-1.1-2.6c-0.6-0.2-1-0.6-1.4-1c-0.4-0.6-0.7-1.1-0.7-1.8v-3.3c0-0.1,0.1-0.3,0.3-0.3
							h1.7v-1.2C7.9,31.2,8,31,8.3,31h9.4c0.1,0,0.3,0.1,0.3,0.3v1.2h1.7c0.1,0,0.3,0.1,0.3,0.3v3.3c0,0.7-0.2,1.3-0.7,1.8
							c-0.3,0.4-0.9,0.8-1.4,1c-0.1,1-0.4,1.9-1.1,2.6c-0.7,0.8-1.4,1.3-2.3,1.5c-0.1,0.4-0.1,1,0,1.5c0.1,0.6,0.3,1,0.7,1.7
							c0,0.1,0,0.1,0,0.2c0,0.1-0.1,0.1-0.1,0.1C15,46.6,14.9,46.6,14.9,46.6z M6.4,32.8V36c0,0.6,0.2,1.1,0.6,1.7
							c0.3,0.4,0.8,0.8,1.3,0.9c0.1,0,0.1,0.1,0.1,0.1c0.1,0.9,0.4,1.8,1.1,2.5s1.4,1.2,2.3,1.5l0.1,0.1c0.1,0.6,0.1,1.1,0,1.7
							c-0.1,0.6-0.3,1.1-0.7,1.8H15c-0.3-0.7-0.6-1.2-0.7-1.7c-0.1-0.6-0.1-1.2,0-1.8c0,0,0-0.1,0.1-0.1c0.9-0.2,1.7-0.8,2.3-1.5
							c0.6-0.8,1-1.7,1.1-2.5c0-0.1,0-0.1,0.1-0.1c0.6-0.1,1-0.4,1.3-0.9c0.3-0.4,0.6-1,0.6-1.7v-3.2h-1.8c-0.1,0-0.1-0.1-0.1-0.1
							v-1.4H8.6v1.3c0,0.1-0.1,0.1-0.1,0.1H6.4V32.8z M17.8,37.7C17.7,37.7,17.7,37.7,17.8,37.7c-0.1,0-0.1-0.1-0.1-0.1v-3.9
							c0-0.1,0.1-0.1,0.1-0.1h0.9c0.1,0,0.1,0.1,0.1,0.1v2.2c0,0.4-0.1,0.8-0.3,1.1C18.4,37.3,18.2,37.6,17.8,37.7L17.8,37.7z
							 M18,33.8v3.4c0.1-0.1,0.3-0.2,0.4-0.4c0.2-0.3,0.3-0.6,0.3-1v-2.1H18V33.8z M8.2,37.7L8.2,37.7c-0.3-0.2-0.6-0.4-0.8-0.7
							c-0.2-0.3-0.3-0.7-0.3-1.1v-2.2c0-0.1,0.1-0.1,0.1-0.1h1c0.1,0,0.1,0.1,0.1,0.1v3.9C8.4,37.6,8.4,37.7,8.2,37.7
							C8.3,37.7,8.3,37.7,8.2,37.7z M7.4,33.8v2.1c0,0.3,0.1,0.7,0.3,1c0.1,0.1,0.2,0.3,0.4,0.4v-3.4H7.4V33.8z"/>
					</g>
				</g>
				<g>
					<path class="st8" d="M16.7,48.4H9.3c-0.1,0-0.1-0.1-0.1-0.1v-1.8c0-0.1,0.1-0.1,0.1-0.1h7.5c0.1,0,0.1,0.1,0.1,0.1v1.8
						C16.9,48.3,16.9,48.4,16.7,48.4z M9.4,48h7.2v-1.5H9.4V48z"/>
				</g>
				<g>
					<path class="st9" d="M15.9,49.1h-5.7C10,49.1,10,49,10,49v-0.7c0-0.1,0.1-0.1,0.1-0.1H16c0.1,0,0.1,0.1,0.1,0.1V49
						C16.1,49,16,49.1,15.9,49.1z M10.2,48.8h5.5v-0.4h-5.5V48.8z"/>
				</g>
				<g>
					<path class="st8" d="M14.3,39.4c-0.1,0-0.1,0-0.2-0.1L13,38.4l-1.2,0.9c-0.1,0.1-0.3,0.1-0.4-0.1c0-0.1-0.1-0.1,0-0.2l0.4-1.3
						l-1.2-0.9c-0.1-0.1-0.1-0.2-0.1-0.3s0.1-0.2,0.2-0.2h1.4l0.4-1.3c0-0.1,0.1-0.2,0.2-0.2s0.2,0.1,0.2,0.2l0.4,1.3h1.4
						c0.1,0,0.2,0.1,0.2,0.2c0,0.1,0,0.2-0.1,0.3l-1.2,0.9l0.4,1.3c0,0.1,0,0.2,0,0.2C14.5,39.4,14.4,39.4,14.3,39.4z M13,38.2
						C13,38.2,13.1,38.2,13,38.2l1.3,0.9l-0.4-1.4c0-0.1,0-0.1,0-0.2l1.2-0.9h-1.5l0,0c-0.1,0-0.1,0-0.1-0.1L13,35l-0.4,1.4
						c0,0.1-0.1,0.1-0.1,0.1h-1.5l1.2,0.9c0,0,0.1,0.1,0,0.2l-0.4,1.4L13,38.2C12.9,38.2,13,38.2,13,38.2z"/>
				</g>
			</g>
		</g>
	</g>
	<g>
		<g>
			<path class="st0" d="M26,195c0,7.2-5.8,13-13,13s-13-5.8-13-13c0-7.2,5.8-13,13-13S26,187.7,26,195z"/>
			<path class="st1" d="M25.4,195c0,6.8-5.5,12.4-12.4,12.4c-6.8,0-12.4-5.5-12.4-12.4c0-6.8,5.5-12.4,12.4-12.4
				C19.8,182.6,25.4,188.1,25.4,195z"/>
		</g>
		<g>
			<path class="st10" d="M12.9,186.5h0.8c0.1,0,0.2,0.1,0.2,0.2v0.8c0,0.1-0.1,0.2-0.2,0.2h-0.8c-0.1,0-0.2-0.1-0.2-0.2v-0.8
				C12.7,186.6,12.8,186.5,12.9,186.5L12.9,186.5z M5.2,200L5.2,200L5.2,200l7.3-9.5l0,0c-0.4-0.3-0.6-0.9-0.3-1.1
				c0,0,0.1,0.3,0.6,0.4c0.1,0,0.2,0.1,0.3,0.1l0.2-0.2l0.1-0.1l0.1,0.1l0.2,0.2c0.1,0,0.2-0.1,0.3-0.2c0.4-0.4,0.2-1.1-0.2-1.2
				c-0.1,0-0.3-0.1-0.4-0.2c-0.1-0.1-0.2-0.2-0.2-0.2h0.7c0.1,0,0.2,0,0.2-0.1c0.3,0.1,0.7,0.2,0.9,0.8c0.2,0.4,0.1,0.9-0.1,1.3
				c-0.1,0.2-0.3,0.4-0.7,0.6l7.1,9.4l0,0l0,0v2.3h-16V200L5.2,200z M5.5,200h15.4l-6.9-9.3c-0.4,0.1-0.9,0.1-1.3-0.1L5.5,200
				L5.5,200z M13.2,190L13.2,190L13.2,190L13.2,190L13.2,190z M19.6,200.5c-0.3,0-0.7,0.3-0.7,0.7c0,0.3,0.3,0.7,0.7,0.7
				c0.3,0,0.7-0.3,0.7-0.7C20.3,200.7,20.1,200.5,19.6,200.5L19.6,200.5z M13.2,200.5c-0.3,0-0.7,0.3-0.7,0.7c0,0.3,0.3,0.7,0.7,0.7
				c0.3,0,0.7-0.3,0.7-0.7C13.9,200.7,13.7,200.5,13.2,200.5L13.2,200.5z M10,200.5c-0.3,0-0.7,0.3-0.7,0.7c0,0.3,0.3,0.7,0.7,0.7
				s0.7-0.3,0.7-0.7C10.7,200.7,10.4,200.5,10,200.5L10,200.5z M6.8,200.5c-0.3,0-0.7,0.3-0.7,0.7c0,0.3,0.3,0.7,0.7,0.7
				c0.3,0,0.7-0.3,0.7-0.7C7.5,200.7,7.2,200.5,6.8,200.5L6.8,200.5z M16.5,200.5c-0.3,0-0.7,0.3-0.7,0.7c0,0.3,0.3,0.7,0.7,0.7
				s0.7-0.3,0.7-0.7C17.2,200.7,16.9,200.5,16.5,200.5L16.5,200.5z M13.6,184.2v2h-0.7v-2H13.6z"/>
		</g>
	</g>
	<g>
		<g>
			<path class="st0" d="M26,169c0,7.2-5.8,13-13,13s-13-5.8-13-13c0-7.2,5.8-13,13-13S26,161.7,26,169z"/>
			<path class="st1" d="M25.4,169c0,6.8-5.5,12.4-12.4,12.4c-6.8,0-12.4-5.5-12.4-12.4c0-6.8,5.5-12.4,12.4-12.4
				C19.8,156.6,25.4,162.1,25.4,169z"/>
		</g>
		<g>
			<g>
				<g>
					<path class="st11" d="M20.9,174.4L20.9,174.4c-0.6-2-2.1-2.3-2.2-2.3l-2.3-0.6l-0.1-0.1l-1.4-0.3v-1c1-0.6,1.7-1.4,1.9-2.6
						c0.4-0.1,0.8-0.6,0.8-1.2c0-0.6-0.3-1-0.7-1.1V165h0.9v-0.2c0-0.4-0.2-0.7-0.4-0.8c0-1.3-0.7-2.6-1.7-3.4
						c-0.2-0.2-0.6-0.3-0.8-0.6l-0.1-0.4l0,0v-0.1h-0.1c-0.3-0.1-0.7-0.2-1-0.3v-0.3h-1v0.3c-0.7,0.1-1,0.3-1,0.3h-0.1l-0.1,0.6
						c-1,0.6-1.8,1.4-2.2,2.5C9.1,163.1,9,163.5,9,164c-0.2,0.1-0.4,0.3-0.4,0.8v0.2h0.9v0.1c-0.4,0.1-0.7,0.6-0.7,1.1
						c0,0.6,0.3,1.1,0.8,1.2c0.2,1.1,0.9,2.1,1.9,2.6v1l-1.4,0.3c-0.1,0-0.1,0.1-0.1,0.1l-2.3,0.6c-0.1,0-1.7,0.2-2.2,2.3l-0.6,3.3
						c0,0.1,0,0.1,0,0.2c0,0,0.1,0.1,0.2,0.1h16.4c0.1,0,0.1,0,0.2-0.1c0,0,0.1-0.1,0-0.2L20.9,174.4z M9.5,167.1
						c-0.2,0-0.4-0.3-0.4-0.8s0.2-0.8,0.4-0.8c0.1,0,0.2-0.1,0.2-0.2V165h6.6v0.3c0,0.1,0.1,0.2,0.2,0.2c0.2,0,0.4,0.3,0.4,0.8
						c0,0.3-0.2,0.8-0.4,0.8l0,0c-0.1,0-0.2,0.1-0.2,0.2c-0.2,1.7-1.7,2.9-3.3,2.9s-3.1-1.2-3.3-2.9C9.8,167.2,9.6,167.1,9.5,167.1z
						 M11.1,160.8l-0.2,0.9h0.2h0.2v-0.1l0.3-1.7v-0.1c0.1-0.1,0.3-0.1,0.7-0.2l-0.1,1.7l0,0h1.4l0,0l-0.1-1.7
						c0.2,0,0.4,0.1,0.7,0.2l0.2,1.7v0.2h0.2h0.2l-0.1-1c0.1,0.1,0.3,0.2,0.4,0.3c0.9,0.8,1.4,1.9,1.5,3.1h-0.1l0,0h-0.2h-0.2H9.9
						H9.6H9.4H9.3c0-0.4,0.1-0.9,0.2-1.2C9.8,162.1,10.4,161.3,11.1,160.8z M12.9,159.4h0.2l0.1,1.5h-0.4L12.9,159.4z M9.3,164.6
						h0.2h0.2h6.5h0.3h0.2h0.3c0,0,0.1,0,0.1,0.1h-0.4h-0.2h-0.2H9.8H9.5L9.3,164.6l-0.4,0.1c0-0.1,0.1-0.1,0.1-0.1H9.3z M15.8,172
						l-1.3,1.7l-0.3-0.3l0,0l-0.9-0.9l1.3-0.7h0.1L15.8,172L15.8,172z M13.2,174.2l0.8,3.4h-2.1l0.8-3.3l0,0l0.2,0.2l0,0l0,0
						l0.2-0.2L13.2,174.2z M12.6,173.3l0.4-0.6l0,0l0.6,0.6l0,0l-0.6,0.6L12.6,173.3L12.6,173.3L12.6,173.3z M10.2,171.9l1.1-0.2
						h0.1l1.1,0.7l-1,1.2L10.2,171.9L10.2,171.9z M14.3,171.3l-1.3,0.8l0,0l-0.1,0.1l-1.2-0.8v-0.9c0.9,0.3,1.9,0.3,2.6,0V171.3z
						 M9.8,172.1l1.7,2c0,0,0.1,0.1,0.2,0.1l0,0c0.1,0,0.1,0,0.2-0.1l0.3-0.4l0.2,0.2l-0.9,3.7H5.1l0.6-3c0.4-1.7,1.8-1.9,1.8-1.9
						L9.8,172.1z M14.5,177.6l-0.9-3.7l0.2-0.2l0.4,0.4c0,0,0.1,0.1,0.2,0.1l0,0c0.1,0,0.1,0,0.2-0.1l1.7-2l2.4,0.6
						c0,0,1.3,0.2,1.8,1.9l0.6,3h-6.6V177.6z"/>
					<path class="st0" d="M10.1,163.7h0.2h2.4v-0.4h-2.2l0,0c0-0.2,0.1-0.3,0.1-0.6c0.1-0.1,0.1-0.3,0.2-0.3h-0.1l-0.3-0.2
						c0,0-0.3,0.6-0.4,1.1c0,0.1,0,0.2,0,0.3L10.1,163.7L10.1,163.7z"/>
				</g>
				<polygon class="st1" points="5.3,177.2 5.2,178.3 11.1,178.3 11.5,176.9 5.7,177.4 				"/>
				<polygon class="st1" points="20.8,177.4 20.9,178.3 15,178.4 14.7,177.2 20.4,177.4 				"/>
				<polygon class="st1" points="12.3,177 11.9,178.6 14.1,178.6 13.8,177 				"/>
			</g>
			<polyline class="st12" points="11.6,178 10.9,180.1 11.7,181.3 			"/>
			<polyline class="st12" points="14.4,178 15.1,180.1 14.4,181.3 			"/>
			<line class="st13" x1="5" y1="176.8" x2="4.8" y2="178.5"/>
			<line class="st13" x1="21" y1="176.6" x2="21.3" y2="178.4"/>
		</g>
	</g>
	<g>
		<g>
			<path class="st0" d="M26,65c0,7.2-5.8,13-13,13S0,72.2,0,65s5.8-13,13-13S26,57.8,26,65z"/>
			<path class="st1" d="M25.4,65c0,6.8-5.5,12.4-12.4,12.4C6.2,77.4,0.6,71.9,0.6,65c0-6.8,5.5-12.4,12.4-12.4
				C19.8,52.6,25.4,58.2,25.4,65z"/>
		</g>
		<g>
			<path class="st0" d="M13.2,60.9l-0.7,0.4v3.5l-0.1-0.4h-0.2v-6.7h3.1h1h0.1l0,0h0.1h0.7v-1.4h-1.8v0.3H5l-0.9,0.9v0.1h2.6v1.7
				h0.1V62H6.7v0.4h0.1l0,0v0.1v0.1l0,0l0,0c0.1,0,0.3,0.1,0.3,0.3c0,0.2-0.1,0.3-0.3,0.3c-0.1,0-0.3-0.1-0.3-0.3H6.4
				c0,0.2,0.2,0.4,0.4,0.4c0.2,0,0.4-0.2,0.4-0.4c0-0.2-0.1-0.3-0.2-0.3v-0.1l0,0h0.1v-0.4H6.9v-2.8h0.1v-1.7h4.1v6.8h0.1h-0.1l0,0
				l-2.2,0.1l-0.7,0.4v8.4h4.2h6.5V60.8l-0.1-0.4L13.2,60.9z M15.3,56.8v0.8h-0.8L15.3,56.8L15.3,56.8z M15.1,56.8l-0.8,0.8l0,0
				h-0.9l0.8-0.8C14.2,56.8,15.1,56.8,15.1,56.8z M14.1,56.8l-0.8,0.8h-0.9l0.8-0.8H14.1z M12.2,56.8H13l-0.8,0.8l0,0V56.8z
				 M4.3,57.6l0.8-0.8h0.9l-0.8,0.8H4.3z M5.3,57.6l0.8-0.8h0.9l-0.8,0.8H5.3z M6.3,57.6l0.8-0.8h0.9l-0.8,0.8H6.3z M8.2,57.6H7.4
				l0.8-0.8H9L8.2,57.6L8.2,57.6z M8.4,57.6l0.8-0.8H10l-0.8,0.8H8.4z M9.4,57.6l0.8-0.8H11l-0.8,0.8H9.4z M11.2,57.6h-0.8l0.8-0.8
				l0,0V57.6z M11.8,57.3l0.3-0.3v0.7L11.8,57.3z M12,57.6h-0.6l0.2-0.2L12,57.6z M12,56.8l-0.3,0.3l-0.3-0.3H12z M11.3,57.1
				L11.3,57.1l0.2,0.2l-0.2,0.2V57.1z M11.3,57.8h0.8l0,0v0.9L11.3,57.8L11.3,57.8z M11.3,58.1l0.8,0.8v0.9l-0.8-0.8V58.1z
				 M11.3,59.1l0.8,0.8v0.9l-0.8-0.8V59.1z M11.3,60.2l0.8,0.8v0.9L11.3,61V60.2z M11.3,61.1l0.8,0.8v0.9L11.3,62V61.1z M11.3,62.1
				L11.3,62.1l0.8,0.8v0.9L11.3,63V62.1z M11.3,63.2L11.3,63.2l0.8,0.8v0.6h-0.2L11.3,64V63.2z M11.3,64.2l0.3,0.3h-0.3V64.2z
				 M10.7,65.2h0.6h0.1v0.3h-0.1h-0.6V65.2z M10.7,65.9h0.6h0.1v0.3h-0.1h-0.6V65.9z M10.7,66.5h0.6h0.1v0.3h-0.1h-0.6V66.5z
				 M10.7,67.2h0.6h0.1v0.3h-0.1h-0.6V67.2z M10.7,67.9h0.6h0.1v0.3h-0.1h-0.6V67.9z M10.7,68.5h0.6h0.1v0.3h-0.1h-0.6V68.5z
				 M10.7,69.1h0.6h0.1v0.3h-0.4h-0.2C10.7,69.4,10.7,69.1,10.7,69.1z M10.7,69.7h0.7v0.4h-0.7V69.7z M10.7,70.4h0.7v0.3h-0.7V70.4z
				 M10.7,71.1h0.7v0.3h-0.7V71.1z M9.6,65.3h0.7v0.3H9.6V65.3z M9.6,66h0.7v0.3H9.6V66z M9.6,66.7h0.7V67H9.6V66.7z M9.6,67.2h0.7
				v0.3H9.6V67.2z M9.6,67.9h0.7v0.3H9.6V67.9z M9.6,68.5h0.7v0.3H9.6V68.5z M9.6,69.2h0.7v0.3H9.6V69.2z M9.6,69.7h0.7v0.4H9.6
				V69.7z M9.6,70.4h0.7v0.3H9.6V70.4z M9.6,71.1h0.7v0.3H9.6V71.1z M8.7,65.4h0.7v0.3H8.7V65.4z M8.7,66h0.7v0.3H8.7V66z M8.7,66.7
				h0.7V67H8.7V66.7z M8.7,67.3h0.7v0.3H8.7V67.3z M8.7,67.9h0.7v0.3H8.7V67.9z M8.7,68.5h0.7v0.3H8.7V68.5z M8.7,69.2h0.7v0.3H8.7
				V69.2z M8.7,69.8h0.7v0.3H8.7V69.8z M8.7,70.4h0.7v0.3H8.7V70.4z M8.7,71.1h0.7v0.3H8.7V71.1z M12.2,72.7H8.8v-1h3.4V72.7z
				 M12.2,71.4h-0.7v-0.3h0.7V71.4z M12.2,70.7h-0.7v-0.3h0.7V70.7z M12.2,70.1h-0.7v-0.3h0.7V70.1z M12.2,69.4h-0.7v-0.3l0,0h0.6
				h0.1V69.4z M12.2,68.9L12.2,68.9H12h-0.2h-0.3v-0.3v-0.1h0.1H12h0.1v0.4H12.2z M12.2,68.2L12.2,68.2h-0.7v-0.3h0.3h0.2h0.1h0.1
				v0.3H12.2z M12.2,67.5L12.2,67.5h-0.4h-0.2l0,0l0,0v-0.2v-0.1h0.6h0.1C12.2,67.2,12.2,67.5,12.2,67.5z M12.2,66.9H12h-0.4v-0.3
				l0,0h0.2h0.3h0.1C12.2,66.5,12.2,66.9,12.2,66.9z M12.2,66.2L12.2,66.2h-0.7v-0.3H12h0.2l0,0l0,0h0.1v0.3H12.2z M12.2,65.6
				L12.2,65.6h-0.3h-0.2h-0.1v-0.1v-0.2l0,0h0.6h0.1V65.6z M17.3,61.9v-0.4H18v0.4H17.3L17.3,61.9z M17.3,62.2H18v0.4h-0.7
				C17.3,62.7,17.3,62.2,17.3,62.2z M17.3,62.9H18v0.4h-0.7C17.3,63.3,17.3,62.9,17.3,62.9z M17.3,63.9v-0.3H18V64L17.3,63.9
				L17.3,63.9z M17.3,64.2H18l0,0v0.4h-0.7C17.3,64.7,17.3,64.2,17.3,64.2z M17.3,65.3v-0.4H18v0.4H17.3L17.3,65.3z M17.3,66v-0.4
				H18V66l0,0H17.3L17.3,66z M17.3,66.2H18v0.4h-0.7C17.3,66.7,17.3,66.2,17.3,66.2z M17.3,67.3v-0.4H18v0.4H17.3L17.3,67.3z
				 M17.3,67.5H18V68h-0.7C17.3,68,17.3,67.5,17.3,67.5z M17.3,68.2H18v0.4h-0.7C17.3,68.6,17.3,68.2,17.3,68.2z M17.3,69H18v0.4
				h-0.7C17.3,69.4,17.3,69,17.3,69z M17.3,69.6H18v0.4h-0.7C17.3,70.1,17.3,69.6,17.3,69.6z M17.3,70.3H18v0.4h-0.7
				C17.3,70.7,17.3,70.3,17.3,70.3z M17.3,70.9H18v0.3h-0.7C17.3,71.3,17.3,70.9,17.3,70.9z M16.4,61.6h0.7V62h-0.7V61.6z
				 M16.4,62.7v-0.4h0.7v0.4H16.4L16.4,62.7z M16.4,62.9h0.7v0.4h-0.7V62.9z M16.4,64v-0.4h0.7V64l0,0H16.4L16.4,64z M16.4,64.2h0.7
				v0.4h-0.7V64.2z M16.4,64.9h0.7v0.4h-0.7V64.9z M16.4,65.6h0.7V66h-0.7V65.6z M16.4,66.7v-0.4h0.7v0.4H16.4L16.4,66.7z M16.4,67
				h0.7l0,0v0.4h-0.7V67z M16.4,68v-0.4h0.7V68H16.4L16.4,68z M16.4,68.3h0.7v0.4h-0.7V68.3z M16.4,69h0.7v0.4h-0.7V69z M16.4,69.6
				h0.7v0.4l0,0h-0.7V69.6z M16.4,70.3h0.7v0.4h-0.7V70.3z M16.4,70.9h0.7v0.3h-0.7V70.9z M15.5,61.7h0.7v0.4h-0.7V61.7z M15.5,62.4
				h0.7v0.4h-0.7V62.4z M15.5,63h0.7v8.4h-0.7V63z M14.7,61.7h0.7v0.4h-0.7l0,0V61.7z M14.7,62.4h0.7v0.4h-0.7l0,0V62.4z M14.7,63
				h0.7v0.4h-0.7l0,0V63z M14.7,63.7h0.7v0.4h-0.7l0,0V63.7z M14.7,64.3h0.7v0.4h-0.7l0,0V64.3z M14.7,65h0.7v0.4h-0.7l0,0V65z
				 M14.7,65.7h0.7v0.4h-0.7l0,0V65.7z M14.7,66.3L14.7,66.3L14.7,66.3h0.7v0.4h-0.7l0,0V66.3z M14.7,67h0.7l0,0v0.4l0,0h-0.7l0,0
				V67z M14.7,67.6h0.7v0.4h-0.7l0,0V67.6z M14.7,68.3h0.7v0.4h-0.7l0,0V68.3z M14.7,69h0.7v0.4h-0.7l0,0V69z M14.7,69.6h0.7v0.4
				h-0.7l0,0V69.6z M14.7,70.3h0.7v0.4h-0.7l0,0l0,0V70.3z M14.7,70.9h0.7v0.4h-0.7l0,0V70.9z M13.9,61.8h0.7v0.4h-0.7V61.8z
				 M13.9,62.5h0.7v0.4h-0.7V62.5z M13.9,63.1L13.9,63.1h0.7v0.4h-0.7V63.1z M13.9,63.8h0.7v0.4h-0.7V63.8z M13.9,64.4h0.7v0.4l0,0
				h-0.7V64.4z M13.9,65.1h0.7v0.4h-0.7V65.1z M13.9,65.8L13.9,65.8h0.7v0.4h-0.7V65.8z M13.9,66.4h0.7l0,0v0.4h-0.7V66.4z
				 M13.9,67.1h0.7v0.4l0,0h-0.7V67.1z M13.9,67.8h0.7v0.4h-0.7V67.8z M13.9,68.4h0.7v0.4h-0.7V68.4z M13.9,69h0.7v0.4h-0.7V69z
				 M13.9,69.6h0.7v0.4l0,0h-0.7V69.6z M13.9,70.3h0.7v0.4h-0.7V70.3z M13.9,70.9L13.9,70.9h0.7v0.4h-0.7V70.9z M13,61.9h0.7v0.4H13
				V61.9z M13,62.6h0.7V63H13V62.6z M13,63.2h0.7v0.3H13V63.2z M13,63.8h0.7v0.4H13V63.8z M13,64.4h0.7v0.4H13V64.4z M13,65.6v-0.4
				h0.7v0.4l0,0H13L13,65.6z M13,65.8h0.7v0.4H13V65.8z M13,66.4h0.7v0.4H13V66.4z M13,67.1h0.7v0.4H13V67.1z M13,67.8L13,67.8h0.7
				v0.4H13V67.8z M13,68.4h0.7v0.4H13V68.4z M13,69.1h0.7v0.4H13V69.1z M13,69.7h0.7v0.4H13V69.7z M13,70.4h0.7v0.4H13V70.4z
				 M13,70.9h0.7v0.4H13V70.9z M18.7,72.7H13v-1l5.7-0.1V72.7z M18.7,71.3h-0.7v-0.4h0.7V71.3z M18.7,70.6h-0.7v-0.4h0.7V70.6z
				 M18.7,69.5V70h-0.7v-0.4H18.7L18.7,69.5z M18.7,69.3h-0.7v-0.4h0.7V69.3z M18.7,68.6h-0.7v-0.4h0.7V68.6z M18.7,67.9h-0.7v-0.4
				h0.7V67.9z M18.7,67.2h-0.7v-0.3h0.7V67.2z M18.7,66.5h-0.7v-0.4l0,0h0.7V66.5z M18.7,65.9h-0.7v-0.4h0.7V65.9z M18.7,65.2
				L18.7,65.2h-0.7v-0.4h0.7V65.2z M18.7,64.6h-0.7v-0.4h0.7V64.6z M18.7,63.8h-0.7v-0.4h0.7V63.8z M18.7,62.8v0.4h-0.7v-0.4H18.7
				L18.7,62.8z M18.7,62.5L18.7,62.5h-0.7V62h0.7V62.5z M18.7,61.8h-0.7v-0.4h0.7V61.8z"/>
			<path class="st0" d="M20.6,61.1l-1.4-0.8l0.1,0.4V67v6.5h1.9V67v-5.3L20.6,61.1z M20.1,61.7l0.4,0.2l0,0v0.4l-0.4-0.2V61.7z
				 M20.1,62.4l0.4,0.2V63l-0.4-0.2V62.4z M20.1,63l0.4,0.1v0.4l-0.4-0.1V63z M20.1,63.7l0.4,0.1v0.4l-0.4-0.1V63.7z M20.1,64.3
				l0.4,0.1v0.4l-0.4-0.1V64.3z M20.1,65.4V65l0.4,0.1l0,0v0.4L20.1,65.4L20.1,65.4z M20.1,65.7l0.4,0.1v0.4l-0.4-0.1V65.7z
				 M20.1,66.3l0.4,0.1v0.4l-0.4-0.1V66.3z M20.1,67.1L20.1,67.1l0.4,0.1v0.4l-0.4-0.1V67.1z M20.1,67.6l0.4,0.1v0.4l-0.4-0.1V67.6z
				 M20.1,68.3l0.4,0.1v0.4l-0.4-0.1V68.3z M20.1,69l0.4,0.1v0.4l-0.4-0.1V69z M20.1,69.6l0.4,0.1v0.4l-0.4-0.1V69.6z M20.1,70.3
				h0.4v0.4h-0.4V70.3z M20.1,70.9h0.4v0.4h-0.4V70.9z M19.5,61.9v-0.4l0.4,0.2v0.4L19.5,61.9L19.5,61.9z M19.5,62.1l0.4,0.2v0.4
				l-0.4-0.2V62.1z M19.5,62.8l0.4,0.1v0.4l-0.4-0.1V62.8z M19.5,63.5l0.4,0.1V64l-0.4-0.1V63.5z M19.5,64.1l0.4,0.1v0.4l-0.4-0.1
				V64.1z M19.5,64.9l0.4,0.1l0,0v0.4l0,0l-0.4-0.1V64.9z M19.5,65.6L19.5,65.6l0.4,0.1v0.4l0,0L19.5,66V65.6z M19.5,66.2l0.4,0.1
				v0.4l-0.4-0.1V66.2z M19.5,67.1v-0.2l0,0l0.4,0.1v0.1v0.3l-0.4-0.1V67.1z M19.5,67.5l0.4,0.1v0.4L19.5,68V67.5z M19.5,68.2
				l0.4,0.1v0.4l-0.4-0.1V68.2z M19.5,68.9l0.4,0.1v0.4l-0.4-0.1V68.9z M19.5,69.5l0.4,0.1v0.4L19.5,70V69.5z M19.5,70.3h0.4v0.4
				h-0.4V70.3z M19.5,70.9h0.4v0.4h-0.4V70.9z M20.9,72.7h-1.4v-1.1l1.4,0.1V72.7z M20.9,71.4h-0.4v-0.3h0.4V71.4z M20.9,70.8h-0.4
				v-0.3h0.4V70.8z M20.9,70.2h-0.4v-0.3l0.4,0.1V70.2z M20.9,69.5l-0.4-0.1v-0.3l0.4,0.1V69.5z M20.9,68.9l-0.4-0.1v-0.3l0.4,0.1
				V68.9z M20.9,68.3l-0.4-0.1v-0.3l0.4,0.1V68.3z M20.9,67.6l-0.4-0.1v-0.3l0.4,0.1V67.6z M20.9,67l-0.3-0.1v-0.3l0.4,0.1V67H20.9z
				 M20.9,66.3l-0.4-0.1v-0.3l0,0l0.4,0.1V66.3z M20.9,65.7l-0.4-0.1v-0.3l0.4,0.1V65.7z M20.9,65.1L20.9,65.1L20.5,65v-0.3l0.4,0
				V65.1z M20.9,64.4l-0.4-0.1V64l0.4,0.1V64.4z M20.9,63.8l-0.4-0.1v-0.3l0.4,0.1V63.8z M20.9,63.1l-0.4-0.2v-0.3l0.4,0.2V63.1z
				 M20.9,62.6l-0.4-0.2V62l0.4,0.2V62.6z"/>
		</g>
	</g>
	<g>
		<g>
			<path class="st0" d="M26,91c0,7.2-5.8,13-13,13S0,98.2,0,91s5.8-13,13-13S26,83.7,26,91z"/>
			<path class="st1" d="M25.4,91c0,6.8-5.5,12.4-12.4,12.4c-6.8,0-12.4-5.5-12.4-12.4c0-6.8,5.5-12.4,12.4-12.4
				C19.8,78.6,25.4,84.1,25.4,91z"/>
		</g>
		<g id="XMLID_27_">
			<path id="XMLID_32_" class="st14" d="M15.6,87.9C15.6,87.9,15.5,87.9,15.6,87.9h-5h-0.1c-2.5,1-4.3,4.6-4.3,7.4
				c0,1.1,0.2,1.9,0.8,2.4c0.8,0.6,1.9,0.8,3.1,0.8c0.4,0,0.9,0,1.3,0c0.6,0,1.1,0,1.7,0c0.4,0,0.9,0,1.3,0c2,0,3.7,0.1,4.7-0.9
				c0.6-0.6,0.8-1.3,0.8-2.4C19.9,92.4,18.3,89,15.6,87.9z M18.7,97.2c-0.8,0.8-2.4,0.8-4.3,0.8c-0.4,0-0.9,0-1.3,0
				c-0.6,0-1.1,0-1.7,0c-1.8,0.1-3.2,0.1-4-0.7c-0.4-0.4-0.7-1-0.7-2c0-3.2,2-6.1,3.9-6.8h4.7c2.1,0.9,3.9,3.9,3.9,6.6
				C19.4,96.1,19.2,96.7,18.7,97.2z"/>
			<path id="XMLID_29_" class="st14" d="M11,87.4h4.1c0.1,0,0.1,0,0.2-0.1c0.8-0.8,1.2-2.5,1.2-3.6c0-0.1-0.1-0.2-0.2-0.2H9.9
				c-0.1,0-0.2,0.1-0.2,0.2c0,1.1,0.4,2.9,1.2,3.6C10.9,87.4,11,87.4,11,87.4z M16.1,83.9c-0.1,1-0.4,2.2-1,3h-3.9c-0.6-0.7-1-2-1-3
				H16.1z"/>
			<path id="XMLID_28_" class="st0" d="M14.4,92.5c-0.1,0-0.2-0.1-0.3-0.1c-0.3-0.1-0.7-0.2-1-0.4C13,91.9,13,91.8,13,91.8
				c0-0.1,0.1-0.1,0.2-0.1c0.4,0,1.2,0.2,1.2,0.2c0.1,0,0.1,0,0.2,0l0.1-0.1l0.2-0.9c0-0.1,0-0.2-0.1-0.3c-0.2-0.1-0.7-0.2-1-0.2
				v-0.4c0-0.1-0.1-0.3-0.2-0.3h-0.8c-0.1,0-0.3,0.1-0.3,0.3v0.6c-0.9,0.2-1.4,0.9-1.3,1.8c0.1,1,1.4,1.4,1.7,1.5
				c0.6,0.1,0.6,0.2,0.4,0.3c0,0.1-0.4,0.2-0.9,0.1c-0.3-0.1-0.8-0.2-0.8-0.2c-0.1,0-0.1,0-0.2,0s-0.1,0.1-0.1,0.1l-0.3,1
				c0,0.1,0,0.2,0.1,0.3c0.4,0.2,1,0.3,1.3,0.3v0.6c0,0.1,0.1,0.2,0.2,0.2h0.8c0.1,0,0.1,0,0.2-0.1c0,0,0.1-0.1,0.1-0.2v-0.7
				c0.7-0.1,1.2-0.7,1.3-1.5v-0.2C15.2,93,14.5,92.7,14.4,92.5z M13.6,95.1c-0.1,0-0.2,0.1-0.2,0.2v0.6H13v-0.6
				c0-0.1-0.1-0.2-0.2-0.2c-0.2,0-0.8-0.1-1.1-0.2l0.1-0.4c0.1,0,0.3,0.1,0.6,0.1c0.6,0.1,1.4,0.1,1.5-0.6c0.1-0.7-0.6-0.9-0.9-1
				c-0.4-0.1-1.2-0.4-1.3-1.1c-0.1-0.7,0.2-1.1,1.1-1.2c0.1,0,0.2-0.1,0.2-0.2v-0.6h0.3v0.4c0,0.1,0.1,0.2,0.2,0.2
				c0.2,0,0.7,0.1,0.9,0.1l-0.1,0.6c-0.3-0.1-0.8-0.1-1.1-0.1c-0.3,0-0.6,0.2-0.7,0.4c-0.1,0.3,0.1,0.7,0.3,0.8
				c0.3,0.2,0.8,0.3,1,0.4c0.1,0,0.2,0.1,0.3,0.1c0.1,0,0.6,0.3,0.4,1C14.7,94.6,14,95.1,13.6,95.1z"/>
			<path class="st15" d="M14.7,94.1c0,0.7-0.7,1-1.1,1.1c-0.1,0-0.2,0.1-0.2,0.2V96H13v-0.6c0-0.1-0.1-0.2-0.2-0.2
				c-0.2,0-0.8-0.1-1.1-0.2l0.1-0.4c0.1,0,0.3,0.1,0.6,0.1c0.6,0.1,1.4,0.1,1.5-0.6c0.1-0.7-0.6-0.9-0.9-1c-0.4-0.1-1.2-0.4-1.3-1.1
				c-0.1-0.7,0.2-1.1,1.1-1.2c0.1,0,0.2-0.1,0.2-0.2V90h0.3v0.4c0,0.1,0.1,0.2,0.2,0.2c0.2,0,0.7,0.1,0.9,0.1l-0.1,0.4
				c-0.3-0.1-0.8-0.1-1.1-0.1c-0.3,0-0.6,0.2-0.7,0.4c-0.1,0.3,0.1,0.7,0.3,0.8c0.3,0.2,0.8,0.3,1,0.4c0.1,0,0.2,0.1,0.3,0.1
				C14.3,93.1,14.8,93.3,14.7,94.1z"/>
		</g>
	</g>
	<g>
		<g>
			<path class="st0" d="M26,221c0,7.2-5.8,13-13,13s-13-5.8-13-13s5.8-13,13-13S26,213.7,26,221z"/>
			<path class="st1" d="M25.4,221c0,6.8-5.5,12.4-12.4,12.4c-6.8,0-12.4-5.5-12.4-12.4c0-6.8,5.5-12.4,12.4-12.4
				C19.8,208.6,25.4,214.1,25.4,221z"/>
		</g>
		<g>
			<path class="st16" d="M9.3,212.8h7.5v-0.6H9.3V212.8L9.3,212.8z M6.9,227.3h12.1v1.8H6.9L6.9,227.3L6.9,227.3z M8.8,214.4h1.4
				v12.7H8.4v-12.7H8.8z M15.8,214.4h1.9v12.7h-1.9V214.4L15.8,214.4z M10.6,216v0.4h4.8V216H10.6L10.6,216z M10.6,217.5v0.4h4.8
				v-0.4H10.6L10.6,217.5z M10.6,218.8v0.4h4.8v-0.4H10.6L10.6,218.8z M10.6,220.1v0.4h4.8v-0.4H10.6L10.6,220.1z M10.6,221.4v0.4
				h4.8v-0.4H10.6L10.6,221.4z M10.6,222.8v0.4h4.8v-0.4H10.6L10.6,222.8z M10.6,224.1v0.4h4.8v-0.4H10.6L10.6,224.1z M10.6,225.4
				v0.4h4.8v-0.4H10.6L10.6,225.4z M15.5,226.8h-5v-0.2h5V226.8L15.5,226.8z M9,214.2h1.5v1.1h4.8v-1.1H17v-0.2H9V214.2L9,214.2z
				 M9.8,213.1h6.5v0.7H9.8V213.1z"/>
		</g>
	</g>
	<g>
		<g>
			<path class="st0" d="M26,13c0,7.2-5.8,13-13,13S0,20.2,0,13S5.8,0,13,0S26,5.8,26,13z"/>
			<path class="st1" d="M25.4,13c0,6.8-5.5,12.4-12.4,12.4C6.2,25.4,0.6,19.9,0.6,13C0.6,6.2,6.1,0.6,13,0.6
				C19.8,0.6,25.4,6.2,25.4,13z"/>
		</g>
		<g id="XMLID_3965_">
			<path id="XMLID_3971_" class="st0" d="M15.5,13.6c0-0.1-0.1-0.1-0.2-0.1h-0.9V8c0-0.1,0-0.1-0.1-0.2c-0.1,0-0.1-0.1-0.2-0.1h-1.2
				h-0.1l-1.7,1.1C11,9,11,9.1,11,9.3l0.2,1.1c0,0.1,0.1,0.1,0.2,0.2c0.1,0,0.2,0,0.2,0l0.8-0.7v3.6h-0.9c-0.1,0-0.1,0-0.2,0.1
				c0,0-0.1,0.1-0.1,0.2v0.9c0,0.1,0,0.1,0.1,0.2c0,0,0.1,0.1,0.2,0.1h3.7c0.1,0,0.1,0,0.2-0.1c0.1-0.1,0.1-0.1,0.1-0.2v-0.9
				C15.5,13.7,15.5,13.7,15.5,13.6z M15.3,14.7h-3.7v-0.9h1.2V9.3l-1.2,1l-0.2-1L13,8.2h1.1v5.7h1.2C15.3,13.9,15.3,14.7,15.3,14.7z
				"/>
			<path id="XMLID_3966_" class="st14" d="M22.1,18.6l-4-4.4l0,0c0-0.1,0.1-0.1,0.2-0.1l1.2-0.3c0.2,0,0.4-0.2,0.6-0.4
				c0-0.2,0-0.4-0.2-0.7l-0.9-0.9c-0.1-0.1-0.1-0.1-0.1-0.2c0-0.1,0-0.1,0.1-0.2l1-0.8c0.2-0.2,0.3-0.4,0.2-0.7
				c0-0.2-0.2-0.3-0.4-0.4L18.6,9c-0.1,0-0.1-0.1-0.2-0.1c0-0.1,0-0.2,0-0.2l0.4-1.2c0.1-0.2,0.1-0.4,0-0.7
				c-0.1-0.1-0.3-0.2-0.7-0.1L17,6.9c-0.2,0-0.3-0.1-0.3-0.3l-0.1-1.2c0-0.4-0.3-0.6-0.6-0.6c-0.1,0-0.3,0-0.4,0.1l-1,0.8
				c-0.1,0.1-0.3,0.1-0.4-0.1l-0.7-1c-0.1-0.2-0.3-0.3-0.6-0.3c-0.2,0-0.4,0.1-0.6,0.4l-0.6,1.1c-0.1,0.1-0.3,0.2-0.4,0.1l-1.1-0.6
				c-0.4-0.2-0.7-0.2-0.9,0c0,0.1-0.2,0.2-0.1,0.6v1.2c0,0.1,0,0.1-0.1,0.2c0,0.1-0.1,0.1-0.2,0.1H7.7c-0.2,0-0.4,0.1-0.6,0.3
				C7.1,8,7.1,8.3,7.2,8.5l0.7,1.1c0,0.1,0,0.2,0,0.3c-0.1-0.1-0.1,0-0.2,0l-1.1,0.6c-0.2,0.2-0.3,0.4-0.3,0.6
				c0,0.2,0.1,0.4,0.3,0.6l1,0.7c0.1,0,0.1,0.1,0.1,0.2s0,0.2-0.1,0.2l-0.7,1c-0.1,0.2-0.2,0.4-0.1,0.7c0.1,0.2,0.3,0.3,0.6,0.3h0.6
				l-4,3.5c-0.1,0.1-0.1,0.2-0.1,0.3s0.1,0.2,0.2,0.2l2.4,0.2l0.1,2.2c0,0.1,0.1,0.2,0.1,0.2h0.1c0.1,0,0.1,0,0.2-0.1l4.4-4l0.2,0.6
				c0.1,0.3,0.3,0.4,0.6,0.4c0.1,0,0.3-0.1,0.4-0.3l0.8-1c0-0.1,0.1-0.1,0.2-0.1c0,0,0.1,0,0.2,0.1l0.9,0.8c0.1,0.1,0.3,0.2,0.4,0.2
				c0.1,0,0.2,0,0.3-0.1l3.2,3.5c0,0,0.1,0.1,0.2,0.1c0,0,0,0,0.1,0c0.1,0,0.1-0.1,0.1-0.2l0.2-2.2l2.4-0.2c0.1,0,0.2-0.1,0.2-0.1
				C22.1,18.8,22.1,18.7,22.1,18.6z M7.1,20.6l-0.1-1.9c0-0.1-0.1-0.2-0.2-0.2l-2-0.1l3.7-3.3h0.3c0,0,0,0,0.1,0.1
				c0,0.1,0.1,0.1,0.1,0.2l-0.1,1.2c0,0.2,0,0.4,0.1,0.6c0.1,0.1,0.2,0.1,0.3,0.2c0.1,0.1,0.3,0.1,0.6,0L11,17h0.1l0.1,0.1l0,0
				L7.1,20.6z M15.5,16.4l-0.2,1.1v0.1l0,0l0,0l0,0l-1-0.9c0-0.1-0.1-0.1-0.2-0.1c-0.1,0-0.2-0.1-0.3-0.1c-0.1,0-0.3,0-0.4,0.1
				c0,0-0.1,0-0.1,0.1l-0.1,0.1l-0.8,1l0,0l0,0l0,0l0,0l0,0c0,0,0,0,0-0.1L12,17c0.1-0.1,0.1-0.2,0.1-0.3l0,0
				c-0.1-0.2-0.2-0.4-0.4-0.4c-0.1,0-0.1-0.1-0.2-0.1h-0.1h-0.7l0,0c-0.1,0-0.1,0-0.1,0l-1.1,0.4l0,0l0.1-1.2v-0.1
				c0-0.2,0-0.4-0.2-0.6c-0.1-0.1-0.3-0.2-0.6-0.3c0,0,0,0-0.1,0H8.6H8.2l-0.8-0.1c-0.1,0-0.1,0-0.1,0s0,0,0-0.1l0.8-1
				c0,0,0-0.1,0.1-0.1c0.1-0.1,0.1-0.3,0.1-0.6c0-0.2-0.2-0.4-0.4-0.6l-1-0.7c0,0-0.1,0-0.1-0.1l0,0c0,0,0,0,0.1-0.1l0.6-0.3
				l0.6-0.3c0.1,0,0.3-0.2,0.3-0.4c0-0.2,0-0.4-0.1-0.7l0,0L7.5,8.2V8l0,0l0,0c0,0,0,0,0.1,0h0.3h1c0.2,0,0.4-0.1,0.7-0.2
				c0.1-0.1,0.1-0.2,0.1-0.3l0,0c0-0.1,0-0.2,0-0.3V5.9c0-0.1,0-0.1,0-0.1s0,0,0.1,0l0.9,0.4L11,6.4l0,0c0.1,0,0.2,0.1,0.3,0.1
				c0.2,0,0.4-0.1,0.6-0.2C12,6.2,12,6.2,12.1,6.1L12.7,5l0,0l0,0l0,0l0,0c0,0,0,0,0.1,0l0.4,0.7l0.2,0.3c0,0.1,0.1,0.1,0.2,0.2
				s0.3,0.2,0.6,0.2c0.1,0,0.1,0,0.2,0c0.1,0,0.2-0.1,0.3-0.1l0.4-0.3l0.6-0.4h0.1l0,0c0,0,0,0,0,0.1L16,6.8c0,0.2,0.1,0.3,0.2,0.4
				l0.1,0.1c0.2,0.1,0.4,0.2,0.7,0.1l1.2-0.2c0.1,0,0.1,0,0.1,0v0.1l-0.4,1.1v0.1l0,0c0,0.1,0,0.3,0,0.4v0.1c0,0,0,0.1,0.1,0.1
				c0.1,0.1,0.2,0.3,0.4,0.3l1,0.3l0.3,0.1h0.1l0,0c0,0,0,0,0,0.1l-0.6,0.4L18.7,11c-0.2,0.1-0.3,0.3-0.3,0.7c0,0.2,0.1,0.4,0.2,0.7
				l0.9,0.9c0.1,0,0.1,0.1,0.1,0.1l0,0c0,0,0,0-0.1,0l-1.2,0.3c-0.2,0-0.4,0.2-0.6,0.4c0,0,0,0.1-0.1,0.1v0.1
				c-0.1,0.1-0.1,0.2-0.1,0.3v0.1l0.3,1.2l-1.2-0.3h-0.1h-0.2l0,0h-0.1l0,0c0,0,0,0-0.1,0c0,0,0,0-0.1,0l0,0l-0.1,0.1
				C15.6,16.1,15.5,16.3,15.5,16.4z M19.3,18.8c-0.1,0-0.2,0.1-0.2,0.2l-0.2,1.8l-3-3.3l0.2-1.1v-0.1c0.1,0,0.1,0,0.2,0l1.2,0.3
				c0.1,0,0.1,0,0.2,0c0.1,0,0.3,0,0.4-0.1l0,0l0.1-0.1c0.1-0.1,0.1-0.3,0.1-0.6l-0.1-0.3l3,3.3H19.3z"/>
			<polygon class="st14" points="15.3,13.8 15.3,14.7 11.6,14.7 11.6,13.8 12.8,13.8 12.8,9.3 11.6,10.2 11.3,9.1 12.9,8 14.1,8 
				14.1,13.8 			"/>
		</g>
	</g>
	<g>
		<g>
			<path class="st0" d="M26,117c0,7.2-5.8,13-13,13s-13-5.8-13-13c0-7.3,5.8-13,13-13S26,109.7,26,117z"/>
			<path class="st1" d="M25.4,117c0,6.8-5.5,12.4-12.4,12.4c-6.8,0-12.4-5.5-12.4-12.4c0-6.8,5.5-12.4,12.4-12.4
				C19.8,104.6,25.4,110.1,25.4,117z"/>
		</g>
		<g>
			<g>
				<path class="st0" d="M14,111.9c0,0.4-0.3,0.8-0.8,0.8s-0.8-0.3-0.8-0.8c0-0.4,0.3-0.8,0.8-0.8S14,111.5,14,111.9z"/>
				<path class="st0" d="M18.6,113.4c0,0.4-0.3,0.8-0.8,0.8c-0.4,0-0.8-0.3-0.8-0.8c0-0.4,0.3-0.8,0.8-0.8
					C18.3,112.7,18.6,113,18.6,113.4z"/>
				<path class="st0" d="M9.5,113.4c0,0.4-0.3,0.8-0.8,0.8s-0.8-0.3-0.8-0.8c0-0.4,0.3-0.8,0.8-0.8C9.1,112.7,9.5,113,9.5,113.4z"/>
				<path class="st0" d="M23,114.7c0,0.4-0.3,0.8-0.8,0.8c-0.4,0-0.8-0.3-0.8-0.8c0-0.4,0.3-0.8,0.8-0.8C22.8,114,23,114.4,23,114.7
					z"/>
				<path class="st0" d="M5,114.7c0,0.4-0.3,0.8-0.8,0.8c-0.4,0-0.8-0.3-0.8-0.8c0-0.4,0.3-0.8,0.8-0.8S5,114.4,5,114.7z"/>
				<path class="st0" d="M18.5,117.6l-0.6-4.1l-2.6,4l-2-5.5l-1.9,5.5l-2.6-4.1l-0.6,4.1l-3.9-2.8l4,7.4h5h5.1l4-7.4L18.5,117.6z
					 M13.3,118.7l-0.7-1.4l0.7-1.4l0.7,1.4L13.3,118.7z"/>
			</g>
			<line class="st17" x1="8.4" y1="122.9" x2="18.4" y2="122.9"/>
		</g>
	</g>
</g>
</svg>
