<?xml version="1.0" encoding="utf-8"?>
<!-- Generator: Adobe Illustrator 22.1.0, SVG Export Plug-In . SVG Version: 6.00 Build 0)  -->
<svg version="1.1" id="圖層_1" xmlns="http://www.w3.org/2000/svg" xmlns:xlink="http://www.w3.org/1999/xlink" x="0px" y="0px"
	 viewBox="0 0 400 50" style="enable-background:new 0 0 400 50;" xml:space="preserve">
<style type="text/css">
	.st0{fill:#FFFFFF;}
</style>
<g>
	<path class="st0" d="M17.2,13.6V3.3h5.2v10.3h15.7v5.4H23.8c1.3,4.8,3.1,9,5.4,12.4c2.6,4,6.1,7.2,10.5,9.4l-2.7,5.8
		c-4.6-2.4-8.6-6-11.8-10.9c-1.8-2.6-3.4-5.7-4.7-9.1c-1,2.6-2.2,5.1-3.8,7.4c-3.5,5.2-7.9,9.4-13.2,12.6l-2.9-5.1
		c5.7-3.7,10-7.8,12.7-12.4c1.9-3.3,3-6.6,3.5-10.1H1.7v-5.4H17.2z"/>
	<path class="st0" d="M62.3,5c-0.3,0.8-0.7,1.4-1.1,2.1h18.7V11c-3.3,5.7-7.4,10-12.4,12.9c-1.9,1.2-3.8,2.2-5.9,3.1h19.3v19.5h-4.9
		v-1.9H57v1.9h-4.9V30.3c-1.8,0.5-3.6,0.9-5.4,1.2L44,25.8c5.2-0.8,9.8-2,13.7-3.4c-1.3-1.3-2.7-2.6-4.2-3.9l4.2-3.6
		c2.2,1.6,4.1,3.3,5.7,4.9c4.1-2.1,7.3-4.7,9.5-7.7H57.7c-0.2,0.3-0.4,0.5-0.6,0.8c-2.1,2.7-4.4,5-7,6.9l-4.4-3.7
		c2.6-1.8,4.8-3.8,6.7-6.2c2.1-2.3,3.6-4.5,4.8-6.6L62.3,5z M75.9,39.3v-7.1H57v7.1H75.9z"/>
	<path class="st0" d="M126.2,27.7v3.7h-2.5v1.3h2.2v4.1h-2.2v4.7c0,2.1-0.3,3.5-1,4.1c-0.8,0.8-2,1.2-3.8,1.2
		c-0.6,0-1.2-0.1-1.7-0.4l-0.7-4.5c0.8,0.5,1.6,0.8,2.4,0.8c0.5,0,0.8-0.6,0.8-1.9v-3.9h-2.5c0.5,0.8,1,1.6,1.6,2.6l-3.1,2.6
		c-0.7-1.2-1.5-2.5-2.3-3.7l1.9-1.5h-1.8v-4.1h6.2v-1.3H103c-0.6,2.4-1.2,4.4-1.8,6l-3.4-1.2V39c1.6-0.3,3-0.6,4.4-1l0.6,4.5
		c-4.1,1.3-8.6,2.5-13.7,3.6l-1.7-5.2c1.9-0.3,3.8-0.6,5.6-0.9V29h-4.6v-5h4.6v-3h-2.7v-3.2c-0.3,0.3-0.6,0.6-0.8,0.8l-3.2-3.6
		c1.6-1.8,3-3.6,4.1-5.4c1.2-2,2.2-4.1,3-6.2L98,4.9c-0.2,0.6-0.4,1.1-0.6,1.5c2.2,1.2,4.1,2.7,6,4.3l-3.2,4.5
		c-1.6-1.5-3.3-2.9-5-4.1c-0.3,0.4-0.5,0.9-0.7,1.2c-0.8,1.3-1.6,2.5-2.5,3.6h9v5h-3.2v3h4.2v5h-4.2v6c0.6-1.6,1.1-3.3,1.5-4.8
		l3.5,0.9v-3.3H126.2z M92.6,37.5l-3.9,1.3C88.5,36.3,88,34,87.4,32l3.7-1.3C91.7,32.8,92.2,35,92.6,37.5z M125.9,13.8v7h-4.1v-3.4
		h-18.7v-3.6H125.9z M121,18.4v3.6h-5.4V23h8.1v3.6h-20.3V23h7.9v-1.1h-6.1v-3.6H121z M112.4,44h-5.2v1.3h-3.7V32.6h8.9V44z
		 M112.5,4.7V3.1h4.4v1.5h8.4v3.7h-8.4v0.9h6.6v3.6h-17.7V9.3h6.7V8.4h-8.8V4.7H112.5z M108.7,40.1v-3.6h-1.5v3.6H108.7z"/>
	<path class="st0" d="M161,24.7c-3.7,9.1-7.4,16.2-11.3,21.4l-4.4-4.1c4.5-6.4,8.2-13.2,11-20.4L161,24.7z M166.6,3.3v8.8h16V18
		h-36.9v-5.8h15.5V3.3H166.6z M177.8,34c1.7,3.6,3.5,6.3,5.1,8.4l-4.4,4.1c-1.8-2.4-3.5-5.3-5.1-8.7c-2-4-3.8-8.5-5.5-13.4l4.8-3
		C174.3,26.2,176,30.4,177.8,34z"/>
	<path class="st0" d="M204.4,13.6V3.3h5.2v10.3h15.7v5.4h-14.3c1.3,4.8,3.1,9,5.4,12.4c2.6,4,6.1,7.2,10.5,9.4l-2.7,5.8
		c-4.6-2.4-8.6-6-11.8-10.9c-1.8-2.6-3.4-5.7-4.7-9.1c-1,2.6-2.2,5.1-3.8,7.4c-3.5,5.2-7.9,9.4-13.2,12.6l-2.9-5.1
		c5.7-3.7,10-7.8,12.7-12.4c1.9-3.3,3-6.6,3.5-10.1h-15.2v-5.4H204.4z"/>
	<path class="st0" d="M239.5,15.7l-3.2,4.5c-1.7-2.1-3.4-3.8-5.2-5.3l3.2-3.7C236.2,12.5,237.9,14,239.5,15.7z M240.5,23v14.4
		c1.8,1.5,3.9,2.3,6.3,2.5c1.8,0.4,6.2,0.5,13.2,0.5c4.1,0,7.6-0.3,10.5-1c-0.9,1.9-1.6,3.9-2.2,6.2h-12.8c-4.6,0-8.3-0.4-11-1.2
		c-2-0.6-4-1.8-5.9-3.6c-1.5,1.9-2.9,3.7-4.4,5.7c-1.1-2-2.2-3.8-3.2-5.5c1.6-0.9,3.2-1.8,4.8-2.8V28.3H231V23H240.5z M242.9,7.8
		l-3.2,4.5c-1.7-2.1-3.5-3.8-5.4-5.3l3.2-3.7C239.5,4.6,241.2,6.1,242.9,7.8z M251.8,5c-0.4,1.2-0.9,2.3-1.3,3.2h4.7
		c0.4-1.5,0.8-3.2,1.1-4.9l5.1,1.7c-0.3,1.2-0.7,2.3-1,3.2h8.5v4.8h-8.4v3.4h7.1v4.8h-7.1v3.2h7.1v4.8h-7.1v3.9h8.6v4.9h-24.1V18.8
		c-0.5,0.8-1.1,1.5-1.7,2.2l-4.1-3.4c1.7-2.1,3.3-4.3,4.6-6.6c1.5-2.6,2.6-5.2,3.5-7.7L251.8,5z M255.7,13.1h-6.1v3.4h6.1V13.1z
		 M255.7,21.3h-6.1v3.2h6.1V21.3z M255.7,29.4h-6.1v3.9h6.1V29.4z"/>
	<path class="st0" d="M287.9,5c-1,3.1-2.1,6-3.4,9v32.6h-4.9V23.3c-1,1.5-1.9,2.8-2.9,4l-2.5-5.4c4.1-5.9,7-12,8.8-18.6L287.9,5z
		 M296.4,3.3v15.2c4.3-2.4,8.3-5.1,12-8.2l3.4,5.2c-4.8,3.5-9.8,6.4-15.3,8.8v13.9c0,1.1,0.5,1.7,1.4,1.8c0.5,0.2,1.9,0.3,4.2,0.3
		c2.5,0,3.9-0.2,4.3-0.7c0.6-0.4,1-1.2,1.4-2.5c0.3-0.8,0.5-2.1,0.8-3.9l4.8,3c-0.9,4.7-2,7.4-3.4,8.3c-0.4,0.5-1.3,0.8-2.9,1
		c-0.8,0.2-2.4,0.3-4.9,0.3c-2.5,0-4.4-0.2-5.7-0.5c-3.2-0.3-4.8-2.3-4.8-5.9v-36H296.4z"/>
	<path class="st0" d="M329.9,5v4.1c-1.3,3.5-2.6,6.5-4,9.2h5.6c-0.7,7.7-1.9,13.4-3.5,17.2c-0.2,0.5-0.4,0.9-0.6,1.3
		c0.5,0.5,1,0.9,1.5,1.2c2.3,1.7,7.3,2.5,15,2.6c3.9,0,8.1-0.2,12.6-0.6l-1.7,5.8h-10.9c-8.5,0-14.3-1.2-17.2-3.4
		c-0.6-0.4-1.2-0.8-1.6-1.3c-1.3,2-2.8,3.8-4.5,5.7l-3.2-3.9c2-1.8,3.6-3.6,4.8-5.5c-1.3-2.2-2.4-4.9-3.1-8.2l3.5-1.7
		c0.6,2,1.3,3.6,2,5.1c0.9-2.5,1.6-5.6,1.9-9.2h-3.3c-0.5,0.8-1,1.4-1.4,2.1l-3.5-2.6c2.3-3.7,4.4-7.9,6.1-12.6h-6.1V5H329.9z
		 M340.1,5.8V3.3h4.7v2.4h8.8v6.8h2.7v4.8h-2.7v6.8h-8.8v1.5h9.8v4.9h-9.8v1.7h11v4.8h-11v2.8h-4.7v-2.8h-10.2v-4.8h10.2v-1.7H332
		v-4.9h8.1v-1.5h-7.3v-4.9h7.3v-1.9h-9.6v-4.8h9.6v-1.9H333V5.8H340.1z M344.8,12.5h4.1v-1.9h-4.1V12.5z M344.8,19.3h4.1v-1.9h-4.1
		V19.3z"/>
	<path class="st0" d="M367.1,11V3.3h4.7V11h5.6v5.1h-5.6v2.2c2.6,2.3,4.8,4.5,6.7,6.6l-3,4.8c-1.3-1.8-2.5-3.5-3.7-5v21.9h-4.7V27.5
		c-1.2,3-2.5,5.7-4.1,8.1l-2.9-3.9c1.3-1.9,2.7-4.7,4.1-8.2c1-2.3,1.9-4.8,2.6-7.4h-5.7V11H367.1z M389.7,10.9V3.3h4.9v7.5h5.1v5.2
		h-5.1v23.2c0,2.8-0.4,4.6-1.1,5.6c-0.9,1.2-2.5,1.7-4.8,1.7c-1.8,0-3.4-0.1-4.9-0.2l-0.8-5.6c1.7,0.2,3.4,0.3,5.1,0.3
		c0.7,0,1.1-0.2,1.3-0.6c0.2-0.5,0.3-1.4,0.3-2.5V25.7c-1.4,2.7-3,5.2-4.6,7.6c-2.2,3.3-4.4,5.9-6.3,7.7l-3.2-4.1
		c2.5-2.2,5.1-5.4,7.9-9.6c2.4-3.6,4.5-7.3,6.3-11.1v-0.1h-10.5v-5.2H389.7z"/>
</g>
<g>
</g>
<g>
</g>
<g>
</g>
<g>
</g>
<g>
</g>
<g>
</g>
</svg>
